<svg width="280" height="330" viewBox="0 0 280 330" xmlns="http://www.w3.org/2000/svg"><title>javascript-icon</title><g fill="#36383A" fill-rule="evenodd"><path d="M9 321h232V9H9v312zM0 6.01C0 2.69 2.68 0 5.994 0h238.012C247.316 0 250 2.68 250 6.01v317.98c0 3.32-2.68 6.01-5.994 6.01H5.994A5.996 5.996 0 0 1 0 323.99V6.01zM241 190v80h9v-80h-9z" fill-rule="nonzero"/><path d="M18 39h60v9H18v-9zm9 18h140v9H27v-9zm9 18h90v9H36v-9zm0 18h110v9H36v-9zm0 18h70v9H36v-9zm-9 18h11v9H27v-9zm-9 18h11v9H18v-9z"/><path d="M9 261h262v-62H9v62zm-9-71h280v80H0v-80z" fill-rule="nonzero"/><path d="M193.508 243.43c.616.44 1.65.924 3.102 1.452 1.452.528 3.124.792 5.016.792 1.848 0 3.322-.319 4.422-.957 1.1-.638 1.936-1.617 2.508-2.937.572-1.32.946-2.959 1.122-4.917.176-1.958.264-4.257.264-6.897V206.14h9.108v23.826c0 3.564-.187 6.809-.561 9.735-.374 2.926-1.166 5.423-2.376 7.491-1.21 2.068-2.959 3.674-5.247 4.818-2.288 1.144-5.368 1.716-9.24 1.716-3.96 0-7.348-.968-10.164-2.904l2.046-7.392zm62.7-25.014c-.308-.308-.869-.726-1.683-1.254-.814-.528-1.804-1.045-2.97-1.551a25.58 25.58 0 0 0-3.795-1.287 16.574 16.574 0 0 0-4.158-.528c-2.508 0-4.378.462-5.61 1.386-1.232.924-1.848 2.222-1.848 3.894 0 .968.231 1.771.693 2.409.462.638 1.133 1.199 2.013 1.683.88.484 1.991.924 3.333 1.32s2.893.814 4.653 1.254c2.288.616 4.367 1.276 6.237 1.98s3.454 1.584 4.752 2.64a10.9 10.9 0 0 1 3.003 3.795c.704 1.474 1.056 3.289 1.056 5.445 0 2.508-.473 4.653-1.419 6.435-.946 1.782-2.222 3.223-3.828 4.323-1.606 1.1-3.454 1.903-5.544 2.409-2.09.506-4.279.759-6.567.759-3.52 0-6.996-.528-10.428-1.584-3.432-1.056-6.512-2.552-9.24-4.488l4.026-7.854c.396.396 1.111.913 2.145 1.551 1.034.638 2.255 1.276 3.663 1.914 1.408.638 2.97 1.177 4.686 1.617 1.716.44 3.476.66 5.28.66 5.016 0 7.524-1.606 7.524-4.818 0-1.012-.286-1.87-.858-2.574-.572-.704-1.386-1.32-2.442-1.848-1.056-.528-2.332-1.012-3.828-1.452-1.496-.44-3.168-.924-5.016-1.452-2.244-.616-4.191-1.287-5.841-2.013-1.65-.726-3.025-1.584-4.125-2.574-1.1-.99-1.925-2.134-2.475-3.432s-.825-2.849-.825-4.653c0-2.376.44-4.488 1.32-6.336.88-1.848 2.101-3.388 3.663-4.62 1.562-1.232 3.377-2.167 5.445-2.805 2.068-.638 4.29-.957 6.666-.957 3.3 0 6.336.517 9.108 1.551 2.772 1.034 5.192 2.255 7.26 3.663l-4.026 7.392z"/></g></svg>