<svg width="280" height="173" viewBox="0 0 280 173" xmlns="http://www.w3.org/2000/svg" xmlns:xlink="http://www.w3.org/1999/xlink"><title>node-logo</title><defs><path d="M28.418 67.771L1.828 52.427a3.21 3.21 0 0 1-1.605-2.781V18.935c0-1.147.612-2.207 1.605-2.782L28.417.797a3.214 3.214 0 0 1 3.212 0l26.583 15.356a3.214 3.214 0 0 1 1.605 2.782v30.712a3.208 3.208 0 0 1-1.606 2.78L31.629 67.771a3.212 3.212 0 0 1-3.211 0" id="a"/><linearGradient x1="-4418.47%" y1="16.568%" x2="5323.229%" y2="16.568%" id="c"><stop stop-color="#9BB48F" offset="0%"/><stop stop-color="#9BB48F" offset="9.192%"/><stop stop-color="#9BB48F" offset="30.263%"/><stop stop-color="#687E67" offset="86.244%"/><stop stop-color="#687E67" offset="100%"/></linearGradient><path d="M28.418 67.771L1.828 52.427a3.21 3.21 0 0 1-1.605-2.781V18.935c0-1.147.612-2.207 1.605-2.782L28.417.797a3.214 3.214 0 0 1 3.212 0l26.583 15.356a3.214 3.214 0 0 1 1.605 2.782v30.712a3.208 3.208 0 0 1-1.606 2.78L31.629 67.771a3.212 3.212 0 0 1-3.211 0" id="d"/><linearGradient x1="-9713.77%" y1="31.987%" x2="27.929%" y2="31.987%" id="f"><stop stop-color="#9BB48F" offset="0%"/><stop stop-color="#9BB48F" offset="9.192%"/><stop stop-color="#9BB48F" offset="30.263%"/><stop stop-color="#687E67" offset="86.244%"/><stop stop-color="#687E67" offset="100%"/></linearGradient><path id="g" d="M0 378.635h378.635V0H0z"/><linearGradient x1="68.141%" y1="82.52%" x2="27.833%" y2="10.281%" id="i"><stop stop-color="#687E67" offset="0%"/><stop stop-color="#687E67" offset="52.88%"/><stop stop-color="#83A178" offset="100%"/></linearGradient><linearGradient x1="43.204%" y1="44.778%" x2="159.268%" y2="118.3%" id="j"><stop stop-color="#687E67" offset="0%"/><stop stop-color="#687E67" offset="13.756%"/><stop stop-color="#9BB48F" offset="69.737%"/><stop stop-color="#9BB48F" offset="90.808%"/><stop stop-color="#9BB48F" offset="100%"/></linearGradient><linearGradient x1="-4.533%" y1="49.998%" x2="101.719%" y2="49.998%" id="k"><stop stop-color="#9BB48F" offset="0%"/><stop stop-color="#9BB48F" offset="9.192%"/><stop stop-color="#9BB48F" offset="30.263%"/><stop stop-color="#687E67" offset="86.244%"/><stop stop-color="#687E67" offset="100%"/></linearGradient><path d="M28.418 67.771L1.828 52.427a3.21 3.21 0 0 1-1.605-2.781V18.935c0-1.147.612-2.207 1.605-2.782L28.417.797a3.214 3.214 0 0 1 3.212 0l26.583 15.356a3.214 3.214 0 0 1 1.605 2.782v30.712a3.208 3.208 0 0 1-1.606 2.78L31.629 67.771a3.212 3.212 0 0 1-3.211 0" id="l"/><linearGradient x1="-103.698%" y1="49.999%" x2="100.586%" y2="49.999%" id="n"><stop stop-color="#9BB48F" offset="0%"/><stop stop-color="#9BB48F" offset="9.192%"/><stop stop-color="#9BB48F" offset="30.263%"/><stop stop-color="#687E67" offset="86.244%"/><stop stop-color="#687E67" offset="100%"/></linearGradient><path d="M28.418 67.771L1.828 52.427a3.21 3.21 0 0 1-1.605-2.781V18.935c0-1.147.612-2.207 1.605-2.782L28.417.797a3.214 3.214 0 0 1 3.212 0l26.583 15.356a3.214 3.214 0 0 1 1.605 2.782v30.712a3.208 3.208 0 0 1-1.606 2.78L31.629 67.771a3.212 3.212 0 0 1-3.211 0" id="o"/><linearGradient x1="130.347%" y1="311.036%" x2="4.358%" y2="-101.153%" id="q"><stop stop-color="#687E67" offset="0%"/><stop stop-color="#687E67" offset="52.88%"/><stop stop-color="#83A178" offset="100%"/></linearGradient></defs><g fill="none" fill-rule="evenodd"><g transform="matrix(1 0 0 -1 73.485 108.128)"><mask id="b" fill="#fff"><use xlink:href="#a"/></mask><path d="M.396.209L.03 0h.488z" fill-rule="nonzero" fill="url(#c)" transform="translate(27.136 73.203)" mask="url(#b)"/></g><g transform="matrix(1 0 0 -1 73.485 108.128)"><mask id="e" fill="#fff"><use xlink:href="#d"/></mask><path d="M.176.24L0 .54V.139L.176.24z" fill-rule="nonzero" fill="url(#f)" transform="translate(60.582 16.408)" mask="url(#e)"/></g><g transform="matrix(1 0 0 -1 -48.94 275.99)"><mask id="h" fill="#fff"><use xlink:href="#g"/></mask><g mask="url(#h)"><path d="M187.395 104.16c-.921 0-1.838.24-2.644.707l-8.417 4.98c-1.257.704-.643.953-.229 1.097 1.677.582 2.017.717 3.806 1.731.186.106.434.065.626-.048l6.467-3.838c.234-.13.565-.13.78 0l25.211 14.55a.794.794 0 0 1 .385.683v29.094c0 .285-.15.55-.391.695l-25.2 14.538a.789.789 0 0 1-.777 0l-25.194-14.542a.81.81 0 0 1-.4-.69v-29.095c0-.279.155-.542.398-.674l6.906-3.99c3.747-1.874 6.042.333 6.042 2.55v28.725c0 .406.326.726.732.726h3.197c.4 0 .73-.32.73-.726v-28.725c0-5.001-2.723-7.87-7.464-7.87-1.457 0-2.605 0-5.807 1.579l-6.611 3.806a5.324 5.324 0 0 0-2.644 4.599v29.094a5.312 5.312 0 0 0 2.644 4.595l25.21 14.568c1.595.902 3.716.902 5.298 0l25.21-14.568a5.322 5.322 0 0 0 2.647-4.595v-29.094a5.337 5.337 0 0 0-2.648-4.6l-25.209-14.555a5.285 5.285 0 0 0-2.654-.707" fill="#689F63" fill-rule="nonzero"/><path d="M195.182 124.204c-11.032 0-13.343 5.064-13.343 9.311 0 .404.325.727.729.727h3.259a.73.73 0 0 0 .724-.618c.493-3.318 1.96-4.992 8.631-4.992 5.311 0 7.572 1.201 7.572 4.019 0 1.624-.64 2.83-8.894 3.638-6.898.683-11.165 2.207-11.165 7.725 0 5.087 4.287 8.12 11.476 8.12 8.077 0 12.073-2.803 12.58-8.817a.738.738 0 0 0-.193-.561.743.743 0 0 0-.534-.233h-3.272a.726.726 0 0 0-.707.57c-.786 3.492-2.694 4.607-7.874 4.607-5.798 0-6.472-2.02-6.472-3.534 0-1.834.795-2.367 8.624-3.403 7.748-1.024 11.428-2.474 11.428-7.92 0-5.493-4.58-8.639-12.569-8.639M225.88 155.051h.848c.693 0 .823.488.823.77 0 .747-.515.747-.798.747h-.872v-1.517zm-1.03 2.391h1.878c.643 0 1.903 0 1.903-1.44 0-1.003-.643-1.208-1.03-1.337.748-.051.798-.54.9-1.234.053-.436.13-1.183.283-1.44h-1.155c-.028.257-.208 1.646-.208 1.722-.075.31-.18.463-.565.463h-.95v-2.184h-1.055v5.45zm-2.248-2.712c0-2.263 1.826-4.089 4.062-4.089 2.263 0 4.088 1.864 4.088 4.089 0 2.262-1.85 4.061-4.088 4.061a4.053 4.053 0 0 1-4.062-4.061zm8.933-.014a4.872 4.872 0 0 0-4.859-4.858c-2.648 0-4.859 2.159-4.859 4.858 0 2.75 2.263 4.86 4.86 4.86 2.622 0 4.858-2.11 4.858-4.86z" fill="#689F63" fill-rule="nonzero"/><path d="M109.326 217.989c0 1.161-.611 2.23-1.614 2.805l-26.728 15.382a3.14 3.14 0 0 1-1.471.425h-.277a3.188 3.188 0 0 1-1.476-.425l-26.728-15.382a3.239 3.239 0 0 1-1.616-2.805l.058-41.42c0-.576.3-1.112.806-1.395a1.553 1.553 0 0 1 1.604 0l15.885 9.096a3.253 3.253 0 0 1 1.616 2.802v19.35c0 1.154.61 2.222 1.612 2.795l6.763 3.896a3.213 3.213 0 0 0 3.224 0l6.761-3.896a3.219 3.219 0 0 0 1.615-2.794v-19.351a3.26 3.26 0 0 1 1.618-2.802l15.88-9.096a1.571 1.571 0 0 1 1.614 0c.492.283.802.819.802 1.395l.052 41.42zM235.454 196.421a.805.805 0 0 0-.404-.697l-9.18-5.293a.81.81 0 0 0-.806 0l-9.181 5.293a.804.804 0 0 0-.404.697v10.602c0 .287.153.554.403.699l9.18 5.302c.25.145.558.145.809 0l9.18-5.302a.81.81 0 0 0 .403-.7v-10.6zm2.48 78.506a1.616 1.616 0 0 1-2.401-1.41v-41.02a1.13 1.13 0 0 0-1.694-.979l-6.695 3.858a3.228 3.228 0 0 1-3.226 0l-26.738-15.432a3.228 3.228 0 0 1-1.615-2.796v-30.869c0-1.153.615-2.219 1.613-2.797l26.738-15.442a3.23 3.23 0 0 1 3.23 0l26.742 15.442a3.233 3.233 0 0 1 1.615 2.797v76.949a3.23 3.23 0 0 1-1.656 2.82l-15.912 8.88zM326.971 207.3a3.228 3.228 0 0 1 1.607 2.792v7.48c0 1.15-.612 2.215-1.608 2.793l-26.567 15.425c-1 .58-2.233.581-3.235.004l-26.73-15.431a3.228 3.228 0 0 1-1.614-2.796v-30.86c0-1.162.623-2.233 1.63-2.806l26.564-15.136c.98-.56 2.18-.566 3.166-.018l16.067 8.93a1.613 1.613 0 0 1 .02 2.812l-26.899 15.438a1.615 1.615 0 0 0-.811 1.4V207c0 .577.308 1.111.808 1.399l8.372 4.826a1.612 1.612 0 0 0 1.611 0l8.376-4.826c.5-.288.807-.822.807-1.399v-7.609a1.615 1.615 0 0 1 2.426-1.396l16.01 9.306z" fill="#333"/><path d="M298.391 208.745a.618.618 0 0 0 .62 0l5.13-2.96a.62.62 0 0 0 .31-.536v-5.925a.62.62 0 0 0-.31-.537l-5.13-2.96a.618.618 0 0 0-.62 0l-5.126 2.96a.62.62 0 0 0-.31.537v5.925a.62.62 0 0 0 .31.537l5.126 2.96z" fill="#689F63"/></g></g><path d="M28.418 67.771L1.828 52.427a3.209 3.209 0 0 1-1.605-2.781V18.935c0-1.147.611-2.207 1.605-2.782L28.417.797a3.214 3.214 0 0 1 3.212 0l26.583 15.356a3.214 3.214 0 0 1 1.605 2.782v30.712a3.208 3.208 0 0 1-1.606 2.78L31.629 67.771a3.21 3.21 0 0 1-3.21 0" transform="matrix(1 0 0 -1 73.485 108.128)" fill-rule="nonzero" fill="url(#i)"/><path d="M.252 16.984c.253-.331.572-.615.945-.83L24.005 2.98 27.803.797a3.236 3.236 0 0 1 1.852-.42c.213.018.425.057.632.117l28.038 51.341c-.215.23-.464.43-.745.592l-17.41 10.05-9.2 5.294c-.263.152-.545.261-.835.332L.252 16.984z" transform="matrix(1 0 0 -1 74.116 108.128)" fill-rule="nonzero" fill="url(#j)"/><path d="M27.808 68.185a3.2 3.2 0 0 1-1.283-.414L.01 52.471 28.594.401c.396.057.784.19 1.142.396L56.32 16.153a3.216 3.216 0 0 1 1.551 2.194L28.729 68.132a3.341 3.341 0 0 1-.653.064c-.09 0-.18-.004-.268-.011" transform="matrix(1 0 0 -1 75.378 108.128)" fill-rule="nonzero" fill="url(#k)"/><g transform="matrix(1 0 0 -1 73.485 108.128)"><mask id="m" fill="#fff"><use xlink:href="#l"/></mask><path d="M27.988 16.784L1.372 1.43a3.208 3.208 0 0 0-1.174-.4l.53-.965L30.29 17.176v.403l-.73 1.25a3.36 3.36 0 0 0-1.573-2.045" fill-rule="nonzero" fill="url(#n)" transform="translate(30.29 -.631)" mask="url(#m)"/></g><g transform="matrix(1 0 0 -1 73.485 108.128)"><mask id="p" fill="#fff"><use xlink:href="#o"/></mask><path d="M27.988 16.784L1.372 1.43a3.208 3.208 0 0 0-1.174-.4l.53-.965L30.29 17.176v.403l-.73 1.25a3.36 3.36 0 0 0-1.573-2.045" fill-rule="nonzero" fill="url(#q)" transform="translate(30.29 -.631)" mask="url(#p)"/></g></g></svg>