<svg width="280" height="87" viewBox="0 0 280 87" xmlns="http://www.w3.org/2000/svg"><title>react-logo</title><g fill-rule="nonzero" fill="#00D8FF"><ellipse cx="48.871" cy="43.333" rx="8.708" ry="8.708"/><path d="M48.87 27.71c-11.391 0-22.341 1.63-30.47 4.464-8.83 3.078-14.125 7.608-14.125 11.159 0 1.668 1.221 3.725 3.64 5.796 2.692 2.306 6.619 4.418 11.374 6.043 7.596 2.597 17.994 3.957 29.582 3.957 11.03 0 21.312-1.387 28.997-3.934 9.653-3.198 15.598-8.092 15.598-11.862 0-3.54-5.505-8.133-14.53-11.24-8.125-2.797-18.814-4.383-30.065-4.383zm0-4.166c11.69 0 22.833 1.653 31.422 4.61 10.533 3.626 17.34 9.306 17.34 15.179 0 6.125-7.274 12.113-18.454 15.817-8.147 2.7-18.862 4.146-30.307 4.146-12.01 0-22.846-1.418-30.93-4.181C7.189 55.439.11 49.377.11 43.333c0-5.852 6.594-11.494 16.919-15.093 8.6-2.998 20.008-4.696 31.843-4.696z"/><path d="M35.261 35.571c-5.69 9.87-9.75 20.169-11.355 28.627-1.744 9.187-.466 16.036 2.61 17.81 1.446.833 3.838.803 6.84-.257 3.342-1.18 7.134-3.527 10.918-6.835 6.044-5.283 12.417-13.61 18.206-23.648 5.51-9.555 9.444-19.156 11.078-27.085 2.052-9.96.782-17.555-2.484-19.438-3.066-1.768-9.795.706-16.995 6.971-6.483 5.642-13.197 14.109-18.818 23.855zm-3.609-2.08c5.84-10.128 12.84-18.954 19.692-24.917C59.747 1.26 68.067-1.798 73.155 1.136c5.306 3.06 6.86 12.352 4.483 23.888-1.732 8.406-5.832 18.41-11.55 28.325-6 10.404-12.64 19.082-19.073 24.704-8.556 7.48-17.344 10.583-22.58 7.564-5.069-2.924-6.662-11.454-4.622-22.196 1.699-8.947 5.927-19.679 11.84-29.93z"/><path d="M35.274 51.29c5.708 9.86 12.605 18.52 19.13 24.135 7.088 6.1 13.66 8.412 16.734 6.633 1.444-.836 2.612-2.924 3.193-6.055.647-3.484.507-7.941-.469-12.87-1.558-7.876-5.59-17.556-11.396-27.584-5.526-9.546-11.878-17.75-17.932-23.124C36.93 5.673 29.715 2.98 26.452 4.869c-3.063 1.773-4.28 8.838-2.447 18.205 1.65 8.434 5.632 18.479 11.27 28.216zm-3.605 2.088c-5.857-10.117-10.008-20.59-11.753-29.504-2.139-10.932-.634-19.669 4.45-22.611 5.3-3.069 14.127.226 22.934 8.046 6.418 5.698 13.037 14.247 18.772 24.152 6.017 10.394 10.218 20.482 11.877 28.862 2.207 11.149.507 20.312-4.724 23.34-5.064 2.932-13.25.052-21.538-7.08-6.903-5.94-14.088-14.963-20.018-25.205zM155.46 59.888l-11.874-17.942c6.003-.528 11.412-4.881 11.412-12.797 0-8.113-5.739-13.259-13.786-13.259h-17.679v43.998h5.475v-17.48h8.774l11.213 17.48h6.465zm-14.908-22.295h-11.544V20.772h11.544c5.211 0 8.773 3.43 8.773 8.377 0 4.947-3.562 8.444-8.773 8.444zm35.29 23.087c5.212 0 9.5-1.715 12.666-4.881l-2.375-3.233c-2.506 2.573-6.2 4.024-9.828 4.024-6.86 0-11.082-5.013-11.478-11.016h25.792v-1.253c0-9.565-5.673-17.085-15.304-17.085-9.103 0-15.7 7.454-15.7 16.69 0 9.96 6.795 16.754 16.228 16.754zm9.895-18.734h-20.91c.264-4.881 3.628-10.62 10.422-10.62 7.256 0 10.422 5.87 10.488 10.62zm37.732 17.942v-21.9c0-7.717-5.607-10.752-12.335-10.752-5.212 0-9.301 1.715-12.732 5.277l2.31 3.43c2.836-3.034 5.936-4.42 9.762-4.42 4.617 0 8.048 2.442 8.048 6.73v5.738c-2.573-2.968-6.201-4.354-10.555-4.354-5.409 0-11.148 3.365-11.148 10.489 0 6.926 5.74 10.554 11.148 10.554 4.288 0 7.916-1.517 10.555-4.42v3.628h4.947zm-13.72-2.77c-4.618 0-7.85-2.903-7.85-6.926 0-4.09 3.232-6.992 7.85-6.992 3.495 0 6.86 1.319 8.773 3.957v6.003c-1.913 2.639-5.278 3.958-8.774 3.958zm37.665 3.562c5.805 0 9.235-2.375 11.675-5.541l-3.298-3.034c-2.11 2.836-4.815 4.155-8.113 4.155-6.795 0-11.016-5.277-11.016-12.335 0-7.058 4.221-12.27 11.016-12.27 3.298 0 6.002 1.254 8.113 4.157l3.298-3.035c-2.44-3.166-5.87-5.54-11.675-5.54-9.5 0-15.898 7.255-15.898 16.688 0 9.499 6.399 16.755 15.898 16.755zm26.65 0c2.902 0 4.683-.858 5.936-2.045l-1.451-3.694c-.66.726-1.98 1.32-3.364 1.32-2.177 0-3.233-1.716-3.233-4.09V32.38h6.465v-4.353h-6.465V19.32h-4.947v8.707h-5.277v4.353h5.277v20.845c0 4.75 2.375 7.454 7.058 7.454z"/></g></svg>