<svg width="280" height="280" viewBox="0 0 280 280" xmlns="http://www.w3.org/2000/svg"><title>react-native-icon</title><g fill="none" fill-rule="evenodd"><path d="M149.032 81.298C221.57 81.81 280 106.884 280 137.742c0 30.858-58.43 55.933-130.968 56.444v-9.032c67.549-.46 121.936-21.511 121.936-47.412S216.58 90.79 149.032 90.33v-9.032z" fill="#36383A"/><path d="M149.032 45.808c16.624 15.586 33.342 36.773 47.767 61.757 36.789 63.72 44.724 128.014 17.724 143.602-15.937 9.202-40.485-.623-65.49-23.323v-11.795c23.738 24.032 46.889 35.428 60.974 27.296 22.68-13.094 13.265-71.863-21.03-131.264-12.327-21.35-26.19-39.876-39.945-54.241V45.808z" fill="#36383A"/><path d="M149.032 229.671c16.62-15.585 33.332-36.767 47.753-61.744 36.79-63.72 44.725-128.014 17.724-143.602-15.934-9.2-40.475.619-65.477 23.31V59.43c23.734-24.023 46.879-35.413 60.961-27.282 22.68 13.094 13.265 71.863-21.03 131.264-12.322 21.343-26.18 39.863-39.93 54.227v12.033z" fill="#36383A"/><path d="M149.032 113.005c12.66 1.145 22.58 11.82 22.58 24.822 0 13.001-9.92 23.677-22.58 24.822v-49.644zM0 5.994C0 2.684 2.694 0 6.003 0h132.51a5.997 5.997 0 0 1 6.003 5.994v268.012c0 3.31-2.694 5.994-6.003 5.994H6.003A5.997 5.997 0 0 1 0 274.006V5.994zm9.032 5.033v257.946a2 2 0 0 0 2 1.995h122.453a1.995 1.995 0 0 0 1.999-1.995V11.027a2 2 0 0 0-2-1.995H11.032a1.995 1.995 0 0 0-1.999 1.995z" fill="#36383A"/><path d="M18.065 36.129h108.387v189.677H18.065V36.13zm9.032 9.032v171.613h90.322V45.161H27.097zM45.161 18.065h54.194v9.032H45.161zM72.258 261.935c-7.483 0-13.548-6.065-13.548-13.548 0-7.482 6.065-13.548 13.548-13.548s13.548 6.066 13.548 13.548c0 7.483-6.065 13.548-13.548 13.548zm0-9.032a4.516 4.516 0 1 0 0-9.032 4.516 4.516 0 0 0 0 9.032z" fill="#36383A"/></g></svg>