<svg width="80" height="80" viewBox="0 0 80 80" xmlns="http://www.w3.org/2000/svg"><title>logotype</title><g fill="#FFF" fill-rule="evenodd" fill-opacity=".2"><path d="M41.342 40.966h5.584v13.799h-5.584z"/><path d="M57.88 55.463l3.758 3.168c-5.316 6.228-13.208 10.201-22.014 10.201-15.946 0-28.832-12.94-28.832-28.832 0-14.658 10.792-27.007 25.289-28.617l.536 4.94c-11.758 1.503-20.832 11.543-20.832 23.73 0 13.209 10.685 23.893 23.893 23.893 7.248-.053 13.799-3.329 18.201-8.483z"/><path d="M39.893.161C17.933.161.16 17.933.16 39.893s17.772 39.731 39.732 39.731 39.731-17.772 39.731-39.731C79.678 17.987 61.852.16 39.893.16zm-.108 75.49c-19.65 0-35.597-15.946-35.597-35.597 0-19.651 15.946-35.598 35.597-35.598 19.651 0 35.598 15.947 35.598 35.598 0 19.65-15.947 35.597-35.598 35.597z"/><path d="M68.456 40H36.617v-4.886c2.202 0 21.584-.054 26.417-.054-1.826-8.375-8.054-15.248-16.162-17.879l.054 16.913H41.29V16.107c-.537-.053-1.128-.053-1.665-.053-.59 0-1.127 0-1.718.053l-.322-4.94c.644-.053 1.342-.053 1.986-.053 16 0 28.886 12.94 28.886 28.886z"/></g></svg>