<svg width="317" height="100" viewBox="0 0 317 100" xmlns="http://www.w3.org/2000/svg"><title>logo</title><g fill="#FFF" fill-rule="evenodd"><path d="M51.678 51.208h6.98v17.248h-6.98z"/><path d="M72.349 69.329l4.698 3.96C70.403 81.074 60.537 86.04 49.53 86.04c-19.933 0-36.04-16.174-36.04-36.04 0-18.322 13.49-33.758 31.61-35.772l.672 6.175c-14.698 1.879-26.04 14.43-26.04 29.664 0 16.51 13.355 29.866 29.865 29.866 9.06-.067 17.249-4.161 22.752-10.604z"/><path d="M49.866.201C22.416.201.2 22.416.2 49.866S22.416 99.53 49.866 99.53 99.53 77.315 99.53 49.866C99.597 22.483 77.315.2 49.866.2zm-.134 94.363c-24.564 0-44.497-19.933-44.497-44.497S25.168 5.57 49.732 5.57c24.563 0 44.496 19.933 44.496 44.497S74.295 94.564 49.732 94.564z"/><path d="M85.57 50H45.772v-6.107c2.751 0 26.98-.067 33.02-.067-2.282-10.47-10.067-19.06-20.201-22.35l.067 21.141H51.61V20.134c-.671-.067-1.41-.067-2.08-.067-.74 0-1.41 0-2.148.067l-.403-6.174c.805-.067 1.678-.067 2.483-.067 20 0 36.107 16.174 36.107 36.107zm50.574-10.56V42H120.72V19.28h15.136v2.56H123.6v7.36h10.656v2.4H123.6v7.84h12.544zm2.49 2.56l9.344-22.72h2.368L159.658 42h-3.072l-2.688-6.656h-9.536L141.706 42h-3.072zm10.528-19.392l-4.224 10.496h8.32l-4.096-10.496zm27.386 1.44a4.739 4.739 0 0 0-1.024-.864 9.11 9.11 0 0 0-1.44-.752 10.122 10.122 0 0 0-1.744-.544 9.122 9.122 0 0 0-1.968-.208c-1.77 0-3.067.33-3.888.992-.822.661-1.232 1.568-1.232 2.72 0 .619.117 1.13.352 1.536.234.405.602.752 1.104 1.04.501.288 1.125.539 1.872.752.746.213 1.632.437 2.656.672 1.173.256 2.234.55 3.184.88.95.33 1.76.741 2.432 1.232a4.934 4.934 0 0 1 1.536 1.792c.352.704.528 1.568.528 2.592 0 1.088-.214 2.032-.64 2.832a5.677 5.677 0 0 1-1.744 1.984c-.736.523-1.606.907-2.608 1.152a13.73 13.73 0 0 1-3.264.368 15.07 15.07 0 0 1-4.976-.816 13.908 13.908 0 0 1-4.272-2.384l1.376-2.432c.341.363.784.725 1.328 1.088.544.363 1.162.688 1.856.976.693.288 1.44.523 2.24.704.8.181 1.637.272 2.512.272 1.621 0 2.88-.288 3.776-.864.896-.576 1.344-1.44 1.344-2.592 0-.64-.144-1.179-.432-1.616-.288-.437-.71-.816-1.264-1.136-.555-.32-1.243-.603-2.064-.848a58.437 58.437 0 0 0-2.8-.752 27.978 27.978 0 0 1-3.04-.896c-.875-.32-1.606-.704-2.192-1.152a4.347 4.347 0 0 1-1.328-1.632c-.299-.64-.448-1.408-.448-2.304 0-1.088.202-2.048.608-2.88a6.045 6.045 0 0 1 1.696-2.112c.725-.576 1.59-1.008 2.592-1.296 1.002-.288 2.09-.432 3.264-.432 1.536 0 2.922.235 4.16.704a11.65 11.65 0 0 1 3.296 1.888l-1.344 2.336zm23.162-2.208h-7.84V42h-2.88V21.84h-7.84v-2.56h18.56v2.56zm10.548 8.64c0-1.365.24-2.725.72-4.08a11.344 11.344 0 0 1 2.112-3.648c.928-1.077 2.064-1.947 3.408-2.608 1.344-.661 2.869-.992 4.576-.992 2.026 0 3.765.459 5.216 1.376 1.45.917 2.528 2.112 3.232 3.584l-2.272 1.472c-.342-.725-.752-1.333-1.232-1.824a6.324 6.324 0 0 0-1.568-1.184 6.749 6.749 0 0 0-1.744-.64 8.385 8.385 0 0 0-1.76-.192c-1.26 0-2.374.261-3.344.784a7.732 7.732 0 0 0-2.448 2.048 8.856 8.856 0 0 0-1.488 2.848 10.601 10.601 0 0 0-.496 3.184c0 1.195.197 2.33.592 3.408a9.392 9.392 0 0 0 1.648 2.864 8.025 8.025 0 0 0 2.496 1.984 6.79 6.79 0 0 0 3.136.736c.597 0 1.21-.075 1.84-.224a6.792 6.792 0 0 0 1.808-.72 7.722 7.722 0 0 0 1.616-1.248 6.09 6.09 0 0 0 1.232-1.808l2.4 1.312a7.072 7.072 0 0 1-1.52 2.256 9.65 9.65 0 0 1-2.208 1.648 11.23 11.23 0 0 1-2.608 1.024c-.918.235-1.814.352-2.688.352-1.558 0-2.987-.341-4.288-1.024a11.447 11.447 0 0 1-3.376-2.672 12.225 12.225 0 0 1-2.208-3.744 12.105 12.105 0 0 1-.784-4.272zm33.081 11.68c-1.6 0-3.056-.325-4.368-.976a10.779 10.779 0 0 1-3.376-2.592 11.786 11.786 0 0 1-2.176-3.696 12.197 12.197 0 0 1-.768-4.256c0-1.515.272-2.965.816-4.352a11.997 11.997 0 0 1 2.256-3.68 10.851 10.851 0 0 1 3.408-2.544c1.312-.63 2.736-.944 4.272-.944 1.6 0 3.051.336 4.352 1.008a11.146 11.146 0 0 1 3.36 2.64 12.03 12.03 0 0 1 2.176 3.696 11.979 11.979 0 0 1-.048 8.56 11.956 11.956 0 0 1-2.24 3.664 10.78 10.78 0 0 1-3.392 2.528c-1.312.63-2.736.944-4.272.944zm-7.776-11.52c0 1.152.187 2.267.56 3.344a9.24 9.24 0 0 0 1.584 2.864 7.667 7.667 0 0 0 2.464 1.984c.96.49 2.027.736 3.2.736 1.216 0 2.304-.261 3.264-.784a7.973 7.973 0 0 0 2.448-2.048 9.148 9.148 0 0 0 1.536-2.864c.352-1.067.528-2.144.528-3.232 0-1.152-.186-2.267-.56-3.344a8.87 8.87 0 0 0-1.6-2.848 8.006 8.006 0 0 0-2.464-1.968c-.949-.49-2-.736-3.152-.736-1.216 0-2.304.256-3.264.768a7.875 7.875 0 0 0-2.448 2.016 9.204 9.204 0 0 0-1.552 2.848 10.075 10.075 0 0 0-.544 3.264zM255.653 42l9.344-22.72h2.368L276.677 42h-3.072l-2.688-6.656h-9.536L258.725 42h-3.072zm10.528-19.392l-4.224 10.496h8.32l-4.096-10.496zm27.386 1.44a4.739 4.739 0 0 0-1.024-.864 9.11 9.11 0 0 0-1.44-.752 10.122 10.122 0 0 0-1.744-.544 9.122 9.122 0 0 0-1.968-.208c-1.77 0-3.066.33-3.888.992-.821.661-1.232 1.568-1.232 2.72 0 .619.118 1.13.352 1.536.235.405.603.752 1.104 1.04.502.288 1.126.539 1.872.752a53.38 53.38 0 0 0 2.656.672 27.68 27.68 0 0 1 3.184.88c.95.33 1.76.741 2.432 1.232a4.934 4.934 0 0 1 1.536 1.792c.352.704.528 1.568.528 2.592 0 1.088-.213 2.032-.64 2.832a5.677 5.677 0 0 1-1.744 1.984c-.736.523-1.605.907-2.608 1.152-1.002.245-2.09.368-3.264.368a15.07 15.07 0 0 1-4.976-.816 13.908 13.908 0 0 1-4.272-2.384l1.376-2.432c.342.363.784.725 1.328 1.088.544.363 1.163.688 1.856.976.694.288 1.44.523 2.24.704.8.181 1.638.272 2.512.272 1.622 0 2.88-.288 3.776-.864.896-.576 1.344-1.44 1.344-2.592 0-.64-.144-1.179-.432-1.616-.288-.437-.71-.816-1.264-1.136-.554-.32-1.242-.603-2.064-.848a58.437 58.437 0 0 0-2.8-.752 27.978 27.978 0 0 1-3.04-.896c-.874-.32-1.605-.704-2.192-1.152a4.347 4.347 0 0 1-1.328-1.632c-.298-.64-.448-1.408-.448-2.304 0-1.088.203-2.048.608-2.88a6.045 6.045 0 0 1 1.696-2.112c.726-.576 1.59-1.008 2.592-1.296 1.003-.288 2.09-.432 3.264-.432 1.536 0 2.923.235 4.16.704a11.65 11.65 0 0 1 3.296 1.888l-1.344 2.336zm23.162-2.208h-7.84V42h-2.88V21.84h-7.84v-2.56h18.56v2.56zM120.72 80V57.28h9.472c1.003 0 1.925.208 2.768.624.843.416 1.568.97 2.176 1.664a7.941 7.941 0 0 1 1.424 2.336c.341.864.512 1.744.512 2.64 0 .939-.16 1.845-.48 2.72a7.507 7.507 0 0 1-1.36 2.336 6.61 6.61 0 0 1-2.112 1.632c-.821.405-1.733.608-2.736.608H123.6V80h-2.88zm2.88-10.72h6.624c.597 0 1.136-.123 1.616-.368a3.67 3.67 0 0 0 1.232-1.024c.341-.437.608-.944.8-1.52a5.73 5.73 0 0 0 .288-1.824c0-.661-.112-1.28-.336-1.856a5.026 5.026 0 0 0-.896-1.504 3.958 3.958 0 0 0-1.312-.992 3.692 3.692 0 0 0-1.584-.352H123.6v9.44zM141.354 80V57.28h9.728c1.003 0 1.925.208 2.768.624.843.416 1.568.97 2.176 1.664a7.941 7.941 0 0 1 1.424 2.336c.341.864.512 1.744.512 2.64 0 .79-.112 1.552-.336 2.288a7.08 7.08 0 0 1-.96 2 6.428 6.428 0 0 1-1.504 1.536 5.865 5.865 0 0 1-1.968.928L158.698 80h-3.264l-5.184-8.16h-6.016V80h-2.88zm2.88-10.72h6.88a3.38 3.38 0 0 0 1.616-.384c.48-.256.89-.603 1.232-1.04.341-.437.608-.944.8-1.52a5.63 5.63 0 0 0 .288-1.792c0-.64-.112-1.243-.336-1.808a5.307 5.307 0 0 0-.896-1.504 4.055 4.055 0 0 0-1.312-1.024 3.558 3.558 0 0 0-1.584-.368h-6.688v9.44zm28.25 10.88c-1.6 0-3.056-.325-4.368-.976a10.779 10.779 0 0 1-3.376-2.592 11.786 11.786 0 0 1-2.176-3.696 12.197 12.197 0 0 1-.768-4.256c0-1.515.272-2.965.816-4.352a11.997 11.997 0 0 1 2.256-3.68 10.851 10.851 0 0 1 3.408-2.544c1.312-.63 2.736-.944 4.272-.944 1.6 0 3.05.336 4.352 1.008a11.146 11.146 0 0 1 3.36 2.64 12.03 12.03 0 0 1 2.176 3.696 11.979 11.979 0 0 1-.048 8.56 11.956 11.956 0 0 1-2.24 3.664 10.78 10.78 0 0 1-3.392 2.528c-1.312.63-2.736.944-4.272.944zm-7.776-11.52c0 1.152.186 2.267.56 3.344a9.24 9.24 0 0 0 1.584 2.864 7.667 7.667 0 0 0 2.464 1.984c.96.49 2.026.736 3.2.736 1.216 0 2.304-.261 3.264-.784a7.973 7.973 0 0 0 2.448-2.048 9.148 9.148 0 0 0 1.536-2.864c.352-1.067.528-2.144.528-3.232 0-1.152-.187-2.267-.56-3.344a8.87 8.87 0 0 0-1.6-2.848 8.006 8.006 0 0 0-2.464-1.968c-.95-.49-2-.736-3.152-.736-1.216 0-2.304.256-3.264.768a7.875 7.875 0 0 0-2.448 2.016 9.204 9.204 0 0 0-1.552 2.848 10.075 10.075 0 0 0-.544 3.264zM187.998 80V57.28h7.872c1.813 0 3.408.299 4.784.896s2.522 1.408 3.44 2.432c.917 1.024 1.605 2.224 2.064 3.6.458 1.376.688 2.843.688 4.4 0 1.728-.256 3.29-.768 4.688-.512 1.397-1.248 2.592-2.208 3.584-.96.992-2.118 1.76-3.472 2.304-1.355.544-2.864.816-4.528.816h-7.872zm15.936-11.392c0-1.28-.176-2.459-.528-3.536-.352-1.077-.875-2-1.568-2.768a7.318 7.318 0 0 0-2.544-1.808c-1.003-.437-2.144-.656-3.424-.656h-4.992v17.6h4.992c1.301 0 2.458-.224 3.472-.672 1.013-.448 1.856-1.067 2.528-1.856.672-.79 1.184-1.723 1.536-2.8.352-1.077.528-2.245.528-3.504zm17.114 8.96c1.322 0 2.42-.256 3.296-.768a6.08 6.08 0 0 0 2.096-2c.522-.821.89-1.76 1.104-2.816a16.2 16.2 0 0 0 .32-3.216V57.28h2.88v11.488c0 1.536-.176 2.992-.528 4.368-.352 1.376-.912 2.587-1.68 3.632-.768 1.045-1.766 1.872-2.992 2.48-1.227.608-2.715.912-4.464.912-1.814 0-3.339-.32-4.576-.96-1.238-.64-2.235-1.488-2.992-2.544-.758-1.056-1.302-2.272-1.632-3.648a18.082 18.082 0 0 1-.496-4.24V57.28h2.88v11.488c0 1.13.112 2.224.336 3.28.224 1.056.597 1.99 1.12 2.8a6.036 6.036 0 0 0 2.08 1.968c.864.501 1.946.752 3.248.752zm14.106-9.088c0-1.365.24-2.725.72-4.08a11.344 11.344 0 0 1 2.112-3.648c.928-1.077 2.064-1.947 3.408-2.608 1.344-.661 2.869-.992 4.576-.992 2.026 0 3.765.459 5.216 1.376 1.45.917 2.528 2.112 3.232 3.584l-2.272 1.472c-.342-.725-.752-1.333-1.232-1.824a6.324 6.324 0 0 0-1.568-1.184 6.749 6.749 0 0 0-1.744-.64 8.385 8.385 0 0 0-1.76-.192c-1.26 0-2.374.261-3.344.784a7.732 7.732 0 0 0-2.448 2.048 8.856 8.856 0 0 0-1.488 2.848 10.601 10.601 0 0 0-.496 3.184c0 1.195.197 2.33.592 3.408a9.392 9.392 0 0 0 1.648 2.864 8.025 8.025 0 0 0 2.496 1.984 6.79 6.79 0 0 0 3.136.736c.597 0 1.21-.075 1.84-.224a6.792 6.792 0 0 0 1.808-.72 7.722 7.722 0 0 0 1.616-1.248 6.09 6.09 0 0 0 1.232-1.808l2.4 1.312a7.072 7.072 0 0 1-1.52 2.256 9.65 9.65 0 0 1-2.208 1.648 11.23 11.23 0 0 1-2.608 1.024c-.918.235-1.814.352-2.688.352-1.558 0-2.987-.341-4.288-1.024a11.447 11.447 0 0 1-3.376-2.672 12.225 12.225 0 0 1-2.208-3.744 12.105 12.105 0 0 1-.784-4.272zm40.25-8.64h-7.84V80h-2.88V59.84h-7.84v-2.56h18.56v2.56z"/></g></svg>