<svg width="280" height="220" viewBox="0 0 280 220" xmlns="http://www.w3.org/2000/svg"><title>services-product-design</title><g fill="none" fill-rule="evenodd"><path d="M180 220v-4a4 4 0 0 0-4.003-4H88.003A4.004 4.004 0 0 0 84 216v4h96z" fill="#E6E6E6"/><path fill="#B3B3B3" d="M98 192h68l4 20H94z"/><path fill="#CCC" d="M158 192h8l4 20h-20z"/><path d="M0 166h280v20.002a5.994 5.994 0 0 1-5.994 5.998H5.994A5.995 5.995 0 0 1 0 186.002V166z" fill="#E6E6E6"/><path d="M0 6.006A5.999 5.999 0 0 1 5.994 0h268.012C277.316 0 280 2.692 280 6.006V166H0V6.006z" fill="#666"/><path fill="#F1FAFC" d="M10 10h260v146H10z"/><path fill="#A8CE9F" d="M84 16h88v42H84zm92 92h88v42h-88z"/><path fill="#E66651" d="M84 62h42v42H84z"/><path fill="#55ABBC" d="M130 62h42v42h-42z"/><path fill="#E7C364" d="M222 62h42v42h-42z"/><path fill="#55ABBC" d="M222 16h42v42h-42z"/><path fill="#E66651" d="M176 16h42v88h-42z"/><path fill="#E7C364" d="M84 108h42v42H84z"/><path fill="#EE931B" d="M130 108h42v42h-42z"/><ellipse fill="#666" cx="32" cy="26" rx="6" ry="6"/><path fill="#666" d="M26 42h34v2H26zm0 4h24v1H26zm14-22h24v1H40zM26 56h28v2H26zm0 4h14v1H26zm0 10h22v2H26zm0 4h34v1H26zm0 10h18v2H26zm0 4h30v1H26zm0 10h34v2H26zm0 4h22v1H26zm0 10h26v2H26zm0 4h32v1H26zm0 10h16v2H26zm0 4h18v1H26z"/></g></svg>