<svg width="280" height="162" viewBox="0 0 280 162" xmlns="http://www.w3.org/2000/svg"><title>services-web-and-mobile-development</title><g fill="none" fill-rule="evenodd"><path fill="#E6E6E6" d="M0 146h280v10H0z"/><path d="M0 156h280v3a3 3 0 0 1-3.002 3H3.002A3.003 3.003 0 0 1 0 159v-3z" fill="#B3B3B3"/><path d="M24 5.996A5.997 5.997 0 0 1 29.997 0h220.006A6 6 0 0 1 256 5.996V146H24V5.996z" fill="#666"/><path fill="#FFF" d="M36 12h208v122H36z"/><path fill="#F1FAFC" d="M138 12h106v122H138z"/><path fill="#A8CE9F" d="M138 12h106v16H138z"/><path fill="#FFF" d="M170 20h18v4h-18zm24 0h18v4h-18zm24 0h18v4h-18zm-72 0h18v4h-18z"/><path fill="#A8CE9F" d="M183 120h16v6h-16z"/><path fill="#666" d="M179 96h24v4h-24zm0 8h24v4h-24zm0 8h24v4h-24z"/><path fill="#55ABBC" d="M146 36h90v36h-90z"/><circle fill="#A8CE9F" cx="191" cy="86" r="6"/><path fill="#A8CE9F" d="M216 120h16v6h-16z"/><path fill="#666" d="M212 96h24v4h-24zm0 8h24v4h-24zm0 8h24v4h-24z"/><circle fill="#A8CE9F" cx="224" cy="86" r="6"/><path fill="#A8CE9F" d="M150 120h16v6h-16z"/><path fill="#666" d="M146 96h24v4h-24zm0 8h24v4h-24zm0 8h24v4h-24z"/><circle fill="#A8CE9F" cx="158" cy="86" r="6"/><path fill="#666" d="M46 22h36v4H46zm18 6h40v4H64zm0 6h46v4H64zm0 6h36v4H64zM46 62h36v4H46zm18 6h50v4H64zm0 6h54v4H64zm0 6h38v4H64zm-18 22h36v4H46zm18 6h34v4H64zm0 6h52v4H64zm0 6h46v4H64z"/></g></svg>