<svg width="900" height="220" viewBox="0 0 900 220" xmlns="http://www.w3.org/2000/svg"><title>design-dev-process-graph-website-wide</title><g fill="none" fill-rule="evenodd"><path d="M21.36 212v-11.36h3.936c.907 0 1.704.15 2.392.448a4.88 4.88 0 0 1 1.72 1.216 5.062 5.062 0 0 1 1.032 1.8c.23.688.344 1.421.344 2.2 0 .864-.128 1.645-.384 2.344a5.026 5.026 0 0 1-1.104 1.792 4.95 4.95 0 0 1-1.736 1.152c-.677.272-1.432.408-2.264.408H21.36zm7.968-5.696c0-.64-.088-1.23-.264-1.768-.176-.539-.437-1-.784-1.384a3.66 3.66 0 0 0-1.272-.904c-.501-.219-1.072-.328-1.712-.328H22.8v8.8h2.496c.65 0 1.23-.112 1.736-.336a3.48 3.48 0 0 0 1.264-.928c.336-.395.592-.861.768-1.4a5.61 5.61 0 0 0 .264-1.752zm6.96 5.856c-.63 0-1.205-.115-1.728-.344a4.086 4.086 0 0 1-1.344-.936 4.267 4.267 0 0 1-.872-1.384 4.52 4.52 0 0 1-.312-1.672c0-.587.104-1.141.312-1.664a4.22 4.22 0 0 1 .88-1.376c.379-.395.83-.707 1.352-.936a4.254 4.254 0 0 1 1.728-.344 4.087 4.087 0 0 1 3.04 1.288c.363.39.643.843.84 1.36a4.48 4.48 0 0 1 .296 1.608c0 .117-.003.224-.008.32s-.013.17-.024.224H33.52c.032.416.128.795.288 1.136a2.886 2.886 0 0 0 1.496 1.456 2.6 2.6 0 0 0 1.032.208c.256 0 .507-.035.752-.104.245-.07.475-.163.688-.28a2.37 2.37 0 0 0 .568-.432c.165-.17.29-.363.376-.576l1.216.336a3.07 3.07 0 0 1-.568.848c-.24.256-.517.477-.832.664a4.463 4.463 0 0 1-2.248.6zm2.864-4.896a3.01 3.01 0 0 0-.92-1.952 2.797 2.797 0 0 0-1.928-.752c-.373 0-.725.067-1.056.2-.33.133-.621.32-.872.56-.25.24-.453.525-.608.856-.155.33-.248.693-.28 1.088h5.664zm5.824 4.896a6.479 6.479 0 0 1-1.984-.312 4.89 4.89 0 0 1-1.68-.904l.608-.944c.49.373.981.653 1.472.84.49.187 1.008.28 1.552.28.608 0 1.09-.12 1.448-.36.357-.24.536-.579.536-1.016a.916.916 0 0 0-.144-.52 1.212 1.212 0 0 0-.432-.376 3.53 3.53 0 0 0-.736-.288 27.45 27.45 0 0 0-1.04-.272c-.501-.128-.933-.25-1.296-.368a3.51 3.51 0 0 1-.896-.416 1.457 1.457 0 0 1-.512-.576c-.107-.224-.16-.501-.16-.832 0-.416.083-.787.248-1.112.165-.325.392-.597.68-.816a3.06 3.06 0 0 1 1.016-.496c.39-.112.808-.168 1.256-.168.63 0 1.216.101 1.76.304a4.33 4.33 0 0 1 1.376.8l-.64.848a3.594 3.594 0 0 0-1.184-.696 4.003 4.003 0 0 0-1.344-.232c-.512 0-.947.11-1.304.328-.357.219-.536.568-.536 1.048 0 .192.035.352.104.48a.91.91 0 0 0 .344.336c.16.096.365.181.616.256.25.075.552.155.904.24a17.46 17.46 0 0 1 1.448.392c.41.133.752.29 1.024.472.272.181.475.395.608.64s.2.544.2.896c0 .779-.299 1.397-.896 1.856-.597.459-1.403.688-2.416.688zm4.976-.16v-8.352h1.408V212h-1.408zm0-9.92v-1.76h1.408v1.76h-1.408zm7.008 10.016a3.471 3.471 0 0 1-1.56-.352 3.866 3.866 0 0 1-1.224-.944 4.32 4.32 0 0 1-.792-1.36 4.635 4.635 0 0 1-.28-1.6c0-.587.093-1.144.28-1.672.187-.528.45-.99.792-1.384.341-.395.75-.707 1.224-.936.475-.23 1-.344 1.576-.344.704 0 1.312.17 1.824.512.512.341.944.773 1.296 1.296v-1.664h1.248v8.256c0 .597-.112 1.123-.336 1.576a3.36 3.36 0 0 1-.912 1.144c-.384.31-.835.544-1.352.704-.517.16-1.07.24-1.656.24-.95 0-1.72-.163-2.312-.488a4.27 4.27 0 0 1-1.48-1.352l.816-.72c.33.49.757.859 1.28 1.104a3.941 3.941 0 0 0 1.696.368c.384 0 .75-.053 1.096-.16.347-.107.648-.267.904-.48.256-.213.461-.48.616-.8.155-.32.232-.699.232-1.136v-1.472a3.57 3.57 0 0 1-1.28 1.224 3.492 3.492 0 0 1-1.696.44zm.432-1.152c.299 0 .587-.053.864-.16a3.17 3.17 0 0 0 .768-.424c.235-.176.432-.376.592-.6.16-.224.267-.453.32-.688v-2.4a3.177 3.177 0 0 0-.456-.784 3.452 3.452 0 0 0-.632-.616 2.83 2.83 0 0 0-.76-.408 2.46 2.46 0 0 0-.824-.144c-.427 0-.808.09-1.144.272a2.72 2.72 0 0 0-.856.72 3.383 3.383 0 0 0-.544 1.016c-.128.379-.192.76-.192 1.144 0 .416.075.81.224 1.184.15.373.352.699.608.976s.557.499.904.664c.347.165.723.248 1.128.248zM70.864 212h-1.408v-4.672c0-.896-.136-1.547-.408-1.952-.272-.405-.685-.608-1.24-.608-.288 0-.576.056-.864.168-.288.112-.56.264-.816.456-.256.192-.48.421-.672.688-.192.267-.336.56-.432.88V212h-1.408v-8.352h1.28v1.792a3.673 3.673 0 0 1 1.432-1.408 4.082 4.082 0 0 1 2.04-.528c.48 0 .88.088 1.2.264.32.176.576.421.768.736.192.315.328.685.408 1.112.08.427.12.89.12 1.392V212zm6.464 0v-11.36h4.864c.501 0 .963.104 1.384.312a3.48 3.48 0 0 1 1.088.832c.304.347.541.736.712 1.168.17.432.256.872.256 1.32 0 .395-.056.776-.168 1.144a3.54 3.54 0 0 1-.48 1 3.214 3.214 0 0 1-.752.768 2.933 2.933 0 0 1-.984.464L86 212h-1.632l-2.592-4.08h-3.008V212h-1.44zm1.44-5.36h3.44c.299 0 .568-.064.808-.192a1.92 1.92 0 0 0 .616-.52c.17-.219.304-.472.4-.76.096-.288.144-.587.144-.896 0-.32-.056-.621-.168-.904a2.653 2.653 0 0 0-.448-.752 2.028 2.028 0 0 0-.656-.512 1.78 1.78 0 0 0-.792-.184h-3.344v4.72zm12.544 5.52c-.63 0-1.205-.115-1.728-.344a4.086 4.086 0 0 1-1.344-.936 4.267 4.267 0 0 1-.872-1.384 4.52 4.52 0 0 1-.312-1.672c0-.587.104-1.141.312-1.664a4.22 4.22 0 0 1 .88-1.376c.379-.395.83-.707 1.352-.936a4.254 4.254 0 0 1 1.728-.344 4.087 4.087 0 0 1 3.04 1.288c.363.39.643.843.84 1.36a4.48 4.48 0 0 1 .296 1.608c0 .117-.003.224-.008.32s-.013.17-.024.224h-6.928c.032.416.128.795.288 1.136a2.886 2.886 0 0 0 1.496 1.456 2.6 2.6 0 0 0 1.032.208c.256 0 .507-.035.752-.104.245-.07.475-.163.688-.28a2.37 2.37 0 0 0 .568-.432c.165-.17.29-.363.376-.576l1.216.336a3.07 3.07 0 0 1-.568.848c-.24.256-.517.477-.832.664a4.463 4.463 0 0 1-2.248.6zm2.864-4.896a3.01 3.01 0 0 0-.92-1.952 2.797 2.797 0 0 0-1.928-.752c-.373 0-.725.067-1.056.2-.33.133-.621.32-.872.56-.25.24-.453.525-.608.856-.155.33-.248.693-.28 1.088h5.664zM100 212.16a6.479 6.479 0 0 1-1.984-.312 4.89 4.89 0 0 1-1.68-.904l.608-.944c.49.373.981.653 1.472.84.49.187 1.008.28 1.552.28.608 0 1.09-.12 1.448-.36.357-.24.536-.579.536-1.016a.916.916 0 0 0-.144-.52 1.211 1.211 0 0 0-.432-.376 3.53 3.53 0 0 0-.736-.288 27.45 27.45 0 0 0-1.04-.272c-.501-.128-.933-.25-1.296-.368a3.51 3.51 0 0 1-.896-.416 1.457 1.457 0 0 1-.512-.576c-.107-.224-.16-.501-.16-.832 0-.416.083-.787.248-1.112.165-.325.392-.597.68-.816a3.06 3.06 0 0 1 1.016-.496c.39-.112.808-.168 1.256-.168.63 0 1.216.101 1.76.304a4.33 4.33 0 0 1 1.376.8l-.64.848a3.594 3.594 0 0 0-1.184-.696 4.003 4.003 0 0 0-1.344-.232c-.512 0-.947.11-1.304.328-.357.219-.536.568-.536 1.048 0 .192.035.352.104.48a.91.91 0 0 0 .344.336c.16.096.365.181.616.256.25.075.552.155.904.24a17.46 17.46 0 0 1 1.448.392c.41.133.752.29 1.024.472.272.181.475.395.608.64s.2.544.2.896c0 .779-.299 1.397-.896 1.856-.597.459-1.403.688-2.416.688zm9.472 0c-.693 0-1.304-.17-1.832-.512a3.886 3.886 0 0 1-1.256-1.296v5.056h-1.408v-11.76h1.248v1.568c.33-.512.76-.925 1.288-1.24a3.358 3.358 0 0 1 1.752-.472c.576 0 1.104.117 1.584.352s.896.552 1.248.952c.352.4.627.861.824 1.384.197.523.296 1.067.296 1.632 0 .597-.09 1.16-.272 1.688a4.216 4.216 0 0 1-.768 1.376 3.72 3.72 0 0 1-1.184.928 3.35 3.35 0 0 1-1.52.344zm-.432-1.216c.416 0 .792-.088 1.128-.264a2.76 2.76 0 0 0 .864-.704c.24-.293.424-.627.552-1 .128-.373.192-.757.192-1.152a3.22 3.22 0 0 0-.224-1.192 3.223 3.223 0 0 0-.608-.992 2.88 2.88 0 0 0-.904-.672 2.586 2.586 0 0 0-1.128-.248c-.256 0-.52.05-.792.152a3.507 3.507 0 0 0-.768.4c-.24.165-.448.363-.624.592-.176.23-.29.472-.344.728v2.384c.117.277.267.536.448.776a3.144 3.144 0 0 0 1.376 1.04c.267.101.544.152.832.152zm9.552 1.216c-.63 0-1.203-.117-1.72-.352a4.12 4.12 0 0 1-2.184-2.32 4.518 4.518 0 0 1-.304-1.648 4.458 4.458 0 0 1 1.176-3.04 4.12 4.12 0 0 1 1.328-.944 4.077 4.077 0 0 1 1.704-.352 4.131 4.131 0 0 1 3.048 1.296 4.458 4.458 0 0 1 1.176 3.04c0 .576-.101 1.125-.304 1.648-.203.523-.49.981-.864 1.376-.373.395-.819.71-1.336.944a4.116 4.116 0 0 1-1.72.352zm-2.768-4.304c0 .437.072.843.216 1.216a3.1 3.1 0 0 0 .592.976c.25.277.544.496.88.656.336.16.696.24 1.08.24.384 0 .744-.08 1.08-.24.336-.16.632-.381.888-.664.256-.283.456-.613.6-.992.144-.379.216-.787.216-1.224 0-.427-.072-.83-.216-1.208a3.105 3.105 0 0 0-.6-.992 2.831 2.831 0 0 0-.888-.664 2.48 2.48 0 0 0-1.08-.24c-.384 0-.744.083-1.08.248-.336.165-.63.39-.88.672-.25.283-.448.613-.592.992a3.415 3.415 0 0 0-.216 1.224zM131.776 212h-1.408v-4.672c0-.896-.136-1.547-.408-1.952-.272-.405-.685-.608-1.24-.608-.288 0-.576.056-.864.168-.288.112-.56.264-.816.456-.256.192-.48.421-.672.688-.192.267-.336.56-.432.88V212h-1.408v-8.352h1.28v1.792a3.673 3.673 0 0 1 1.432-1.408 4.082 4.082 0 0 1 2.04-.528c.48 0 .88.088 1.2.264.32.176.576.421.768.736.192.315.328.685.408 1.112.08.427.12.89.12 1.392V212zm5.12.16a6.479 6.479 0 0 1-1.984-.312 4.89 4.89 0 0 1-1.68-.904l.608-.944c.49.373.981.653 1.472.84.49.187 1.008.28 1.552.28.608 0 1.09-.12 1.448-.36.357-.24.536-.579.536-1.016a.916.916 0 0 0-.144-.52 1.211 1.211 0 0 0-.432-.376 3.53 3.53 0 0 0-.736-.288 27.45 27.45 0 0 0-1.04-.272c-.501-.128-.933-.25-1.296-.368a3.51 3.51 0 0 1-.896-.416 1.457 1.457 0 0 1-.512-.576c-.107-.224-.16-.501-.16-.832 0-.416.083-.787.248-1.112.165-.325.392-.597.68-.816a3.06 3.06 0 0 1 1.016-.496c.39-.112.808-.168 1.256-.168.63 0 1.216.101 1.76.304a4.33 4.33 0 0 1 1.376.8l-.64.848a3.594 3.594 0 0 0-1.184-.696 4.003 4.003 0 0 0-1.344-.232c-.512 0-.947.11-1.304.328-.357.219-.536.568-.536 1.048 0 .192.035.352.104.48a.91.91 0 0 0 .344.336c.16.096.365.181.616.256.25.075.552.155.904.24a17.46 17.46 0 0 1 1.448.392c.41.133.752.29 1.024.472.272.181.475.395.608.64s.2.544.2.896c0 .779-.299 1.397-.896 1.856-.597.459-1.403.688-2.416.688zm4.976-.16v-8.352h1.408V212h-1.408zm0-9.92v-1.76h1.408v1.76h-1.408zm7.968 10.08c-.65 0-1.243-.16-1.776-.48a3.632 3.632 0 0 1-1.264-1.248V212h-1.248v-11.68h1.408v4.992a4.347 4.347 0 0 1 1.296-1.312c.512-.33 1.11-.496 1.792-.496.576 0 1.093.123 1.552.368.459.245.85.568 1.176.968.325.4.576.864.752 1.392.176.528.264 1.07.264 1.624 0 .587-.101 1.141-.304 1.664-.203.523-.48.979-.832 1.368-.352.39-.77.699-1.256.928a3.605 3.605 0 0 1-1.56.344zm-.352-1.216a2.6 2.6 0 0 0 1.152-.256 2.9 2.9 0 0 0 .912-.688c.256-.288.453-.616.592-.984.139-.368.208-.755.208-1.16 0-.405-.067-.797-.2-1.176a3.212 3.212 0 0 0-.56-1 2.81 2.81 0 0 0-.864-.696 2.36 2.36 0 0 0-1.112-.264c-.299 0-.581.053-.848.16a3.12 3.12 0 0 0-1.352 1.04 4.484 4.484 0 0 0-.456.752v2.416c.053.267.168.512.344.736.176.224.384.419.624.584.24.165.496.296.768.392.272.096.536.144.792.144zM155.52 212v-8.352h1.408V212h-1.408zm0-9.92v-1.76h1.408v1.76h-1.408zm3.712-1.76h1.408v9.52c0 .31.083.552.248.728.165.176.397.264.696.264.117 0 .256-.019.416-.056a3.4 3.4 0 0 0 .448-.136l.224 1.136a4.587 4.587 0 0 1-.832.24 4.39 4.39 0 0 1-.848.096c-.544 0-.973-.155-1.288-.464-.315-.31-.472-.741-.472-1.296V200.32zm4.544 11.68v-8.352h1.408V212h-1.408zm0-9.92v-1.76h1.408v1.76h-1.408zm8 9.504a6.047 6.047 0 0 1-.808.328 4.13 4.13 0 0 1-.576.144 3.662 3.662 0 0 1-.648.056c-.512 0-.955-.141-1.328-.424-.373-.283-.56-.723-.56-1.32v-5.616h-1.136v-1.104h1.136v-2.784h1.408v2.784h1.872v1.104h-1.872v5.184c.021.31.123.533.304.672s.395.208.64.208c.277 0 .53-.045.76-.136.23-.09.387-.163.472-.216l.336 1.12zm1.312.416v-8.352h1.408V212h-1.408zm0-9.92v-1.76h1.408v1.76h-1.408zm7.376 10.08c-.63 0-1.205-.115-1.728-.344a4.086 4.086 0 0 1-1.344-.936 4.267 4.267 0 0 1-.872-1.384 4.52 4.52 0 0 1-.312-1.672c0-.587.104-1.141.312-1.664a4.22 4.22 0 0 1 .88-1.376c.379-.395.83-.707 1.352-.936a4.254 4.254 0 0 1 1.728-.344 4.087 4.087 0 0 1 3.04 1.288c.363.39.643.843.84 1.36a4.48 4.48 0 0 1 .296 1.608c0 .117-.003.224-.008.32s-.013.17-.024.224h-6.928c.032.416.128.795.288 1.136a2.886 2.886 0 0 0 1.496 1.456 2.6 2.6 0 0 0 1.032.208c.256 0 .507-.035.752-.104.245-.07.475-.163.688-.28a2.37 2.37 0 0 0 .568-.432c.165-.17.29-.363.376-.576l1.216.336a3.07 3.07 0 0 1-.568.848c-.24.256-.517.477-.832.664a4.463 4.463 0 0 1-2.248.6zm2.864-4.896a3.01 3.01 0 0 0-.92-1.952 2.797 2.797 0 0 0-1.928-.752c-.373 0-.725.067-1.056.2-.33.133-.621.32-.872.56-.25.24-.453.525-.608.856-.155.33-.248.693-.28 1.088h5.664zm5.824 4.896a6.479 6.479 0 0 1-1.984-.312 4.89 4.89 0 0 1-1.68-.904l.608-.944c.49.373.981.653 1.472.84.49.187 1.008.28 1.552.28.608 0 1.09-.12 1.448-.36.357-.24.536-.579.536-1.016a.916.916 0 0 0-.144-.52 1.211 1.211 0 0 0-.432-.376 3.53 3.53 0 0 0-.736-.288 27.45 27.45 0 0 0-1.04-.272c-.501-.128-.933-.25-1.296-.368a3.51 3.51 0 0 1-.896-.416 1.457 1.457 0 0 1-.512-.576c-.107-.224-.16-.501-.16-.832 0-.416.083-.787.248-1.112.165-.325.392-.597.68-.816a3.06 3.06 0 0 1 1.016-.496c.39-.112.808-.168 1.256-.168.63 0 1.216.101 1.76.304a4.33 4.33 0 0 1 1.376.8l-.64.848a3.594 3.594 0 0 0-1.184-.696 4.003 4.003 0 0 0-1.344-.232c-.512 0-.947.11-1.304.328-.357.219-.536.568-.536 1.048 0 .192.035.352.104.48a.91.91 0 0 0 .344.336c.16.096.365.181.616.256.25.075.552.155.904.24a17.46 17.46 0 0 1 1.448.392c.41.133.752.29 1.024.472.272.181.475.395.608.64s.2.544.2.896c0 .779-.299 1.397-.896 1.856-.597.459-1.403.688-2.416.688z" fill="#313D3A"/><path fill="#00B968" d="M0 198h16v16H0z"/><path d="M235.36 212v-11.36h3.936c.907 0 1.704.15 2.392.448a4.88 4.88 0 0 1 1.72 1.216 5.062 5.062 0 0 1 1.032 1.8c.23.688.344 1.421.344 2.2 0 .864-.128 1.645-.384 2.344a5.026 5.026 0 0 1-1.104 1.792 4.95 4.95 0 0 1-1.736 1.152c-.677.272-1.432.408-2.264.408h-3.936zm7.968-5.696c0-.64-.088-1.23-.264-1.768-.176-.539-.437-1-.784-1.384a3.66 3.66 0 0 0-1.272-.904c-.501-.219-1.072-.328-1.712-.328H236.8v8.8h2.496c.65 0 1.23-.112 1.736-.336a3.48 3.48 0 0 0 1.264-.928c.336-.395.592-.861.768-1.4a5.61 5.61 0 0 0 .264-1.752zm6.96 5.856c-.63 0-1.205-.115-1.728-.344a4.086 4.086 0 0 1-1.344-.936 4.267 4.267 0 0 1-.872-1.384 4.52 4.52 0 0 1-.312-1.672c0-.587.104-1.141.312-1.664a4.22 4.22 0 0 1 .88-1.376c.379-.395.83-.707 1.352-.936a4.254 4.254 0 0 1 1.728-.344 4.087 4.087 0 0 1 3.04 1.288c.363.39.643.843.84 1.36a4.48 4.48 0 0 1 .296 1.608c0 .117-.003.224-.008.32s-.013.17-.024.224h-6.928c.032.416.128.795.288 1.136a2.886 2.886 0 0 0 1.496 1.456 2.6 2.6 0 0 0 1.032.208c.256 0 .507-.035.752-.104.245-.07.475-.163.688-.28a2.37 2.37 0 0 0 .568-.432c.165-.17.29-.363.376-.576l1.216.336a3.07 3.07 0 0 1-.568.848c-.24.256-.517.477-.832.664a4.463 4.463 0 0 1-2.248.6zm2.864-4.896a3.01 3.01 0 0 0-.92-1.952 2.797 2.797 0 0 0-1.928-.752c-.373 0-.725.067-1.056.2-.33.133-.621.32-.872.56-.25.24-.453.525-.608.856-.155.33-.248.693-.28 1.088h5.664zm5.312 4.736l-3.296-8.352h1.456l2.64 7.12 2.656-7.12h1.344L259.968 212h-1.504zm9.888.16c-.63 0-1.205-.115-1.728-.344a4.086 4.086 0 0 1-1.344-.936 4.267 4.267 0 0 1-.872-1.384 4.52 4.52 0 0 1-.312-1.672c0-.587.104-1.141.312-1.664a4.22 4.22 0 0 1 .88-1.376c.379-.395.83-.707 1.352-.936a4.254 4.254 0 0 1 1.728-.344 4.087 4.087 0 0 1 3.04 1.288c.363.39.643.843.84 1.36a4.48 4.48 0 0 1 .296 1.608c0 .117-.003.224-.008.32s-.013.17-.024.224h-6.928c.032.416.128.795.288 1.136a2.886 2.886 0 0 0 1.496 1.456 2.6 2.6 0 0 0 1.032.208c.256 0 .507-.035.752-.104.245-.07.475-.163.688-.28a2.37 2.37 0 0 0 .568-.432c.165-.17.29-.363.376-.576l1.216.336a3.07 3.07 0 0 1-.568.848c-.24.256-.517.477-.832.664a4.463 4.463 0 0 1-2.248.6zm2.864-4.896a3.01 3.01 0 0 0-.92-1.952 2.797 2.797 0 0 0-1.928-.752c-.373 0-.725.067-1.056.2-.33.133-.621.32-.872.56-.25.24-.453.525-.608.856-.155.33-.248.693-.28 1.088h5.664zm2.928-6.944h1.408v9.52c0 .31.083.552.248.728.165.176.397.264.696.264.117 0 .256-.019.416-.056a3.4 3.4 0 0 0 .448-.136l.224 1.136a4.587 4.587 0 0 1-.832.24 4.39 4.39 0 0 1-.848.096c-.544 0-.973-.155-1.288-.464-.315-.31-.472-.741-.472-1.296V200.32zm8.192 11.84c-.63 0-1.203-.117-1.72-.352a4.12 4.12 0 0 1-2.184-2.32 4.518 4.518 0 0 1-.304-1.648 4.458 4.458 0 0 1 1.176-3.04 4.12 4.12 0 0 1 1.328-.944 4.077 4.077 0 0 1 1.704-.352 4.131 4.131 0 0 1 3.048 1.296 4.458 4.458 0 0 1 1.176 3.04c0 .576-.101 1.125-.304 1.648-.203.523-.49.981-.864 1.376-.373.395-.819.71-1.336.944a4.116 4.116 0 0 1-1.72.352zm-2.768-4.304c0 .437.072.843.216 1.216a3.1 3.1 0 0 0 .592.976c.25.277.544.496.88.656.336.16.696.24 1.08.24.384 0 .744-.08 1.08-.24.336-.16.632-.381.888-.664.256-.283.456-.613.6-.992.144-.379.216-.787.216-1.224 0-.427-.072-.83-.216-1.208a3.105 3.105 0 0 0-.6-.992 2.831 2.831 0 0 0-.888-.664 2.48 2.48 0 0 0-1.08-.24c-.384 0-.744.083-1.08.248-.336.165-.63.39-.88.672-.25.283-.448.613-.592.992a3.415 3.415 0 0 0-.216 1.224zm13.2 4.304c-.693 0-1.304-.17-1.832-.512a3.886 3.886 0 0 1-1.256-1.296v5.056h-1.408v-11.76h1.248v1.568c.33-.512.76-.925 1.288-1.24a3.358 3.358 0 0 1 1.752-.472c.576 0 1.104.117 1.584.352s.896.552 1.248.952c.352.4.627.861.824 1.384.197.523.296 1.067.296 1.632 0 .597-.09 1.16-.272 1.688a4.216 4.216 0 0 1-.768 1.376 3.72 3.72 0 0 1-1.184.928 3.35 3.35 0 0 1-1.52.344zm-.432-1.216c.416 0 .792-.088 1.128-.264a2.76 2.76 0 0 0 .864-.704c.24-.293.424-.627.552-1 .128-.373.192-.757.192-1.152a3.22 3.22 0 0 0-.224-1.192 3.223 3.223 0 0 0-.608-.992 2.88 2.88 0 0 0-.904-.672 2.586 2.586 0 0 0-1.128-.248c-.256 0-.52.05-.792.152a3.507 3.507 0 0 0-.768.4c-.24.165-.448.363-.624.592-.176.23-.29.472-.344.728v2.384c.117.277.267.536.448.776a3.144 3.144 0 0 0 1.376 1.04c.267.101.544.152.832.152zM310.832 212h-1.408v-4.672c0-.875-.141-1.52-.424-1.936-.283-.416-.701-.624-1.256-.624-.576 0-1.09.205-1.544.616-.453.41-.776.941-.968 1.592V212h-1.408v-4.672c0-.896-.139-1.547-.416-1.952-.277-.405-.693-.608-1.248-.608-.565 0-1.077.2-1.536.6-.459.4-.784.93-.976 1.592V212h-1.408v-8.352h1.28v1.792c.341-.619.784-1.096 1.328-1.432a3.43 3.43 0 0 1 1.84-.504c.704 0 1.261.19 1.672.568.41.379.664.867.76 1.464.747-1.355 1.808-2.032 3.184-2.032.48 0 .883.088 1.208.264.325.176.584.421.776.736.192.315.33.685.416 1.112.085.427.128.89.128 1.392V212zm5.888.16c-.63 0-1.205-.115-1.728-.344a4.086 4.086 0 0 1-1.344-.936 4.267 4.267 0 0 1-.872-1.384 4.52 4.52 0 0 1-.312-1.672c0-.587.104-1.141.312-1.664a4.22 4.22 0 0 1 .88-1.376c.379-.395.83-.707 1.352-.936a4.254 4.254 0 0 1 1.728-.344 4.087 4.087 0 0 1 3.04 1.288c.363.39.643.843.84 1.36a4.48 4.48 0 0 1 .296 1.608c0 .117-.003.224-.008.32s-.013.17-.024.224h-6.928c.032.416.128.795.288 1.136a2.886 2.886 0 0 0 1.496 1.456 2.6 2.6 0 0 0 1.032.208c.256 0 .507-.035.752-.104.245-.07.475-.163.688-.28a2.37 2.37 0 0 0 .568-.432c.165-.17.29-.363.376-.576l1.216.336a3.07 3.07 0 0 1-.568.848c-.24.256-.517.477-.832.664a4.463 4.463 0 0 1-2.248.6zm2.864-4.896a3.01 3.01 0 0 0-.92-1.952 2.797 2.797 0 0 0-1.928-.752c-.373 0-.725.067-1.056.2-.33.133-.621.32-.872.56-.25.24-.453.525-.608.856-.155.33-.248.693-.28 1.088h5.664zM329.728 212h-1.408v-4.672c0-.896-.136-1.547-.408-1.952-.272-.405-.685-.608-1.24-.608-.288 0-.576.056-.864.168-.288.112-.56.264-.816.456-.256.192-.48.421-.672.688-.192.267-.336.56-.432.88V212h-1.408v-8.352h1.28v1.792a3.673 3.673 0 0 1 1.432-1.408 4.082 4.082 0 0 1 2.04-.528c.48 0 .88.088 1.2.264.32.176.576.421.768.736.192.315.328.685.408 1.112.08.427.12.89.12 1.392V212zm6.512-.416a6.047 6.047 0 0 1-.808.328 4.13 4.13 0 0 1-.576.144 3.662 3.662 0 0 1-.648.056c-.512 0-.955-.141-1.328-.424-.373-.283-.56-.723-.56-1.32v-5.616h-1.136v-1.104h1.136v-2.784h1.408v2.784h1.872v1.104h-1.872v5.184c.021.31.123.533.304.672s.395.208.64.208c.277 0 .53-.045.76-.136.23-.09.387-.163.472-.216l.336 1.12zm5.584.416v-11.36h4.864c.501 0 .963.104 1.384.312a3.48 3.48 0 0 1 1.088.832c.304.347.541.736.712 1.168.17.432.256.872.256 1.32 0 .395-.056.776-.168 1.144a3.54 3.54 0 0 1-.48 1 3.214 3.214 0 0 1-.752.768 2.933 2.933 0 0 1-.984.464l2.752 4.352h-1.632l-2.592-4.08h-3.008V212h-1.44zm1.44-5.36h3.44c.299 0 .568-.064.808-.192a1.92 1.92 0 0 0 .616-.52c.17-.219.304-.472.4-.76.096-.288.144-.587.144-.896 0-.32-.056-.621-.168-.904a2.653 2.653 0 0 0-.448-.752 2.028 2.028 0 0 0-.656-.512 1.78 1.78 0 0 0-.792-.184h-3.344v4.72zm12.544 5.52c-.63 0-1.205-.115-1.728-.344a4.086 4.086 0 0 1-1.344-.936 4.267 4.267 0 0 1-.872-1.384 4.52 4.52 0 0 1-.312-1.672c0-.587.104-1.141.312-1.664a4.22 4.22 0 0 1 .88-1.376c.379-.395.83-.707 1.352-.936a4.254 4.254 0 0 1 1.728-.344 4.087 4.087 0 0 1 3.04 1.288c.363.39.643.843.84 1.36a4.48 4.48 0 0 1 .296 1.608c0 .117-.003.224-.008.32s-.013.17-.024.224h-6.928c.032.416.128.795.288 1.136a2.886 2.886 0 0 0 1.496 1.456 2.6 2.6 0 0 0 1.032.208c.256 0 .507-.035.752-.104.245-.07.475-.163.688-.28a2.37 2.37 0 0 0 .568-.432c.165-.17.29-.363.376-.576l1.216.336a3.07 3.07 0 0 1-.568.848c-.24.256-.517.477-.832.664a4.463 4.463 0 0 1-2.248.6zm2.864-4.896a3.01 3.01 0 0 0-.92-1.952 2.797 2.797 0 0 0-1.928-.752c-.373 0-.725.067-1.056.2-.33.133-.621.32-.872.56-.25.24-.453.525-.608.856-.155.33-.248.693-.28 1.088h5.664zm5.824 4.896a6.479 6.479 0 0 1-1.984-.312 4.89 4.89 0 0 1-1.68-.904l.608-.944c.49.373.981.653 1.472.84.49.187 1.008.28 1.552.28.608 0 1.09-.12 1.448-.36.357-.24.536-.579.536-1.016a.916.916 0 0 0-.144-.52 1.211 1.211 0 0 0-.432-.376 3.53 3.53 0 0 0-.736-.288 27.45 27.45 0 0 0-1.04-.272c-.501-.128-.933-.25-1.296-.368a3.51 3.51 0 0 1-.896-.416 1.457 1.457 0 0 1-.512-.576c-.107-.224-.16-.501-.16-.832 0-.416.083-.787.248-1.112.165-.325.392-.597.68-.816a3.06 3.06 0 0 1 1.016-.496c.39-.112.808-.168 1.256-.168.63 0 1.216.101 1.76.304a4.33 4.33 0 0 1 1.376.8l-.64.848a3.594 3.594 0 0 0-1.184-.696 4.003 4.003 0 0 0-1.344-.232c-.512 0-.947.11-1.304.328-.357.219-.536.568-.536 1.048 0 .192.035.352.104.48a.91.91 0 0 0 .344.336c.16.096.365.181.616.256.25.075.552.155.904.24a17.46 17.46 0 0 1 1.448.392c.41.133.752.29 1.024.472.272.181.475.395.608.64s.2.544.2.896c0 .779-.299 1.397-.896 1.856-.597.459-1.403.688-2.416.688zm9.472 0c-.693 0-1.304-.17-1.832-.512a3.886 3.886 0 0 1-1.256-1.296v5.056h-1.408v-11.76h1.248v1.568c.33-.512.76-.925 1.288-1.24a3.358 3.358 0 0 1 1.752-.472c.576 0 1.104.117 1.584.352s.896.552 1.248.952c.352.4.627.861.824 1.384.197.523.296 1.067.296 1.632 0 .597-.09 1.16-.272 1.688a4.216 4.216 0 0 1-.768 1.376 3.72 3.72 0 0 1-1.184.928 3.35 3.35 0 0 1-1.52.344zm-.432-1.216c.416 0 .792-.088 1.128-.264a2.76 2.76 0 0 0 .864-.704c.24-.293.424-.627.552-1 .128-.373.192-.757.192-1.152a3.22 3.22 0 0 0-.224-1.192 3.223 3.223 0 0 0-.608-.992 2.88 2.88 0 0 0-.904-.672 2.586 2.586 0 0 0-1.128-.248c-.256 0-.52.05-.792.152a3.507 3.507 0 0 0-.768.4c-.24.165-.448.363-.624.592-.176.23-.29.472-.344.728v2.384c.117.277.267.536.448.776a3.144 3.144 0 0 0 1.376 1.04c.267.101.544.152.832.152zm9.552 1.216c-.63 0-1.203-.117-1.72-.352a4.12 4.12 0 0 1-2.184-2.32 4.518 4.518 0 0 1-.304-1.648 4.458 4.458 0 0 1 1.176-3.04 4.12 4.12 0 0 1 1.328-.944 4.077 4.077 0 0 1 1.704-.352 4.131 4.131 0 0 1 3.048 1.296 4.458 4.458 0 0 1 1.176 3.04c0 .576-.101 1.125-.304 1.648-.203.523-.49.981-.864 1.376-.373.395-.819.71-1.336.944a4.116 4.116 0 0 1-1.72.352zm-2.768-4.304c0 .437.072.843.216 1.216a3.1 3.1 0 0 0 .592.976c.25.277.544.496.88.656.336.16.696.24 1.08.24.384 0 .744-.08 1.08-.24.336-.16.632-.381.888-.664.256-.283.456-.613.6-.992.144-.379.216-.787.216-1.224 0-.427-.072-.83-.216-1.208a3.105 3.105 0 0 0-.6-.992 2.831 2.831 0 0 0-.888-.664 2.48 2.48 0 0 0-1.08-.24c-.384 0-.744.083-1.08.248-.336.165-.63.39-.88.672-.25.283-.448.613-.592.992a3.415 3.415 0 0 0-.216 1.224zM396.272 212h-1.408v-4.672c0-.896-.136-1.547-.408-1.952-.272-.405-.685-.608-1.24-.608-.288 0-.576.056-.864.168-.288.112-.56.264-.816.456-.256.192-.48.421-.672.688-.192.267-.336.56-.432.88V212h-1.408v-8.352h1.28v1.792a3.673 3.673 0 0 1 1.432-1.408 4.082 4.082 0 0 1 2.04-.528c.48 0 .88.088 1.2.264.32.176.576.421.768.736.192.315.328.685.408 1.112.08.427.12.89.12 1.392V212zm5.12.16a6.479 6.479 0 0 1-1.984-.312 4.89 4.89 0 0 1-1.68-.904l.608-.944c.49.373.981.653 1.472.84.49.187 1.008.28 1.552.28.608 0 1.09-.12 1.448-.36.357-.24.536-.579.536-1.016a.916.916 0 0 0-.144-.52 1.211 1.211 0 0 0-.432-.376 3.53 3.53 0 0 0-.736-.288 27.45 27.45 0 0 0-1.04-.272c-.501-.128-.933-.25-1.296-.368a3.51 3.51 0 0 1-.896-.416 1.457 1.457 0 0 1-.512-.576c-.107-.224-.16-.501-.16-.832 0-.416.083-.787.248-1.112.165-.325.392-.597.68-.816a3.06 3.06 0 0 1 1.016-.496c.39-.112.808-.168 1.256-.168.63 0 1.216.101 1.76.304a4.33 4.33 0 0 1 1.376.8l-.64.848a3.594 3.594 0 0 0-1.184-.696 4.003 4.003 0 0 0-1.344-.232c-.512 0-.947.11-1.304.328-.357.219-.536.568-.536 1.048 0 .192.035.352.104.48a.91.91 0 0 0 .344.336c.16.096.365.181.616.256.25.075.552.155.904.24a17.46 17.46 0 0 1 1.448.392c.41.133.752.29 1.024.472.272.181.475.395.608.64s.2.544.2.896c0 .779-.299 1.397-.896 1.856-.597.459-1.403.688-2.416.688zm4.976-.16v-8.352h1.408V212h-1.408zm0-9.92v-1.76h1.408v1.76h-1.408zm7.968 10.08c-.65 0-1.243-.16-1.776-.48a3.632 3.632 0 0 1-1.264-1.248V212h-1.248v-11.68h1.408v4.992a4.347 4.347 0 0 1 1.296-1.312c.512-.33 1.11-.496 1.792-.496.576 0 1.093.123 1.552.368.459.245.85.568 1.176.968.325.4.576.864.752 1.392.176.528.264 1.07.264 1.624 0 .587-.101 1.141-.304 1.664-.203.523-.48.979-.832 1.368-.352.39-.77.699-1.256.928a3.605 3.605 0 0 1-1.56.344zm-.352-1.216a2.6 2.6 0 0 0 1.152-.256 2.9 2.9 0 0 0 .912-.688c.256-.288.453-.616.592-.984.139-.368.208-.755.208-1.16 0-.405-.067-.797-.2-1.176a3.212 3.212 0 0 0-.56-1 2.81 2.81 0 0 0-.864-.696 2.36 2.36 0 0 0-1.112-.264c-.299 0-.581.053-.848.16a3.12 3.12 0 0 0-1.352 1.04 4.484 4.484 0 0 0-.456.752v2.416c.053.267.168.512.344.736.176.224.384.419.624.584.24.165.496.296.768.392.272.096.536.144.792.144zm6.032 1.056v-8.352h1.408V212h-1.408zm0-9.92v-1.76h1.408v1.76h-1.408zm3.712-1.76h1.408v9.52c0 .31.083.552.248.728.165.176.397.264.696.264.117 0 .256-.019.416-.056a3.4 3.4 0 0 0 .448-.136l.224 1.136a4.587 4.587 0 0 1-.832.24 4.39 4.39 0 0 1-.848.096c-.544 0-.973-.155-1.288-.464-.315-.31-.472-.741-.472-1.296V200.32zm4.544 11.68v-8.352h1.408V212h-1.408zm0-9.92v-1.76h1.408v1.76h-1.408zm8 9.504a6.047 6.047 0 0 1-.808.328 4.13 4.13 0 0 1-.576.144 3.662 3.662 0 0 1-.648.056c-.512 0-.955-.141-1.328-.424-.373-.283-.56-.723-.56-1.32v-5.616h-1.136v-1.104h1.136v-2.784h1.408v2.784h1.872v1.104h-1.872v5.184c.021.31.123.533.304.672s.395.208.64.208c.277 0 .53-.045.76-.136.23-.09.387-.163.472-.216l.336 1.12zm1.312.416v-8.352h1.408V212h-1.408zm0-9.92v-1.76h1.408v1.76h-1.408zm7.376 10.08c-.63 0-1.205-.115-1.728-.344a4.086 4.086 0 0 1-1.344-.936 4.267 4.267 0 0 1-.872-1.384 4.52 4.52 0 0 1-.312-1.672c0-.587.104-1.141.312-1.664a4.22 4.22 0 0 1 .88-1.376c.379-.395.83-.707 1.352-.936a4.254 4.254 0 0 1 1.728-.344 4.087 4.087 0 0 1 3.04 1.288c.363.39.643.843.84 1.36a4.48 4.48 0 0 1 .296 1.608c0 .117-.003.224-.008.32s-.013.17-.024.224h-6.928c.032.416.128.795.288 1.136a2.886 2.886 0 0 0 1.496 1.456 2.6 2.6 0 0 0 1.032.208c.256 0 .507-.035.752-.104.245-.07.475-.163.688-.28a2.37 2.37 0 0 0 .568-.432c.165-.17.29-.363.376-.576l1.216.336a3.07 3.07 0 0 1-.568.848c-.24.256-.517.477-.832.664a4.463 4.463 0 0 1-2.248.6zm2.864-4.896a3.01 3.01 0 0 0-.92-1.952 2.797 2.797 0 0 0-1.928-.752c-.373 0-.725.067-1.056.2-.33.133-.621.32-.872.56-.25.24-.453.525-.608.856-.155.33-.248.693-.28 1.088h5.664zm5.824 4.896a6.479 6.479 0 0 1-1.984-.312 4.89 4.89 0 0 1-1.68-.904l.608-.944c.49.373.981.653 1.472.84.49.187 1.008.28 1.552.28.608 0 1.09-.12 1.448-.36.357-.24.536-.579.536-1.016a.916.916 0 0 0-.144-.52 1.211 1.211 0 0 0-.432-.376 3.53 3.53 0 0 0-.736-.288 27.45 27.45 0 0 0-1.04-.272c-.501-.128-.933-.25-1.296-.368a3.51 3.51 0 0 1-.896-.416 1.457 1.457 0 0 1-.512-.576c-.107-.224-.16-.501-.16-.832 0-.416.083-.787.248-1.112.165-.325.392-.597.68-.816a3.06 3.06 0 0 1 1.016-.496c.39-.112.808-.168 1.256-.168.63 0 1.216.101 1.76.304a4.33 4.33 0 0 1 1.376.8l-.64.848a3.594 3.594 0 0 0-1.184-.696 4.003 4.003 0 0 0-1.344-.232c-.512 0-.947.11-1.304.328-.357.219-.536.568-.536 1.048 0 .192.035.352.104.48a.91.91 0 0 0 .344.336c.16.096.365.181.616.256.25.075.552.155.904.24a17.46 17.46 0 0 1 1.448.392c.41.133.752.29 1.024.472.272.181.475.395.608.64s.2.544.2.896c0 .779-.299 1.397-.896 1.856-.597.459-1.403.688-2.416.688z" fill="#313D3A"/><path fill="#F7D200" d="M214 198h16v16h-16zm605-10H324v-75l495-38.672V188zm1 0h80V68l-80 6.25V188zm-497 0h-80v-75h80v75zm-81 0H121v-52.407l121-22.408V188zm-122 0H0v-30l120-22.222V188z"/><path fill="#00B968" d="M323 103h-80V28h-1v75.185L162 118V28h-1v90.185L81 133V28h-1v105.185L0 148V28h900v30l-576 45V28h-1z"/><path d="M5.898 34.237l-.703-.127v-.542H7.92v.542l-.83.127v3.736c0 .898.16 1.543.478 1.936.32.392.77.588 1.353.588.576 0 1.012-.214 1.308-.642.297-.428.445-1.038.445-1.829v-3.789l-.806-.127v-.542h2.339v.542l-.723.127v3.74c0 .694-.115 1.273-.346 1.736-.231.464-.549.808-.952 1.03-.404.224-.87.335-1.397.335-.677 0-1.227-.113-1.65-.34a2.064 2.064 0 0 1-.938-1.047c-.202-.472-.303-1.082-.303-1.83v-3.624zm7.603 6.148v-4.092l-.698-.195v-.586l1.445-.196h.024l.23.19v.396l-.005.225a3.04 3.04 0 0 1 .564-.386c.226-.123.469-.224.728-.303a2.54 2.54 0 0 1 .734-.117c.424 0 .75.08.982.237.231.158.392.401.483.73.091.329.137.775.137 1.338v2.759l.703.083V41h-2.451v-.532l.625-.083V37.62c0-.378-.025-.675-.076-.891-.05-.216-.145-.38-.285-.488-.14-.11-.347-.164-.62-.164-.235 0-.479.05-.733.151a2.91 2.91 0 0 0-.669.367v3.789l.674.083V41h-2.432v-.532l.64-.083zm6.338-3.582a2.67 2.67 0 0 1 1-1.1c.437-.271.948-.406 1.534-.406.287 0 .581.03.884.093v-1.822l-.982-.097v-.474l1.822-.195h.029l.24.176v7.456h.575v.507c-.211.052-.4.094-.564.125-.164.03-.334.046-.51.046a.983.983 0 0 1-.3-.036.282.282 0 0 1-.166-.147.722.722 0 0 1-.056-.32v-.258c-.199.218-.44.4-.725.544a2.064 2.064 0 0 1-.95.217c-.4 0-.765-.101-1.094-.305-.329-.203-.591-.513-.788-.928-.197-.415-.296-.923-.296-1.525 0-.57.116-1.087.347-1.55zm3.418-.632c-.049-.081-.166-.151-.352-.21a1.984 1.984 0 0 0-.6-.088c-.489 0-.88.194-1.172.581-.293.387-.44.995-.44 1.821 0 .472.063.864.188 1.175.126.31.295.54.508.688.213.148.457.222.73.222.238 0 .456-.052.654-.156.199-.104.36-.225.484-.361V36.17zm2.783.517a2.5 2.5 0 0 1 .933-1.027 2.543 2.543 0 0 1 1.352-.364c.625 0 1.109.17 1.45.513.342.341.524.835.547 1.48v.175c0 .342-.02.602-.058.781H26.88c.013.479.094.876.244 1.191.15.316.347.549.59.699.245.15.52.224.826.224.267 0 .541-.046.823-.139.281-.093.502-.2.661-.32l.205.47a2.027 2.027 0 0 1-.51.36 3.42 3.42 0 0 1-1.511.381c-.547 0-1.008-.121-1.384-.363a2.206 2.206 0 0 1-.843-1.016c-.185-.435-.278-.942-.278-1.521 0-.573.112-1.08.337-1.524zm3.11.992c.013-.118.02-.257.02-.42-.003-.414-.09-.746-.259-.996-.17-.251-.436-.376-.8-.376-.365 0-.654.136-.867.407-.214.272-.335.734-.364 1.385h2.27zm2.788 2.715v-4.102l-.693-.195v-.586l1.397-.196h.024l.234.19v.308l-.01.635h.01a2.46 2.46 0 0 1 .34-.432c.167-.18.384-.346.65-.496.264-.15.553-.224.866-.224a.85.85 0 0 1 .322.054v1.2a.927.927 0 0 0-.246-.09 1.42 1.42 0 0 0-.33-.036c-.329 0-.613.04-.852.12-.24.08-.439.18-.598.3v3.545l1.284.088V41h-3.164v-.527l.766-.078zm4.654-.982l.195.742c.04.069.115.134.227.196a1.887 1.887 0 0 0 .867.21c.368 0 .63-.07.786-.208.156-.138.234-.328.234-.569a.683.683 0 0 0-.158-.447 1.592 1.592 0 0 0-.472-.363 8.128 8.128 0 0 0-.85-.386c-.517-.202-.894-.44-1.132-.715-.238-.276-.356-.631-.356-1.067 0-.293.088-.551.266-.774.177-.223.42-.397.73-.52a2.784 2.784 0 0 1 1.045-.186c.3 0 .563.024.79.071.229.047.458.108.69.183l.175.054v1.235h-.625l-.21-.683c-.04-.085-.144-.158-.315-.22a1.677 1.677 0 0 0-.574-.093c-.3 0-.53.064-.693.19a.602.602 0 0 0-.244.499c0 .182.048.335.144.459.096.123.215.224.359.302.143.078.343.171.6.279l.19.083c.372.16.673.309.904.449.231.14.423.319.576.537.153.218.23.485.23.8 0 .326-.086.613-.257.86-.17.247-.418.44-.742.576-.324.137-.707.205-1.15.205-.332 0-.68-.045-1.045-.136a5.42 5.42 0 0 1-.874-.284v-1.279h.689zm4.15-3.267v-.463c.091-.023.196-.056.315-.098s.196-.075.232-.098a.825.825 0 0 0 .264-.38c.049-.111.113-.288.193-.53a7.07 7.07 0 0 0 .163-.55h.635l.01 1.421h1.64v.698H42.56v2.955c0 .397.011.673.034.827.023.155.069.254.139.298.07.044.198.066.383.066h.005c.17 0 .36-.021.574-.063.213-.043.378-.087.495-.132h.005l.166.473a1.805 1.805 0 0 1-.44.247 4.14 4.14 0 0 1-.629.207 2.607 2.607 0 0 1-.62.083h-.01c-.404 0-.708-.088-.913-.266-.205-.177-.308-.474-.308-.89v-3.805h-.698zm7.432 1.226c0-.306-.032-.547-.095-.723a.675.675 0 0 0-.33-.385c-.156-.082-.378-.122-.664-.122-.55 0-1.13.154-1.738.463h-.005l-.244-.507c.088-.078.256-.18.505-.303.25-.124.532-.232.85-.325.317-.093.619-.139.905-.139.476 0 .85.064 1.121.193.272.129.468.334.588.618.12.283.181.665.181 1.147v3.174h.596v.478c-.476.114-.834.171-1.074.171a1.09 1.09 0 0 1-.313-.034.258.258 0 0 1-.159-.139.777.777 0 0 1-.05-.325v-.234a3.172 3.172 0 0 1-.694.495 1.96 1.96 0 0 1-.962.237 2.07 2.07 0 0 1-.852-.17 1.371 1.371 0 0 1-.61-.528c-.152-.238-.228-.534-.228-.889 0-.433.15-.789.452-1.069.301-.28.697-.486 1.187-.618a6.706 6.706 0 0 1 1.633-.212v-.254zm0 .806c-.479 0-.872.054-1.18.163-.307.11-.53.253-.668.432a.972.972 0 0 0-.208.61c0 .343.085.593.254.753.17.16.397.239.684.239.153 0 .337-.043.554-.13.216-.086.404-.19.564-.314v-1.753zm3.056 2.207v-4.092l-.698-.195v-.586l1.446-.196h.024l.23.19v.396l-.005.225c.15-.134.337-.262.564-.386.226-.123.468-.224.727-.303.259-.078.504-.117.735-.117.423 0 .75.08.981.237.231.158.393.401.484.73.09.329.136.775.136 1.338v2.759l.704.083V41h-2.452v-.532l.625-.083V37.62c0-.378-.025-.675-.075-.891-.05-.216-.146-.38-.286-.488-.14-.11-.347-.164-.62-.164-.234 0-.479.05-.732.151a2.91 2.91 0 0 0-.67.367v3.789l.674.083V41h-2.431v-.532l.64-.083zm6.338-3.582a2.67 2.67 0 0 1 1.001-1.1c.437-.271.948-.406 1.534-.406.286 0 .58.03.883.093v-1.822l-.981-.097v-.474l1.821-.195h.03l.239.176v7.456h.576v.507c-.212.052-.4.094-.564.125-.164.03-.335.046-.51.046a.983.983 0 0 1-.3-.036.282.282 0 0 1-.167-.147.722.722 0 0 1-.056-.32v-.258c-.198.218-.44.4-.725.544a2.064 2.064 0 0 1-.95.217c-.4 0-.765-.101-1.093-.305-.33-.203-.592-.513-.789-.928-.197-.415-.295-.923-.295-1.525 0-.57.115-1.087.346-1.55zm3.418-.632c-.049-.081-.166-.151-.351-.21a1.984 1.984 0 0 0-.6-.088c-.49 0-.88.194-1.173.581-.293.387-.44.995-.44 1.821 0 .472.064.864.189 1.175.125.31.294.54.508.688.213.148.456.222.73.222.237 0 .455-.052.654-.156.198-.104.36-.225.483-.361V36.17zM243.654 6.852h.679l.195 1.25c.111.117.29.217.537.3.248.083.516.124.806.124.485 0 .85-.108 1.096-.324.246-.217.369-.517.369-.901 0-.25-.068-.467-.203-.647a1.847 1.847 0 0 0-.549-.476 10.15 10.15 0 0 0-.952-.479 6.794 6.794 0 0 1-.947-.517 2.632 2.632 0 0 1-.723-.723 1.819 1.819 0 0 1-.303-1.05c0-.37.1-.702.298-.993a1.97 1.97 0 0 1 .85-.684c.367-.164.796-.247 1.284-.247.3 0 .576.026.83.076s.517.115.79.193c.144.042.26.072.348.088l-.064 1.675h-.654l-.225-1.187c-.062-.068-.192-.13-.39-.188a2.329 2.329 0 0 0-.645-.085c-.879 0-1.318.354-1.318 1.064 0 .247.066.46.2.635.133.176.31.331.532.466.221.135.549.309.982.52.43.212.78.405 1.054.581.274.176.508.4.703.672.196.271.293.593.293.964 0 .358-.1.702-.3 1.033-.2.33-.501.6-.903.808-.402.208-.89.312-1.463.312-.351 0-.672-.031-.962-.095a9.705 9.705 0 0 1-.903-.246 2.676 2.676 0 0 0-.425-.113l.083-1.806zm7.852 2.224a3.676 3.676 0 0 1-.444-.086l.029.83v.967l1 .108v.527h-2.836v-.527l.727-.113V4.293l-.698-.195v-.586l1.44-.196h.025l.22.19v.557c.195-.214.436-.396.722-.544.287-.148.61-.222.972-.222.397 0 .76.097 1.089.29.329.194.592.495.791.904.199.408.298.92.298 1.535 0 .57-.117 1.09-.35 1.558-.232.469-.564.84-.995 1.116-.432.275-.934.412-1.507.412-.146 0-.307-.012-.483-.036zm-.415-.828c.045.081.157.153.334.215.178.062.377.093.598.093.316 0 .595-.084.838-.252.242-.167.434-.433.574-.796.14-.363.21-.824.21-1.384 0-.472-.063-.863-.188-1.172-.126-.31-.296-.538-.51-.686a1.268 1.268 0 0 0-.738-.222c-.231 0-.446.047-.645.142a1.528 1.528 0 0 0-.473.332v3.73zm5.38.147V4.293l-.693-.195v-.586l1.397-.196h.024l.235.19v.308l-.01.635h.01c.058-.107.171-.251.339-.432.168-.18.384-.346.65-.496.265-.15.554-.224.866-.224a.85.85 0 0 1 .322.054v1.2a.927.927 0 0 0-.246-.09 1.42 1.42 0 0 0-.33-.036c-.329 0-.613.04-.852.12-.24.08-.439.18-.598.3V8.39l1.284.088V9h-3.164v-.527l.767-.078zm4.556-.01V4.293l-.708-.2v-.576l1.553-.2h.024l.25.19v4.878l.78.083V9h-2.69v-.532l.791-.083zm-.007-7.217c.129-.153.308-.23.54-.23h.004a.638.638 0 0 1 .588.347.7.7 0 0 1 .081.332.814.814 0 0 1-.195.562c-.13.146-.319.22-.566.22h-.005a.603.603 0 0 1-.462-.191.673.673 0 0 1-.178-.479c0-.22.064-.408.193-.561zm3.318 7.217V4.293l-.698-.195v-.586l1.445-.196h.024l.23.19v.396l-.005.225a3.04 3.04 0 0 1 .564-.386c.226-.123.469-.224.727-.303.26-.078.504-.117.735-.117.424 0 .75.08.982.237.23.158.392.401.483.73.091.329.137.775.137 1.338v2.759l.703.083V9h-2.451v-.532l.625-.083V5.62c0-.378-.025-.675-.076-.891-.05-.216-.145-.38-.285-.488-.14-.11-.347-.164-.62-.164-.235 0-.48.05-.733.151a2.91 2.91 0 0 0-.669.367v3.789l.674.083V9h-2.432v-.532l.64-.083zm5.903-4.239v-.463c.091-.023.196-.056.315-.098s.196-.075.232-.098a.825.825 0 0 0 .264-.38c.049-.111.113-.288.193-.53a7.07 7.07 0 0 0 .163-.55h.635l.01 1.421h1.64v.698h-1.635v2.955c0 .397.011.673.034.827.023.155.069.254.139.298.07.044.198.066.383.066h.005c.17 0 .36-.021.574-.063.213-.043.378-.087.495-.132h.005l.166.473a1.805 1.805 0 0 1-.44.247 4.14 4.14 0 0 1-.629.207 2.607 2.607 0 0 1-.62.083h-.01c-.403 0-.708-.088-.913-.266-.205-.177-.308-.474-.308-.89V4.145h-.698zm7.725.018c.244-.477.571-.841.981-1.092.41-.25.86-.376 1.348-.376.866 0 1.497.277 1.892.83.396.554.593 1.31.593 2.27 0 .655-.116 1.232-.349 1.732-.233.5-.552.887-.96 1.162a2.378 2.378 0 0 1-1.362.413c-.58 0-1.058-.144-1.435-.43a2.45 2.45 0 0 1-.828-1.165c-.174-.49-.258-1.044-.251-1.662.003-.645.127-1.206.37-1.682zm3.29-.232c-.21-.46-.562-.689-1.054-.689-.498 0-.858.215-1.079.645-.221.43-.332 1.06-.332 1.89 0 .84.112 1.512.337 2.018.225.507.58.76 1.064.76.498 0 .853-.223 1.065-.67.211-.445.317-1.104.317-1.977 0-.86-.106-1.518-.317-1.977zM1.29 9.35V3.238L.517 3.11v-.542H1.82c.163 0 .335-.005.515-.014l.354-.02c.385-.026.68-.039.89-.039 1.246 0 2.173.311 2.78.933.607.621.91 1.495.91 2.622 0 .79-.154 1.49-.463 2.1a3.448 3.448 0 0 1-1.302 1.42c-.558.339-1.2.508-1.926.508-.166 0-.444-.013-.835-.039A15.304 15.304 0 0 0 1.87 10H.464v-.532l.825-.117zm1.569.123c.148.013.315.02.5.02h.225c.482-.01.906-.138 1.272-.384s.653-.609.86-1.089c.206-.48.31-1.067.31-1.76 0-1.052-.225-1.846-.674-2.383-.45-.537-1.127-.806-2.032-.806-.198 0-.444.017-.737.05l-.151.014v6.264c.136.036.279.06.427.074zm5.935-.088V5.293l-.708-.2v-.576l1.553-.2h.024l.25.19v4.878l.78.083V10h-2.69v-.532l.79-.083zm-.007-7.217c.128-.153.308-.23.54-.23h.004a.638.638 0 0 1 .588.347.711.711 0 0 1 .081.332.814.814 0 0 1-.195.562c-.13.146-.32.22-.567.22h-.005a.603.603 0 0 1-.461-.191.673.673 0 0 1-.178-.479c0-.22.064-.408.193-.561zm3.45 6.245l.195.742a.56.56 0 0 0 .227.196 1.887 1.887 0 0 0 .867.21c.367 0 .63-.07.786-.208.156-.138.234-.328.234-.569a.683.683 0 0 0-.159-.447 1.592 1.592 0 0 0-.471-.363 8.128 8.128 0 0 0-.85-.386c-.517-.202-.895-.44-1.132-.715-.238-.276-.357-.631-.357-1.067 0-.293.089-.551.266-.774.178-.223.421-.397.73-.52.31-.124.658-.186 1.045-.186.3 0 .563.024.791.071.228.047.458.108.689.183l.175.054v1.235h-.625l-.21-.683c-.039-.085-.144-.158-.314-.22a1.677 1.677 0 0 0-.574-.093c-.3 0-.53.064-.694.19a.602.602 0 0 0-.244.499c0 .182.048.335.144.459.096.123.216.224.36.302.142.078.343.171.6.279l.19.083c.371.16.672.309.904.449.23.14.423.319.576.537.153.218.23.485.23.8 0 .326-.086.613-.257.86s-.418.44-.742.576c-.324.137-.707.205-1.15.205-.332 0-.68-.045-1.045-.136a5.42 5.42 0 0 1-.874-.284V8.413h.688zM20.751 4.6l-.049 1.504h-.679L19.8 5.19a.45.45 0 0 0-.271-.239 1.351 1.351 0 0 0-.486-.078c-.286 0-.536.079-.747.237-.212.158-.376.394-.493.708-.117.314-.176.702-.176 1.164 0 .538.07.983.21 1.338.14.355.33.617.571.786.241.17.513.254.816.254a2.42 2.42 0 0 0 1.396-.43l.21.45c-.117.12-.273.237-.469.349a3.04 3.04 0 0 1-.656.276 2.566 2.566 0 0 1-.73.107c-.55 0-1.016-.122-1.397-.366a2.263 2.263 0 0 1-.857-1.003 3.504 3.504 0 0 1-.285-1.448 3.5 3.5 0 0 1 .322-1.516 2.54 2.54 0 0 1 .957-1.082c.423-.267.934-.4 1.533-.4.469 0 .97.1 1.504.303zm4.868.073c.378.25.658.595.84 1.033.182.437.273.938.273 1.501 0 .602-.124 1.123-.373 1.563a2.57 2.57 0 0 1-.982 1 2.604 2.604 0 0 1-1.296.342c-.566 0-1.038-.125-1.414-.376a2.246 2.246 0 0 1-.837-1.032c-.182-.438-.273-.939-.273-1.502 0-.596.124-1.113.373-1.553.25-.439.576-.774.982-1.005a2.567 2.567 0 0 1 1.291-.347c.567 0 1.039.125 1.416.376zm-.447.876c-.216-.431-.559-.647-1.027-.647-.45 0-.788.185-1.016.555-.228.369-.342.922-.342 1.657 0 .733.11 1.315.33 1.746.22.431.562.647 1.028.647.901 0 1.352-.737 1.352-2.212 0-.733-.108-1.314-.325-1.746zm1.931-.583v-.518h2.442v.518l-.733.127.958 2.759.43 1.313.36-1.265.923-2.807-.673-.127v-.518h2.065v.518l-.508.132-1.885 4.98h-.918l-2.002-4.985-.459-.127zm6.475.722a2.5 2.5 0 0 1 .933-1.027 2.543 2.543 0 0 1 1.352-.364c.625 0 1.109.17 1.45.513.342.341.525.835.547 1.48v.175c0 .342-.02.602-.058.781h-3.384c.013.479.094.876.244 1.191.15.316.347.549.59.699.245.15.52.224.826.224.267 0 .541-.046.823-.139.281-.093.502-.2.661-.32l.206.47a2.027 2.027 0 0 1-.51.36 3.42 3.42 0 0 1-1.512.381c-.547 0-1.008-.121-1.384-.363a2.206 2.206 0 0 1-.842-1.016c-.186-.435-.279-.942-.279-1.521 0-.573.112-1.08.337-1.524zm3.11.992c.013-.118.02-.257.02-.42-.003-.414-.09-.746-.259-.996-.17-.251-.436-.376-.8-.376-.365 0-.654.136-.867.407-.214.272-.335.734-.364 1.385h2.27zm2.789 2.715V5.293l-.694-.195v-.586l1.397-.196h.024l.234.19v.308l-.01.635h.01a2.46 2.46 0 0 1 .34-.432c.167-.18.384-.346.65-.496.265-.15.553-.224.866-.224a.85.85 0 0 1 .322.054v1.2a.927.927 0 0 0-.246-.09 1.42 1.42 0 0 0-.33-.036c-.329 0-.613.04-.852.12-.24.08-.439.18-.598.3V9.39l1.284.088V10H38.71v-.527l.767-.078zm4.096 2.1c.04.022.119.042.24.06.12.018.234.027.341.027.196 0 .375-.04.54-.12.164-.08.331-.235.5-.466.17-.231.334-.563.493-.996h-.551L43.31 5.093l-.464-.127v-.518h2.485v.518l-.767.127.943 2.949.434 1.416.391-1.42.884-2.95-.654-.122v-.518h2.05v.518l-.498.122a254.23 254.23 0 0 1-1.145 3.494c-.294.87-.482 1.398-.564 1.584-.221.56-.43 1.003-.627 1.328a2.264 2.264 0 0 1-.684.742c-.259.17-.575.254-.95.254-.1 0-.21-.007-.327-.022a1.022 1.022 0 0 1-.244-.051v-.923zm281.081-3.643h.679l.195 1.25c.111.117.29.217.537.3.248.083.516.124.806.124.485 0 .85-.108 1.096-.324.246-.217.369-.517.369-.901 0-.25-.068-.467-.203-.647a1.847 1.847 0 0 0-.549-.476 10.15 10.15 0 0 0-.952-.479 6.794 6.794 0 0 1-.947-.517 2.632 2.632 0 0 1-.723-.723 1.819 1.819 0 0 1-.303-1.05c0-.37.1-.702.298-.993a1.97 1.97 0 0 1 .85-.684c.367-.164.796-.247 1.284-.247.3 0 .576.026.83.076s.517.115.79.193c.144.042.26.072.348.088l-.064 1.675h-.654l-.225-1.187c-.062-.068-.192-.13-.39-.188a2.329 2.329 0 0 0-.645-.085c-.879 0-1.318.354-1.318 1.064 0 .247.066.46.2.635.133.176.31.331.532.466.221.135.549.309.982.52.43.212.78.405 1.054.581.274.176.508.4.703.672.196.271.293.593.293.964 0 .358-.1.702-.3 1.033-.2.33-.501.6-.903.808-.402.208-.89.312-1.463.312-.351 0-.672-.031-.962-.095a9.705 9.705 0 0 1-.903-.246 2.676 2.676 0 0 0-.425-.113l.083-1.806zm7.852 2.224a3.676 3.676 0 0 1-.444-.086l.029.83v.967l1 .108v.527h-2.836v-.527l.727-.113V5.293l-.698-.195v-.586l1.44-.196h.025l.22.19v.557c.195-.214.436-.396.722-.544.287-.148.61-.222.972-.222.397 0 .76.097 1.089.29.329.194.592.495.791.904.199.408.298.92.298 1.535 0 .57-.117 1.09-.35 1.558-.232.469-.564.84-.995 1.116-.432.275-.934.412-1.507.412-.146 0-.307-.012-.483-.036zm-.415-.828c.045.081.157.153.334.215.178.062.377.093.598.093.316 0 .595-.084.838-.252.242-.167.434-.433.574-.796.14-.363.21-.824.21-1.384 0-.472-.063-.863-.188-1.172-.126-.31-.296-.538-.51-.686a1.268 1.268 0 0 0-.738-.222c-.231 0-.446.047-.645.142a1.528 1.528 0 0 0-.473.332v3.73zm5.38.147V5.293l-.693-.195v-.586l1.397-.196h.024l.235.19v.308l-.01.635h.01c.058-.107.171-.251.339-.432.168-.18.384-.346.65-.496.265-.15.554-.224.866-.224a.85.85 0 0 1 .322.054v1.2a.927.927 0 0 0-.246-.09 1.42 1.42 0 0 0-.33-.036c-.329 0-.613.04-.852.12-.24.08-.439.18-.598.3V9.39l1.284.088V10h-3.164v-.527l.767-.078zm4.556-.01V5.293l-.708-.2v-.576l1.553-.2h.024l.25.19v4.878l.78.083V10h-2.69v-.532l.791-.083zm-.007-7.217c.129-.153.308-.23.54-.23h.004a.638.638 0 0 1 .588.347.7.7 0 0 1 .081.332.814.814 0 0 1-.195.562c-.13.146-.319.22-.566.22h-.005a.603.603 0 0 1-.462-.191.673.673 0 0 1-.178-.479c0-.22.064-.408.193-.561zm3.318 7.217V5.293l-.698-.195v-.586l1.445-.196h.024l.23.19v.396l-.005.225a3.04 3.04 0 0 1 .564-.386c.226-.123.469-.224.727-.303.26-.078.504-.117.735-.117.424 0 .75.08.982.237.23.158.392.401.483.73.091.329.137.775.137 1.338v2.759l.703.083V10h-2.451v-.532l.625-.083V6.62c0-.378-.025-.675-.076-.891-.05-.216-.145-.38-.285-.488-.14-.11-.347-.164-.62-.164-.235 0-.48.05-.733.151a2.91 2.91 0 0 0-.669.367v3.789l.674.083V10h-2.432v-.532l.64-.083zm5.903-4.239v-.463c.091-.023.196-.056.315-.098s.196-.075.232-.098a.825.825 0 0 0 .264-.38c.049-.111.113-.288.193-.53a7.07 7.07 0 0 0 .163-.55h.635l.01 1.421h1.64v.698h-1.635v2.955c0 .397.011.673.034.827.023.155.069.254.139.298.07.044.198.066.383.066h.005c.17 0 .36-.021.574-.063.213-.043.378-.087.495-.132h.005l.166.473a1.805 1.805 0 0 1-.44.247 4.14 4.14 0 0 1-.629.207 2.607 2.607 0 0 1-.62.083h-.01c-.403 0-.708-.088-.913-.266-.205-.177-.308-.474-.308-.89V5.145h-.698zm5.015 3.267l.195.742c.04.069.115.134.227.196a1.887 1.887 0 0 0 .867.21c.368 0 .63-.07.786-.208.156-.138.234-.328.234-.569a.683.683 0 0 0-.158-.447 1.592 1.592 0 0 0-.471-.363 8.128 8.128 0 0 0-.85-.386c-.518-.202-.895-.44-1.133-.715-.238-.276-.356-.631-.356-1.067 0-.293.088-.551.266-.774.177-.223.42-.397.73-.52a2.784 2.784 0 0 1 1.045-.186c.3 0 .563.024.79.071.229.047.458.108.69.183l.175.054v1.235h-.625l-.21-.683c-.04-.085-.144-.158-.315-.22a1.677 1.677 0 0 0-.574-.093c-.3 0-.53.064-.693.19a.602.602 0 0 0-.244.499c0 .182.048.335.144.459.096.123.216.224.359.302.143.078.343.171.6.279l.19.083c.372.16.673.309.904.449.231.14.423.319.576.537.153.218.23.485.23.8 0 .326-.086.613-.257.86-.17.247-.418.44-.742.576-.324.137-.707.205-1.15.205-.332 0-.68-.045-1.045-.136a5.42 5.42 0 0 1-.874-.284V8.413h.689zm8.647.933V4.932a4.68 4.68 0 0 1-.627.173 5.119 5.119 0 0 1-.681.115l-.122-.6a4.508 4.508 0 0 0 1.03-.365c.342-.167.638-.355.889-.564h.004l.64.103v5.552l1.133.122V10h-3.506v-.532l1.24-.122zm9.239-2.75v.801h-5.601v-.8h5.6zm1.86 2.794l1.694-2.163-1.65-2.134-.576-.127v-.518h2.588v.518l-.674.127.86 1.2.287.44.25-.434.898-1.206-.718-.127v-.518h2.153v.518l-.61.127-1.607 2.011 1.729 2.29.571.088V10h-2.602v-.518l.64-.092-1.187-1.739-.25.435-.902 1.299.805.097V10h-2.368v-.518l.669-.092zM86.762 35.312a3.275 3.275 0 0 1 1.208-1.35 3.221 3.221 0 0 1 1.731-.477c.697 0 1.284.153 1.763.457.478.304.837.735 1.077 1.291.239.557.358 1.215.358 1.973 0 .778-.147 1.462-.441 2.053a3.303 3.303 0 0 1-1.221 1.37 3.26 3.26 0 0 1-1.756.483c-.677 0-1.252-.157-1.726-.47-.473-.315-.83-.756-1.071-1.324-.241-.568-.362-1.228-.362-1.98 0-.768.147-1.444.44-2.026zm1.07 3.72c.159.482.39.853.692 1.114.303.26.666.39 1.09.39.413 0 .77-.124 1.071-.371.301-.247.535-.62.7-1.116.167-.496.25-1.109.25-1.838 0-.651-.08-1.213-.237-1.687-.158-.474-.388-.837-.691-1.089a1.646 1.646 0 0 0-1.089-.378c-.417 0-.776.12-1.079.359-.303.239-.536.603-.7 1.09-.165.49-.247 1.098-.247 1.827 0 .651.08 1.217.24 1.7zm5.37-5.561v-.46l1.646-.21h.024l.244.167v2.983a2.43 2.43 0 0 1 .689-.469c.267-.123.563-.185.888-.185.397 0 .76.096 1.09.288.328.192.592.492.79.9.199.41.298.923.298 1.541a3.46 3.46 0 0 1-.351 1.565 2.7 2.7 0 0 1-1.009 1.114c-.438.271-.948.407-1.53.407-.316 0-.617-.022-.901-.066a4.733 4.733 0 0 1-.716-.158c-.192-.062-.31-.116-.356-.161v-7.159l-.806-.097zm1.914 6.762c.043.098.152.175.327.232.176.057.38.086.61.086.32 0 .6-.09.843-.269.243-.179.432-.448.569-.808.137-.36.205-.803.205-1.33 0-.47-.061-.86-.183-1.172-.122-.313-.29-.544-.506-.694a1.258 1.258 0 0 0-.737-.224c-.234 0-.45.053-.65.158a1.735 1.735 0 0 0-.478.36v3.661zm5.44-.82l.195.742a.567.567 0 0 0 .227.196 1.887 1.887 0 0 0 .867.21c.368 0 .63-.07.786-.208.156-.138.234-.328.234-.569a.683.683 0 0 0-.158-.447 1.592 1.592 0 0 0-.472-.363 8.128 8.128 0 0 0-.85-.386c-.517-.202-.894-.44-1.132-.715-.238-.276-.357-.631-.357-1.067 0-.293.09-.551.267-.774.177-.223.42-.397.73-.52a2.782 2.782 0 0 1 1.044-.186c.3 0 .564.024.792.071.227.047.457.108.688.183l.176.054v1.235h-.625l-.21-.683c-.04-.085-.144-.158-.315-.22a1.677 1.677 0 0 0-.574-.093c-.3 0-.53.064-.693.19a.602.602 0 0 0-.244.499c0 .182.048.335.144.459.096.123.215.224.359.302.143.078.343.171.6.279l.19.083c.372.16.673.309.904.449.231.14.423.319.576.537.153.218.23.485.23.8 0 .326-.086.613-.257.86-.17.247-.418.44-.742.576-.324.137-.707.205-1.15.205-.332 0-.68-.045-1.045-.136a5.42 5.42 0 0 1-.874-.284v-1.279h.689zm4.575-2.725a2.49 2.49 0 0 1 .932-1.027 2.543 2.543 0 0 1 1.353-.364c.625 0 1.108.17 1.45.513.342.341.524.835.547 1.48v.175c0 .342-.02.602-.059.781h-3.383c.013.479.094.876.244 1.191.15.316.347.549.59.699.245.15.52.224.826.224.267 0 .541-.046.823-.139.281-.093.502-.2.661-.32l.205.47a2.027 2.027 0 0 1-.51.36 3.42 3.42 0 0 1-1.511.381c-.547 0-1.008-.121-1.384-.363a2.206 2.206 0 0 1-.843-1.016c-.185-.435-.278-.942-.278-1.521 0-.573.112-1.08.337-1.524zm3.11.992c.013-.118.02-.257.02-.42-.004-.414-.09-.746-.259-.996-.17-.251-.436-.376-.8-.376-.365 0-.654.136-.868.407-.213.272-.334.734-.363 1.385h2.27zm2.788 2.715v-4.102l-.693-.195v-.586l1.396-.196h.025l.234.19v.308l-.01.635h.01a2.46 2.46 0 0 1 .34-.432c.167-.18.384-.346.649-.496a1.73 1.73 0 0 1 .867-.224.85.85 0 0 1 .322.054v1.2a.927.927 0 0 0-.247-.09 1.42 1.42 0 0 0-.33-.036c-.328 0-.612.04-.851.12-.24.08-.439.18-.598.3v3.545l1.284.088V41h-3.164v-.527l.766-.078zm3.37-4.43v-.517h2.44v.518l-.732.127.957 2.759.43 1.313.361-1.265.923-2.807-.674-.127v-.518h2.066v.518l-.508.132-1.885 4.98h-.918l-2.002-4.985-.459-.127zm6.474.723a2.5 2.5 0 0 1 .933-1.027 2.543 2.543 0 0 1 1.352-.364c.625 0 1.109.17 1.45.513.342.341.524.835.547 1.48v.175c0 .342-.02.602-.058.781h-3.384c.013.479.094.876.244 1.191.15.316.347.549.59.699.245.15.52.224.826.224.267 0 .541-.046.823-.139.281-.093.502-.2.661-.32l.206.47a2.027 2.027 0 0 1-.51.36 3.42 3.42 0 0 1-1.512.381c-.547 0-1.008-.121-1.384-.363a2.206 2.206 0 0 1-.843-1.016c-.185-.435-.278-.942-.278-1.521 0-.573.112-1.08.337-1.524zm3.11.992c.013-.118.02-.257.02-.42-.003-.414-.09-.746-.259-.996-.17-.251-.436-.376-.8-.376-.365 0-.654.136-.867.407-.214.272-.335.734-.364 1.385h2.27zm44.457 2.67v-6.113l-.893-.127v-.542h2.94v.542l-.894.122v6.119l.908.131V41h-2.954v-.532l.893-.117zm3.36-3.547a2.67 2.67 0 0 1 1-1.1c.437-.271.948-.406 1.534-.406.286 0 .581.03.884.093v-1.822l-.982-.097v-.474l1.822-.195h.029l.24.176v7.456h.575v.507c-.211.052-.4.094-.564.125-.164.03-.334.046-.51.046a.983.983 0 0 1-.3-.036.282.282 0 0 1-.166-.147.722.722 0 0 1-.056-.32v-.258c-.199.218-.44.4-.725.544a2.064 2.064 0 0 1-.95.217c-.4 0-.765-.101-1.094-.305-.329-.203-.592-.513-.788-.928-.197-.415-.296-.923-.296-1.525 0-.57.116-1.087.347-1.55zm3.418-.632c-.05-.081-.166-.151-.352-.21a1.984 1.984 0 0 0-.6-.088c-.489 0-.88.194-1.172.581-.293.387-.44.995-.44 1.821 0 .472.063.864.188 1.175.126.31.295.54.508.688.213.148.457.222.73.222.238 0 .456-.052.654-.156.199-.104.36-.225.484-.361V36.17zm2.783.517c.225-.442.535-.785.933-1.027a2.543 2.543 0 0 1 1.352-.364c.625 0 1.109.17 1.45.513.342.341.524.835.547 1.48v.175c0 .342-.02.602-.058.781h-3.384c.013.479.094.876.244 1.191.15.316.347.549.59.699.245.15.52.224.826.224.267 0 .541-.046.823-.139.281-.093.502-.2.661-.32l.205.47a2.027 2.027 0 0 1-.51.36 3.42 3.42 0 0 1-1.511.381c-.547 0-1.008-.121-1.384-.363a2.206 2.206 0 0 1-.843-1.016c-.185-.435-.278-.942-.278-1.521 0-.573.112-1.08.337-1.524zm3.11.992c.013-.118.02-.257.02-.42-.003-.414-.09-.746-.259-.996-.17-.251-.436-.376-.8-.376-.365 0-.654.136-.867.407-.214.272-.335.734-.364 1.385h2.27zm5.254-.308c0-.306-.032-.547-.095-.723a.675.675 0 0 0-.33-.385c-.156-.082-.377-.122-.664-.122-.55 0-1.13.154-1.738.463h-.005l-.244-.507c.088-.078.256-.18.505-.303a5.22 5.22 0 0 1 .85-.325c.317-.093.62-.139.906-.139.475 0 .849.064 1.12.193.272.129.468.334.589.618.12.283.18.665.18 1.147v3.174h.596v.478c-.475.114-.833.171-1.074.171a1.09 1.09 0 0 1-.313-.034.258.258 0 0 1-.158-.139.777.777 0 0 1-.052-.325v-.234a3.172 3.172 0 0 1-.693.495 1.96 1.96 0 0 1-.962.237 2.07 2.07 0 0 1-.852-.17 1.371 1.371 0 0 1-.61-.528c-.152-.238-.227-.534-.227-.889 0-.433.15-.789.451-1.069.302-.28.697-.486 1.187-.618a6.706 6.706 0 0 1 1.633-.212v-.254zm0 .806c-.478 0-.871.054-1.179.163-.308.11-.53.253-.669.432a.972.972 0 0 0-.207.61c0 .343.084.593.253.753.17.16.398.239.684.239.153 0 .338-.043.554-.13a2.27 2.27 0 0 0 .564-.314v-1.753zm2.246-2.032v-.463c.091-.023.196-.056.315-.098.12-.042.196-.075.232-.098a.825.825 0 0 0 .264-.38c.049-.111.113-.288.193-.53a7.07 7.07 0 0 0 .163-.55h.635l.01 1.421h1.64v.698h-1.635v2.955c0 .397.011.673.034.827.023.155.07.254.14.298.07.044.197.066.382.066h.005c.17 0 .36-.021.574-.063.213-.043.378-.087.496-.132h.004l.166.473a1.805 1.805 0 0 1-.439.247 4.14 4.14 0 0 1-.63.207 2.607 2.607 0 0 1-.62.083h-.01c-.403 0-.708-.088-.913-.266-.205-.177-.307-.474-.307-.89v-3.805h-.699zm4.497.542a2.5 2.5 0 0 1 .933-1.027 2.543 2.543 0 0 1 1.353-.364c.625 0 1.108.17 1.45.513.342.341.524.835.547 1.48v.175c0 .342-.02.602-.059.781h-3.384c.013.479.095.876.244 1.191.15.316.347.549.591.699.244.15.52.224.825.224.267 0 .542-.046.823-.139.282-.093.502-.2.662-.32l.205.47a2.027 2.027 0 0 1-.51.36 3.42 3.42 0 0 1-1.512.381c-.547 0-1.008-.121-1.384-.363a2.206 2.206 0 0 1-.842-1.016c-.186-.435-.279-.942-.279-1.521 0-.573.113-1.08.337-1.524zm3.11.992c.014-.118.02-.257.02-.42-.003-.414-.09-.746-.259-.996-.169-.251-.436-.376-.8-.376-.365 0-.654.136-.867.407-.213.272-.334.734-.364 1.385h2.27zm53.081 2.675v-6.118l-.767-.127v-.542h1.206c.176 0 .414-.01.713-.029a13.7 13.7 0 0 1 1.01-.039c.691 0 1.24.082 1.646.247.407.164.697.402.87.715.172.312.258.705.258 1.177 0 .537-.123 1.002-.37 1.396a2.39 2.39 0 0 1-1.029.901c-.437.207-.938.31-1.501.31-.176 0-.356-.005-.542-.015a3.116 3.116 0 0 1-.347-.029v2.153l1.319.113V41h-3.286v-.532l.82-.113zm3.24-3.151c.31-.311.466-.83.466-1.556 0-.563-.137-.968-.41-1.215-.274-.248-.7-.371-1.28-.371-.198 0-.398.013-.6.039a1.873 1.873 0 0 1-.274.024v3.501c.157.03.455.044.894.044.492 0 .893-.156 1.204-.466zm3.093 3.18v-6.81l-.8-.098v-.464l1.664-.21h.01l.24.166v7.417l.83.083V41h-2.735v-.532l.79-.083zm5.898-3.012c0-.306-.031-.547-.095-.723a.675.675 0 0 0-.33-.385c-.156-.082-.377-.122-.664-.122-.55 0-1.13.154-1.738.463h-.005l-.244-.507c.088-.078.256-.18.505-.303a5.22 5.22 0 0 1 .85-.325c.317-.093.62-.139.906-.139.475 0 .849.064 1.12.193.272.129.468.334.589.618.12.283.18.665.18 1.147v3.174h.596v.478c-.475.114-.833.171-1.074.171a1.09 1.09 0 0 1-.313-.034.258.258 0 0 1-.158-.139.777.777 0 0 1-.051-.325v-.234a3.172 3.172 0 0 1-.694.495 1.96 1.96 0 0 1-.962.237 2.07 2.07 0 0 1-.852-.17 1.371 1.371 0 0 1-.61-.528c-.152-.238-.227-.534-.227-.889 0-.433.15-.789.451-1.069.302-.28.697-.486 1.187-.618a6.706 6.706 0 0 1 1.633-.212v-.254zm0 .806c-.478 0-.871.054-1.179.163-.308.11-.53.253-.669.432a.972.972 0 0 0-.207.61c0 .343.084.593.254.753.169.16.397.239.683.239.153 0 .338-.043.554-.13a2.27 2.27 0 0 0 .564-.314v-1.753zm3.057 2.207v-4.092l-.698-.195v-.586l1.445-.196h.024l.23.19v.396l-.005.225a3.04 3.04 0 0 1 .564-.386c.226-.123.469-.224.728-.303a2.54 2.54 0 0 1 .734-.117c.424 0 .75.08.982.237.23.158.392.401.483.73.091.329.137.775.137 1.338v2.759l.703.083V41h-2.451v-.532l.625-.083V37.62c0-.378-.025-.675-.076-.891-.05-.216-.145-.38-.285-.488-.14-.11-.347-.164-.62-.164-.235 0-.48.05-.733.151a2.91 2.91 0 0 0-.669.367v3.789l.674.083V41h-2.432v-.532l.64-.083zM6.29 182.35v-6.118l-.807-.122v-.542h5.088l.137 1.548h-.63l-.303-.928-2.338-.063v2.759l1.586-.03.147-.81h.63v2.314h-.63l-.142-.859-1.591-.024v2.92l2.685-.108.552-1.225.625.185L11.01 183H5.469v-.532l.82-.117zm6.386.035v-4.092l-.698-.195v-.586l1.445-.196h.024l.23.19v.396l-.005.225a3.04 3.04 0 0 1 .564-.386c.226-.123.469-.224.727-.303.26-.078.504-.117.735-.117.423 0 .75.08.982.237.23.158.392.401.483.73.091.329.137.775.137 1.338v2.759l.703.083V183h-2.451v-.532l.625-.083v-2.764c0-.378-.025-.675-.076-.891-.05-.216-.146-.38-.286-.488-.14-.11-.346-.164-.62-.164-.234 0-.478.05-.732.151a2.91 2.91 0 0 0-.67.367v3.789l.675.083V183h-2.432v-.532l.64-.083zm5.561-4.42v-.517h2.442v.518l-.733.127.957 2.759.43 1.313.361-1.265.923-2.807-.674-.127v-.518h2.066v.518l-.508.132-1.885 4.98h-.918l-2.002-4.985-.459-.127zm6.895 4.42v-4.092l-.708-.2v-.576l1.553-.2H26l.249.19v4.878l.781.083V183h-2.69v-.532l.79-.083zm-.007-7.217c.128-.153.308-.23.54-.23h.004a.638.638 0 0 1 .588.347.71.71 0 0 1 .08.332.814.814 0 0 1-.194.562c-.13.146-.32.22-.567.22h-.005a.603.603 0 0 1-.461-.191.673.673 0 0 1-.178-.479c0-.22.064-.408.193-.561zm3.45 6.245l.195.742a.56.56 0 0 0 .227.196 1.887 1.887 0 0 0 .867.21c.367 0 .63-.07.785-.208.157-.138.235-.328.235-.569a.683.683 0 0 0-.159-.447 1.592 1.592 0 0 0-.471-.363 8.128 8.128 0 0 0-.85-.386c-.517-.202-.895-.44-1.133-.715-.237-.276-.356-.631-.356-1.067 0-.293.089-.551.266-.774.178-.223.42-.397.73-.52.31-.124.658-.186 1.045-.186.3 0 .563.024.791.071.228.047.457.108.689.183l.175.054v1.235h-.625l-.21-.683c-.039-.085-.144-.158-.315-.22a1.677 1.677 0 0 0-.573-.093c-.3 0-.53.064-.694.19a.602.602 0 0 0-.244.499c0 .182.048.335.144.459.096.123.216.224.36.302.142.078.343.171.6.279l.19.083c.371.16.672.309.903.449.232.14.424.319.577.537.153.218.23.485.23.8 0 .326-.086.613-.257.86s-.419.44-.742.576c-.324.137-.708.205-1.15.205-.332 0-.68-.045-1.045-.136a5.42 5.42 0 0 1-.874-.284v-1.279h.688zm4.994.972v-4.092l-.708-.2v-.576l1.553-.2h.024l.25.19v4.878l.78.083V183h-2.69v-.532l.791-.083zm-.007-7.217c.129-.153.308-.23.54-.23h.004a.638.638 0 0 1 .588.347.7.7 0 0 1 .081.332.814.814 0 0 1-.195.562c-.13.146-.319.22-.566.22h-.005a.603.603 0 0 1-.462-.191.673.673 0 0 1-.178-.479c0-.22.064-.408.193-.561zm6.628 2.505c.378.25.658.595.84 1.033.183.437.274.938.274 1.501 0 .602-.125 1.123-.374 1.563a2.57 2.57 0 0 1-.981 1 2.604 2.604 0 0 1-1.297.342c-.566 0-1.037-.125-1.413-.376a2.246 2.246 0 0 1-.838-1.032c-.182-.438-.273-.939-.273-1.502 0-.596.124-1.113.373-1.553.25-.439.577-.774.982-1.005a2.567 2.567 0 0 1 1.291-.347c.567 0 1.039.125 1.416.376zm-.446.876c-.217-.431-.56-.647-1.028-.647-.45 0-.788.185-1.016.555-.228.369-.342.922-.342 1.657 0 .733.11 1.315.33 1.746.22.431.562.647 1.028.647.902 0 1.352-.737 1.352-2.212 0-.733-.108-1.314-.324-1.746zm3.083 3.836v-4.092l-.698-.195v-.586l1.445-.196h.025l.23.19v.396l-.006.225a3.04 3.04 0 0 1 .564-.386c.226-.123.469-.224.728-.303.259-.078.503-.117.735-.117.423 0 .75.08.981.237.231.158.392.401.483.73.092.329.137.775.137 1.338v2.759l.703.083V183h-2.45v-.532l.624-.083v-2.764c0-.378-.025-.675-.076-.891-.05-.216-.145-.38-.285-.488-.14-.11-.347-.164-.62-.164-.235 0-.479.05-.733.151a2.91 2.91 0 0 0-.669.367v3.789l.674.083V183h-2.431v-.532l.64-.083zm84.463-.035v-6.113l-.772-.127v-.542h1.303c.163 0 .335-.005.515-.014l.354-.02c.385-.026.68-.039.89-.039 1.246 0 2.173.311 2.78.933.607.621.91 1.495.91 2.622 0 .79-.154 1.49-.463 2.1a3.448 3.448 0 0 1-1.302 1.42c-.558.339-1.2.508-1.926.508-.166 0-.444-.013-.835-.039a15.405 15.405 0 0 0-.874-.039h-1.406v-.532l.825-.117zm1.569.123c.148.013.315.02.5.02h.225c.482-.01.906-.138 1.272-.384s.653-.609.86-1.089c.206-.48.31-1.067.31-1.76 0-1.052-.225-1.846-.674-2.383-.45-.537-1.127-.806-2.032-.806-.198 0-.444.017-.737.05l-.151.014v6.264c.136.036.279.06.427.074zm5.515-3.785a2.5 2.5 0 0 1 .933-1.027 2.543 2.543 0 0 1 1.352-.364c.625 0 1.109.17 1.45.513.342.341.524.835.547 1.48v.175c0 .342-.02.602-.058.781h-3.384c.013.479.094.876.244 1.191.15.316.347.549.59.699.245.15.52.224.826.224.267 0 .541-.046.823-.139.281-.093.502-.2.661-.32l.205.47a2.027 2.027 0 0 1-.51.36 3.42 3.42 0 0 1-1.511.381c-.547 0-1.008-.121-1.384-.363a2.206 2.206 0 0 1-.843-1.016c-.185-.435-.278-.942-.278-1.521 0-.573.112-1.08.337-1.524zm3.11.992c.013-.118.02-.257.02-.42-.003-.414-.09-.746-.259-.996-.17-.251-.436-.376-.8-.376-.365 0-.654.136-.867.407-.214.272-.335.734-.364 1.385h2.27zm2.828 2.7v-4.219h-.933v-.483l.933-.22v-.45c0-.41.102-.79.307-1.142.205-.351.472-.63.8-.837a1.892 1.892 0 0 1 1.366-.283c.105.018.186.036.241.056v1.094c-.055-.056-.173-.113-.354-.171a1.712 1.712 0 0 0-.53-.088c-.25 0-.432.074-.546.222-.114.148-.171.4-.171.754l.005.845h1.342v.703h-1.342v4.224l1.06.088V183h-3.004v-.527l.826-.093zm3.913-7.212c.129-.153.309-.23.54-.23h.005a.638.638 0 0 1 .588.347.71.71 0 0 1 .08.332.814.814 0 0 1-.195.562c-.13.146-.319.22-.566.22h-.005a.603.603 0 0 1-.462-.191.673.673 0 0 1-.178-.479c0-.22.065-.408.193-.561zm.042 7.217v-4.092l-.708-.2v-.576l1.552-.2h.025l.249.19v4.878l.781.083V183h-2.69v-.532l.79-.083zm3.31 0v-4.092l-.698-.195v-.586l1.445-.196h.025l.23.19v.396l-.006.225a3.04 3.04 0 0 1 .564-.386c.226-.123.469-.224.728-.303.259-.078.503-.117.735-.117.423 0 .75.08.981.237.231.158.392.401.483.73.092.329.137.775.137 1.338v2.759l.703.083V183h-2.45v-.532l.624-.083v-2.764c0-.378-.025-.675-.076-.891-.05-.216-.145-.38-.285-.488-.14-.11-.347-.164-.62-.164-.235 0-.479.05-.733.151a2.91 2.91 0 0 0-.669.367v3.789l.674.083V183h-2.431v-.532l.64-.083zm6.328-3.697a2.5 2.5 0 0 1 .933-1.027 2.543 2.543 0 0 1 1.352-.364c.625 0 1.109.17 1.45.513.342.341.525.835.548 1.48v.175c0 .342-.02.602-.06.781h-3.383c.013.479.095.876.244 1.191.15.316.347.549.591.699.244.15.52.224.825.224.267 0 .541-.046.823-.139.282-.093.502-.2.662-.32l.205.47a2.027 2.027 0 0 1-.51.36 3.42 3.42 0 0 1-1.512.381c-.547 0-1.008-.121-1.384-.363a2.206 2.206 0 0 1-.842-1.016c-.186-.435-.279-.942-.279-1.521 0-.573.113-1.08.337-1.524zm3.11.992c.014-.118.02-.257.02-.42-.003-.414-.09-.746-.259-.996-.169-.251-.436-.376-.8-.376-.365 0-.654.136-.867.407-.213.272-.335.734-.364 1.385h2.27zm92.284 2.675v-6.118l-.767-.127v-.542h1.206c.176 0 .414-.01.713-.029a13.7 13.7 0 0 1 1.01-.039c.691 0 1.24.082 1.646.247.407.164.697.402.87.715.172.312.258.705.258 1.177 0 .537-.123 1.002-.37 1.396a2.39 2.39 0 0 1-1.029.901c-.437.207-.938.31-1.501.31-.176 0-.356-.005-.542-.015a3.116 3.116 0 0 1-.347-.029v2.153l1.319.113V183h-3.286v-.532l.82-.113zm3.24-3.151c.31-.311.466-.83.466-1.556 0-.563-.137-.968-.41-1.215-.274-.248-.7-.371-1.28-.371-.198 0-.398.013-.6.039a1.873 1.873 0 0 1-.274.024v3.501c.157.03.455.044.894.044.492 0 .893-.156 1.204-.466zm3.093 3.18v-6.81l-.8-.098v-.464l1.664-.21h.01l.24.166v7.417l.83.083V183h-2.735v-.532l.79-.083zm5.898-3.012c0-.306-.031-.547-.095-.723a.675.675 0 0 0-.33-.385c-.156-.082-.377-.122-.664-.122-.55 0-1.13.154-1.738.463h-.005l-.244-.507c.088-.078.256-.18.505-.303a5.22 5.22 0 0 1 .85-.325c.317-.093.62-.139.906-.139.475 0 .849.064 1.12.193.272.129.468.334.589.618.12.283.18.665.18 1.147v3.174h.596v.478c-.475.114-.833.171-1.074.171a1.09 1.09 0 0 1-.313-.034.258.258 0 0 1-.158-.139.777.777 0 0 1-.051-.325v-.234a3.172 3.172 0 0 1-.694.495 1.96 1.96 0 0 1-.962.237 2.07 2.07 0 0 1-.852-.17 1.371 1.371 0 0 1-.61-.528c-.152-.238-.227-.534-.227-.889 0-.433.15-.789.451-1.069.302-.28.697-.486 1.187-.618a6.706 6.706 0 0 1 1.633-.212v-.254zm0 .806c-.478 0-.871.054-1.179.163-.308.11-.53.253-.669.432a.972.972 0 0 0-.207.61c0 .343.084.593.254.753.169.16.397.239.683.239.153 0 .338-.043.554-.13a2.27 2.27 0 0 0 .564-.314v-1.753zm3.057 2.207v-4.092l-.698-.195v-.586l1.445-.196h.024l.23.19v.396l-.005.225a3.04 3.04 0 0 1 .564-.386c.226-.123.469-.224.728-.303a2.54 2.54 0 0 1 .734-.117c.424 0 .75.08.982.237.23.158.392.401.483.73.091.329.137.775.137 1.338v2.759l.703.083V183h-2.451v-.532l.625-.083v-2.764c0-.378-.025-.675-.076-.891-.05-.216-.145-.38-.285-.488-.14-.11-.347-.164-.62-.164-.235 0-.48.05-.733.151a2.91 2.91 0 0 0-.669.367v3.789l.674.083V183h-2.432v-.532l.64-.083zm65.712-141.03v-6.118l-.767-.127v-.542h1.206c.176 0 .414-.01.713-.029a13.7 13.7 0 0 1 1.01-.039c.691 0 1.24.082 1.646.247.407.164.697.402.87.715.172.312.258.705.258 1.177 0 .537-.123 1.002-.37 1.396a2.39 2.39 0 0 1-1.029.901c-.437.207-.938.31-1.501.31-.176 0-.356-.005-.542-.015a3.116 3.116 0 0 1-.347-.029v2.153l1.319.113V42h-3.286v-.532l.82-.113zm3.24-3.151c.31-.311.466-.83.466-1.556 0-.563-.137-.968-.41-1.215-.274-.248-.7-.371-1.28-.371-.198 0-.398.013-.6.039a1.873 1.873 0 0 1-.274.024v3.501c.157.03.455.044.894.044.492 0 .893-.156 1.204-.466zm3.166 3.19v-4.101l-.693-.195v-.586l1.396-.196h.025l.234.19v.308l-.01.635h.01a2.46 2.46 0 0 1 .34-.432c.167-.18.383-.346.649-.496.265-.15.554-.224.866-.224.127 0 .235.018.323.054v1.2a.927.927 0 0 0-.247-.09 1.42 1.42 0 0 0-.33-.036c-.328 0-.612.04-.851.12-.24.08-.44.18-.599.3v3.545l1.285.088V42h-3.165v-.527l.767-.078zm7.832-4.721c.378.25.658.595.84 1.033.182.437.273.938.273 1.501 0 .602-.124 1.123-.373 1.563a2.57 2.57 0 0 1-.982 1 2.604 2.604 0 0 1-1.296.342c-.566 0-1.038-.125-1.414-.376a2.246 2.246 0 0 1-.837-1.032c-.182-.438-.273-.939-.273-1.502 0-.596.124-1.113.373-1.553.25-.439.576-.774.982-1.005a2.567 2.567 0 0 1 1.291-.347c.567 0 1.039.125 1.416.376zm-.447.876c-.216-.431-.559-.647-1.027-.647-.45 0-.788.185-1.016.555-.228.369-.342.922-.342 1.657 0 .733.11 1.315.33 1.746.22.431.562.647 1.027.647.902 0 1.353-.737 1.353-2.212 0-.733-.108-1.314-.325-1.746zm2.273-.403v-.463c.091-.023.196-.056.315-.098s.196-.075.232-.098a.825.825 0 0 0 .264-.38c.049-.111.113-.288.193-.53a7.07 7.07 0 0 0 .163-.55h.635l.01 1.421h1.64v.698h-1.635v2.955c0 .397.011.673.034.827.023.155.069.254.139.298.07.044.198.066.383.066h.005c.17 0 .36-.021.574-.063.213-.043.378-.087.496-.132h.004l.166.473a1.804 1.804 0 0 1-.439.247 4.14 4.14 0 0 1-.63.207 2.607 2.607 0 0 1-.62.083h-.01c-.403 0-.708-.088-.913-.266-.205-.177-.307-.474-.307-.89v-3.805h-.699zm8.194-.473c.377.25.657.595.84 1.033.182.437.273.938.273 1.501 0 .602-.125 1.123-.374 1.563a2.57 2.57 0 0 1-.981 1 2.604 2.604 0 0 1-1.296.342c-.567 0-1.038-.125-1.414-.376a2.246 2.246 0 0 1-.837-1.032c-.183-.438-.274-.939-.274-1.502 0-.596.125-1.113.374-1.553.249-.439.576-.774.981-1.005a2.567 2.567 0 0 1 1.292-.347c.566 0 1.038.125 1.416.376zm-.447.876c-.217-.431-.56-.647-1.028-.647-.45 0-.788.185-1.016.555-.227.369-.341.922-.341 1.657 0 .733.11 1.315.33 1.746.219.431.562.647 1.027.647.902 0 1.353-.737 1.353-2.212 0-.733-.109-1.314-.325-1.746zm2.273-.403v-.463c.091-.023.196-.056.315-.098s.196-.075.232-.098a.825.825 0 0 0 .263-.38c.05-.111.113-.288.193-.53.08-.243.135-.426.164-.55h.635l.01 1.421h1.64v.698h-1.636v2.955c0 .397.012.673.034.827.023.155.07.254.14.298.07.044.197.066.383.066h.005c.169 0 .36-.021.573-.063.214-.043.379-.087.496-.132h.005l.166.473a1.805 1.805 0 0 1-.44.247 4.14 4.14 0 0 1-.63.207 2.607 2.607 0 0 1-.62.083h-.01c-.403 0-.707-.088-.912-.266-.205-.177-.308-.474-.308-.89v-3.805h-.698zm4.458 6.348a.776.776 0 0 0 .24.061c.12.018.233.027.34.027.196 0 .376-.04.54-.12.165-.08.332-.235.5-.466.17-.231.335-.563.494-.996h-.552l-1.826-4.907-.464-.127v-.518h2.486v.518l-.767.127.942 2.949.435 1.416.39-1.42.884-2.95-.654-.122v-.518h2.05v.518l-.497.122a254.23 254.23 0 0 1-1.145 3.494c-.295.87-.483 1.398-.564 1.584-.222.56-.43 1.003-.628 1.328a2.264 2.264 0 0 1-.683.742c-.259.17-.576.254-.95.254-.1 0-.21-.007-.327-.022a1.022 1.022 0 0 1-.244-.051v-.923zm7.622-1.418a3.676 3.676 0 0 1-.444-.086l.029.83v.967l1 .108v.527h-2.836v-.527l.727-.113v-6.489l-.698-.195v-.586l1.44-.196h.025l.22.19v.557c.195-.214.436-.396.722-.544.287-.148.61-.222.972-.222.397 0 .76.097 1.089.29.329.194.592.495.791.904.199.408.298.92.298 1.535 0 .57-.117 1.09-.35 1.558-.232.469-.564.84-.995 1.116-.432.275-.934.412-1.507.412-.146 0-.307-.012-.483-.036zm-.415-.828c.045.081.157.153.334.215.178.062.377.093.598.093.316 0 .595-.084.838-.252.242-.167.434-.433.574-.796.14-.363.21-.824.21-1.384 0-.472-.063-.863-.188-1.172-.126-.31-.296-.538-.51-.686a1.268 1.268 0 0 0-.738-.222c-.231 0-.446.047-.645.142a1.528 1.528 0 0 0-.473.332v3.73zm4.912-3.56c.225-.442.535-.785.933-1.027a2.543 2.543 0 0 1 1.352-.364c.625 0 1.109.17 1.45.513.342.341.524.835.547 1.48v.175c0 .342-.02.602-.058.781H373.8c.013.479.094.876.244 1.191.15.316.347.549.59.699.245.15.52.224.826.224.267 0 .541-.046.823-.139.281-.093.502-.2.661-.32l.205.47a2.027 2.027 0 0 1-.51.36 3.42 3.42 0 0 1-1.511.381c-.547 0-1.008-.121-1.384-.363a2.206 2.206 0 0 1-.843-1.016c-.185-.435-.278-.942-.278-1.521 0-.573.112-1.08.337-1.524zm3.11.992c.013-.118.02-.257.02-.42-.003-.414-.09-.746-.259-.996-.17-.251-.436-.376-.8-.376-.365 0-.654.136-.867.407-.214.272-.335.734-.364 1.385h2.27zm5.533-4.488l-2.686 9.58h-.938l2.686-9.58h.938zm.668 2.954v-.463c.092-.023.197-.056.315-.098.12-.042.197-.075.232-.098a.825.825 0 0 0 .264-.38c.049-.111.113-.288.193-.53a7.07 7.07 0 0 0 .163-.55h.635l.01 1.421h1.64v.698h-1.635v2.955c0 .397.011.673.034.827.023.155.07.254.14.298.07.044.197.066.383.066h.004c.17 0 .36-.021.574-.063.213-.043.379-.087.496-.132h.005l.166.473a1.804 1.804 0 0 1-.44.247 4.14 4.14 0 0 1-.63.207 2.607 2.607 0 0 1-.62.083h-.01c-.403 0-.708-.088-.913-.266-.205-.177-.307-.474-.307-.89v-3.805h-.699zm4.498.542a2.49 2.49 0 0 1 .932-1.027 2.543 2.543 0 0 1 1.353-.364c.625 0 1.108.17 1.45.513.342.341.524.835.547 1.48v.175c0 .342-.02.602-.059.781h-3.384c.013.479.095.876.245 1.191.15.316.346.549.59.699.245.15.52.224.826.224.266 0 .54-.046.822-.139.282-.093.502-.2.662-.32l.205.47a2.027 2.027 0 0 1-.51.36 3.42 3.42 0 0 1-1.511.381c-.547 0-1.009-.121-1.385-.363a2.206 2.206 0 0 1-.842-1.016c-.186-.435-.278-.942-.278-1.521 0-.573.112-1.08.337-1.524zm3.11.992c.013-.118.02-.257.02-.42-.004-.414-.09-.746-.26-.996-.169-.251-.436-.376-.8-.376-.365 0-.654.136-.867.407-.213.272-.334.734-.364 1.385h2.27zm2.837 1.733l.195.742c.04.069.115.134.227.196a1.887 1.887 0 0 0 .867.21c.368 0 .63-.07.786-.208.156-.138.234-.328.234-.569a.683.683 0 0 0-.158-.447 1.592 1.592 0 0 0-.471-.363 8.128 8.128 0 0 0-.85-.386c-.518-.202-.895-.44-1.133-.715-.238-.276-.356-.631-.356-1.067 0-.293.088-.551.266-.774.177-.223.42-.397.73-.52a2.784 2.784 0 0 1 1.045-.186c.3 0 .563.024.79.071.229.047.458.108.69.183l.175.054v1.235h-.625l-.21-.683c-.04-.085-.144-.158-.315-.22a1.677 1.677 0 0 0-.574-.093c-.3 0-.53.064-.693.19a.602.602 0 0 0-.244.499c0 .182.048.335.144.459.096.123.215.224.359.302.143.078.343.171.6.279l.19.083c.372.16.673.309.904.449.231.14.423.319.576.537.153.218.23.485.23.8 0 .326-.086.613-.257.86-.17.247-.418.44-.742.576-.324.137-.707.205-1.15.205-.332 0-.68-.045-1.045-.136a5.42 5.42 0 0 1-.874-.284v-1.279h.689zm4.15-3.267v-.463c.091-.023.196-.056.315-.098s.196-.075.232-.098a.825.825 0 0 0 .264-.38c.049-.111.113-.288.193-.53a7.07 7.07 0 0 0 .163-.55h.635l.01 1.421h1.64v.698h-1.635v2.955c0 .397.011.673.034.827.023.155.069.254.139.298.07.044.198.066.383.066h.005c.17 0 .36-.021.574-.063.213-.043.378-.087.495-.132h.005l.166.473a1.805 1.805 0 0 1-.44.247 4.14 4.14 0 0 1-.629.207 2.607 2.607 0 0 1-.62.083h-.01c-.403 0-.708-.088-.913-.266-.205-.177-.308-.474-.308-.89v-3.805h-.698zm7.71-2.954l-2.685 9.58h-.938l2.686-9.58h.937zm1.563 7.203v-4.102l-.694-.195v-.586l1.397-.196h.024l.235.19v.308l-.01.635h.01c.058-.107.171-.251.339-.432.168-.18.384-.346.65-.496.265-.15.554-.224.866-.224a.85.85 0 0 1 .322.054v1.2a.927.927 0 0 0-.246-.09 1.42 1.42 0 0 0-.33-.036c-.329 0-.613.04-.852.12-.24.08-.439.18-.598.3v3.545l1.284.088V42h-3.164v-.527l.767-.078zm4.135-3.707a2.5 2.5 0 0 1 .933-1.027 2.543 2.543 0 0 1 1.353-.364c.625 0 1.108.17 1.45.513.342.341.524.835.547 1.48v.175c0 .342-.02.602-.059.781h-3.384c.013.479.095.876.244 1.191.15.316.347.549.591.699.244.15.52.224.825.224.267 0 .542-.046.823-.139.282-.093.502-.2.662-.32l.205.47a2.027 2.027 0 0 1-.51.36 3.42 3.42 0 0 1-1.512.381c-.546 0-1.008-.121-1.384-.363a2.206 2.206 0 0 1-.842-1.016c-.186-.435-.279-.942-.279-1.521 0-.573.113-1.08.337-1.524zm3.11.992c.014-.118.02-.257.02-.42-.003-.414-.09-.746-.258-.996-.17-.251-.437-.376-.801-.376-.365 0-.654.136-.867.407-.213.272-.334.734-.364 1.385h2.27zm2.828 2.7v-4.22h-.933v-.483l.933-.22v-.45c0-.41.102-.79.308-1.142.205-.351.472-.63.8-.837a1.892 1.892 0 0 1 1.365-.283c.106.018.186.036.242.056v1.094c-.056-.056-.174-.113-.354-.171a1.712 1.712 0 0 0-.53-.088c-.25 0-.433.074-.547.222-.114.148-.17.4-.17.754l.004.845h1.343v.703h-1.343v4.224l1.06.088V42h-3.003v-.527l.825-.093zm3.913-7.212c.13-.153.309-.23.54-.23h.005a.638.638 0 0 1 .588.347.71.71 0 0 1 .08.332.814.814 0 0 1-.194.562c-.13.146-.32.22-.567.22h-.005a.603.603 0 0 1-.461-.191.673.673 0 0 1-.178-.479c0-.22.064-.408.192-.561zm.042 7.217v-4.092l-.708-.2v-.576l1.553-.2h.024l.25.19v4.878l.78.083V42h-2.69v-.532l.791-.083zm3.31 0v-4.092l-.698-.195v-.586l1.446-.196h.024l.23.19v.396l-.005.225c.15-.134.337-.262.564-.386.226-.123.468-.224.727-.303.259-.078.504-.117.735-.117.423 0 .75.08.981.237.232.158.393.401.484.73.091.329.137.775.137 1.338v2.759l.703.083V42h-2.451v-.532l.625-.083V38.62c0-.378-.026-.675-.076-.891-.05-.216-.146-.38-.286-.488-.14-.11-.346-.164-.62-.164-.234 0-.478.05-.732.151a2.91 2.91 0 0 0-.67.367v3.789l.675.083V42h-2.432v-.532l.64-.083zm6.329-3.697a2.49 2.49 0 0 1 .932-1.027 2.543 2.543 0 0 1 1.353-.364c.625 0 1.108.17 1.45.513.342.341.524.835.547 1.48v.175c0 .342-.02.602-.059.781h-3.383c.013.479.094.876.244 1.191.15.316.346.549.59.699.245.15.52.224.826.224.267 0 .54-.046.822-.139.282-.093.503-.2.662-.32l.205.47a2.027 2.027 0 0 1-.51.36 3.42 3.42 0 0 1-1.511.381c-.547 0-1.009-.121-1.385-.363a2.206 2.206 0 0 1-.842-1.016c-.185-.435-.278-.942-.278-1.521 0-.573.112-1.08.337-1.524zm3.11.992c.013-.118.02-.257.02-.42-.004-.414-.09-.746-.26-.996-.169-.251-.435-.376-.8-.376-.365 0-.654.136-.867.407-.213.272-.334.734-.363 1.385h2.27zM330.44 183.35v-6.113l-.893-.127v-.542h2.94v.542l-.894.122v6.119l.908.131V184h-2.954v-.532l.893-.117zm2.925-4.204v-.463c.091-.023.196-.056.315-.098s.196-.075.232-.098a.825.825 0 0 0 .264-.38c.049-.111.113-.288.193-.53a7.07 7.07 0 0 0 .163-.55h.635l.01 1.421h1.64v.698h-1.635v2.955c0 .397.011.673.034.827.023.155.069.254.139.298.07.044.198.066.383.066h.005c.17 0 .36-.021.574-.063.213-.043.378-.087.495-.132h.005l.166.473a1.804 1.804 0 0 1-.44.247 4.14 4.14 0 0 1-.629.207 2.607 2.607 0 0 1-.62.083h-.01c-.403 0-.708-.088-.913-.266-.205-.177-.308-.474-.308-.89v-3.805h-.698zm4.497.542a2.5 2.5 0 0 1 .933-1.027 2.543 2.543 0 0 1 1.352-.364c.625 0 1.109.17 1.45.513.342.341.525.835.548 1.48v.175c0 .342-.02.602-.06.781h-3.383c.013.479.095.876.244 1.191.15.316.347.549.591.699.244.15.52.224.825.224.267 0 .541-.046.823-.139.282-.093.502-.2.662-.32l.205.47a2.027 2.027 0 0 1-.51.36 3.42 3.42 0 0 1-1.512.381c-.547 0-1.008-.121-1.384-.363a2.206 2.206 0 0 1-.842-1.016c-.186-.435-.279-.942-.279-1.521 0-.573.113-1.08.337-1.524zm3.11.992c.014-.118.02-.257.02-.42-.003-.414-.09-.746-.259-.996-.169-.251-.436-.376-.8-.376-.365 0-.654.136-.867.407-.213.272-.335.734-.364 1.385h2.27zm2.789 2.715v-4.102l-.694-.195v-.586l1.397-.196h.024l.235.19v.308l-.01.635h.01c.058-.107.171-.251.339-.432.168-.18.384-.346.65-.496.265-.15.554-.224.866-.224.127 0 .235.018.322.054v1.2a.927.927 0 0 0-.246-.09 1.42 1.42 0 0 0-.33-.036c-.329 0-.613.04-.852.12-.24.08-.438.18-.598.3v3.545l1.284.088V184h-3.164v-.527l.767-.078zm7.07-3.023c0-.306-.032-.547-.095-.723a.675.675 0 0 0-.33-.385c-.156-.082-.377-.122-.664-.122-.55 0-1.13.154-1.738.463h-.005l-.244-.507c.088-.078.256-.18.505-.303.25-.124.532-.232.85-.325.317-.093.62-.139.906-.139.475 0 .848.064 1.12.193.272.129.468.334.589.618.12.283.18.665.18 1.147v3.174h.596v.478c-.475.114-.833.171-1.074.171a1.09 1.09 0 0 1-.313-.034.258.258 0 0 1-.158-.139.777.777 0 0 1-.052-.325v-.234a3.172 3.172 0 0 1-.693.495 1.96 1.96 0 0 1-.962.237 2.07 2.07 0 0 1-.852-.17 1.371 1.371 0 0 1-.61-.528c-.152-.238-.227-.534-.227-.889 0-.433.15-.789.451-1.069.301-.28.697-.486 1.187-.618a6.706 6.706 0 0 1 1.633-.212v-.254zm0 .806c-.478 0-.872.054-1.18.163-.307.11-.53.253-.668.432a.972.972 0 0 0-.208.61c0 .343.085.593.254.753.17.16.397.239.684.239.153 0 .338-.043.554-.13a2.27 2.27 0 0 0 .564-.314v-1.753zm2.246-2.032v-.463c.091-.023.196-.056.315-.098s.196-.075.232-.098a.825.825 0 0 0 .264-.38c.049-.111.113-.288.193-.53a7.07 7.07 0 0 0 .163-.55h.635l.01 1.421h1.64v.698h-1.635v2.955c0 .397.01.673.034.827.023.155.069.254.139.298.07.044.198.066.383.066h.005c.17 0 .36-.021.574-.063.213-.043.378-.087.495-.132h.005l.166.473a1.804 1.804 0 0 1-.44.247 4.14 4.14 0 0 1-.629.207 2.607 2.607 0 0 1-.62.083h-.01c-.404 0-.708-.088-.913-.266-.205-.177-.308-.474-.308-.89v-3.805h-.698zm4.917 4.239v-4.092l-.708-.2v-.576l1.553-.2h.024l.25.19v4.878l.78.083V184h-2.69v-.532l.791-.083zm-.007-7.217c.128-.153.308-.23.54-.23h.004a.638.638 0 0 1 .588.347.711.711 0 0 1 .081.332.814.814 0 0 1-.195.562c-.13.146-.32.22-.567.22h-.004a.603.603 0 0 1-.462-.191.673.673 0 0 1-.178-.479c0-.22.064-.408.193-.561zm2.165 2.798v-.518h2.442v.518l-.733.127.957 2.759.43 1.313.361-1.265.923-2.807-.674-.127v-.518h2.066v.518l-.508.132-1.885 4.98h-.918l-2.002-4.985-.459-.127zm6.475.722c.225-.442.535-.785.933-1.027a2.543 2.543 0 0 1 1.352-.364c.625 0 1.109.17 1.45.513.342.341.524.835.547 1.48v.175c0 .342-.02.602-.058.781h-3.384c.013.479.094.876.244 1.191.15.316.347.549.59.699.245.15.52.224.826.224.267 0 .541-.046.823-.139.281-.093.502-.2.661-.32l.205.47a2.027 2.027 0 0 1-.51.36 3.42 3.42 0 0 1-1.511.381c-.547 0-1.008-.121-1.384-.363a2.206 2.206 0 0 1-.843-1.016c-.185-.435-.278-.942-.278-1.521 0-.573.112-1.08.337-1.524zm3.11.992c.013-.118.02-.257.02-.42-.003-.414-.09-.746-.259-.996-.17-.251-.436-.376-.8-.376-.365 0-.654.136-.867.407-.214.272-.335.734-.364 1.385h2.27zm5.327-.992a2.5 2.5 0 0 1 .933-1.027 2.543 2.543 0 0 1 1.353-.364c.625 0 1.108.17 1.45.513.342.341.524.835.547 1.48v.175c0 .342-.02.602-.059.781h-3.384c.013.479.095.876.244 1.191.15.316.347.549.591.699.244.15.52.224.825.224.267 0 .542-.046.823-.139.282-.093.502-.2.662-.32l.205.47a2.027 2.027 0 0 1-.51.36 3.42 3.42 0 0 1-1.512.381c-.546 0-1.008-.121-1.384-.363a2.206 2.206 0 0 1-.842-1.016c-.186-.435-.278-.942-.278-1.521 0-.573.112-1.08.336-1.524zm3.11.992c.014-.118.02-.257.02-.42-.003-.414-.09-.746-.258-.996-.17-.251-.437-.376-.801-.376-.365 0-.654.136-.867.407-.213.272-.334.734-.364 1.385h2.27zm2.305 2.71l1.695-2.163-1.65-2.134-.577-.127v-.518h2.588v.518l-.674.127.86 1.2.288.44.249-.434.898-1.206-.718-.127v-.518h2.154v.518l-.61.127-1.607 2.011 1.729 2.29.57.088V184h-2.602v-.518l.64-.092-1.187-1.739-.249.435-.903 1.299.806.097V184h-2.368v-.518l.668-.092zm5.962-3.702a2.5 2.5 0 0 1 .933-1.027 2.543 2.543 0 0 1 1.353-.364c.625 0 1.108.17 1.45.513.342.341.524.835.547 1.48v.175c0 .342-.02.602-.059.781h-3.384c.013.479.095.876.244 1.191.15.316.347.549.591.699.244.15.52.224.825.224.267 0 .542-.046.823-.139.282-.093.502-.2.662-.32l.205.47a2.027 2.027 0 0 1-.51.36 3.42 3.42 0 0 1-1.512.381c-.547 0-1.008-.121-1.384-.363a2.206 2.206 0 0 1-.842-1.016c-.186-.435-.279-.942-.279-1.521 0-.573.113-1.08.337-1.524zm3.11.992c.014-.118.02-.257.02-.42-.003-.414-.09-.746-.259-.996-.169-.251-.436-.376-.8-.376-.365 0-.654.136-.867.407-.213.272-.334.734-.364 1.385h2.27zm6.26-2.08l-.048 1.504h-.679l-.225-.914a.45.45 0 0 0-.27-.239 1.351 1.351 0 0 0-.486-.078c-.287 0-.536.079-.748.237-.211.158-.376.394-.493.708-.117.314-.175.702-.175 1.164 0 .538.07.983.21 1.338.14.355.33.617.57.786.242.17.513.254.816.254a2.42 2.42 0 0 0 1.396-.43l.21.45a2.14 2.14 0 0 1-.468.349 3.04 3.04 0 0 1-.657.276 2.566 2.566 0 0 1-.73.107c-.55 0-1.015-.122-1.396-.366a2.263 2.263 0 0 1-.857-1.003 3.504 3.504 0 0 1-.286-1.448 3.5 3.5 0 0 1 .322-1.516 2.54 2.54 0 0 1 .957-1.082c.424-.267.935-.4 1.534-.4.468 0 .97.1 1.504.303zm4.854 4.736a3.107 3.107 0 0 1-.791.54 2.16 2.16 0 0 1-.967.236c-.407 0-.737-.072-.991-.217-.254-.145-.441-.375-.562-.69-.12-.317-.18-.733-.18-1.25v-2.833l-.542-.18v-.474l1.445-.147h.005l.205.132v3.447c0 .371.028.661.083.87.055.208.153.36.293.456.14.096.342.144.606.144.253 0 .49-.049.708-.146.218-.098.406-.21.566-.337v-3.76l-.698-.19v-.474l1.543-.142h.01l.258.132v4.995h.586v.489a7.941 7.941 0 0 1-.49.129 2.27 2.27 0 0 1-.477.046c-.208 0-.362-.04-.461-.12-.1-.08-.149-.213-.149-.402v-.254zm2.275-4.19v-.463c.092-.023.197-.056.315-.098.12-.042.196-.075.232-.098a.825.825 0 0 0 .264-.38c.049-.111.113-.288.193-.53a7.07 7.07 0 0 0 .163-.55h.635l.01 1.421h1.64v.698h-1.635v2.955c0 .397.011.673.034.827.023.155.07.254.14.298.07.044.197.066.382.066h.005c.17 0 .36-.021.574-.063.213-.043.379-.087.496-.132h.005l.166.473a1.805 1.805 0 0 1-.44.247 4.14 4.14 0 0 1-.63.207 2.607 2.607 0 0 1-.62.083h-.01c-.403 0-.708-.088-.913-.266-.205-.177-.307-.474-.307-.89v-3.805h-.699zm4.917 4.239v-4.092l-.708-.2v-.576l1.553-.2h.025l.249.19v4.878l.78.083V184h-2.69v-.532l.791-.083zm-.007-7.217c.129-.153.309-.23.54-.23h.005a.638.638 0 0 1 .588.347.71.71 0 0 1 .08.332.814.814 0 0 1-.195.562c-.13.146-.319.22-.566.22h-.005a.603.603 0 0 1-.462-.191.673.673 0 0 1-.178-.479c0-.22.065-.408.193-.561zm6.629 2.505c.377.25.657.595.84 1.033.182.437.273.938.273 1.501 0 .602-.125 1.123-.374 1.563a2.57 2.57 0 0 1-.981 1 2.604 2.604 0 0 1-1.297.342c-.566 0-1.037-.125-1.413-.376a2.246 2.246 0 0 1-.838-1.032c-.182-.438-.273-.939-.273-1.502 0-.596.125-1.113.374-1.553.249-.439.576-.774.981-1.005a2.567 2.567 0 0 1 1.291-.347c.567 0 1.039.125 1.417.376zm-.447.876c-.217-.431-.56-.647-1.028-.647-.45 0-.788.185-1.016.555-.228.369-.342.922-.342 1.657 0 .733.11 1.315.33 1.746.22.431.562.647 1.028.647.902 0 1.352-.737 1.352-2.212 0-.733-.108-1.314-.324-1.746zm3.083 3.836v-4.092l-.698-.195v-.586l1.445-.196h.025l.23.19v.396l-.006.225a3.04 3.04 0 0 1 .564-.386c.227-.123.469-.224.728-.303.259-.078.504-.117.735-.117.423 0 .75.08.981.237.231.158.392.401.484.73.09.329.136.775.136 1.338v2.759l.703.083V184h-2.45v-.532l.624-.083v-2.764c0-.378-.025-.675-.075-.891-.05-.216-.146-.38-.286-.488-.14-.11-.347-.164-.62-.164-.235 0-.479.05-.733.151a2.91 2.91 0 0 0-.669.367v3.789l.674.083V184h-2.431v-.532l.64-.083zm409.175-1.035v-6.113l-.772-.127v-.542h1.303c.163 0 .335-.005.515-.014l.354-.02c.385-.026.68-.039.89-.039 1.246 0 2.173.311 2.78.933.607.621.91 1.495.91 2.622 0 .79-.154 1.49-.463 2.1a3.448 3.448 0 0 1-1.302 1.42c-.558.339-1.2.508-1.926.508-.166 0-.444-.013-.835-.039a15.405 15.405 0 0 0-.874-.039h-1.406v-.532l.825-.117zm1.569.123c.148.013.315.02.5.02h.225c.482-.01.906-.138 1.272-.384s.653-.609.86-1.089c.206-.48.31-1.067.31-1.76 0-1.052-.225-1.846-.674-2.383-.45-.537-1.127-.806-2.032-.806-.198 0-.444.017-.737.05l-.151.014v6.264c.136.036.279.06.427.074zm5.515-3.785a2.5 2.5 0 0 1 .933-1.027 2.543 2.543 0 0 1 1.352-.364c.625 0 1.109.17 1.45.513.342.341.524.835.547 1.48v.175c0 .342-.02.602-.058.781h-3.384c.013.479.094.876.244 1.191.15.316.347.549.59.699.245.15.52.224.826.224.267 0 .541-.046.823-.139.281-.093.502-.2.661-.32l.205.47a2.027 2.027 0 0 1-.51.36 3.42 3.42 0 0 1-1.511.381c-.547 0-1.008-.121-1.384-.363a2.206 2.206 0 0 1-.843-1.016c-.185-.435-.278-.942-.278-1.521 0-.573.112-1.08.337-1.524zm3.11.992c.013-.118.02-.257.02-.42-.003-.414-.09-.746-.259-.996-.17-.251-.436-.376-.8-.376-.365 0-.654.136-.867.407-.214.272-.335.734-.364 1.385h2.27zm2.715 2.705v-6.812l-.8-.097v-.464l1.664-.21h.01l.24.166v7.417l.83.083V183h-2.735v-.532l.791-.083zm3.384 0v-4.092l-.708-.2v-.576l1.553-.2h.024l.25.19v4.878l.78.083V183h-2.69v-.532l.791-.083zm-.007-7.217c.128-.153.308-.23.54-.23h.004a.638.638 0 0 1 .588.347.711.711 0 0 1 .081.332.814.814 0 0 1-.195.562c-.13.146-.32.22-.567.22h-.005a.603.603 0 0 1-.461-.191.673.673 0 0 1-.178-.479c0-.22.064-.408.193-.561zm2.165 2.798v-.518h2.442v.518l-.733.127.957 2.759.43 1.313.361-1.265.923-2.807-.674-.127v-.518h2.066v.518l-.508.132-1.885 4.98h-.918l-2.002-4.985-.459-.127zm6.475.722a2.49 2.49 0 0 1 .932-1.027 2.543 2.543 0 0 1 1.353-.364c.625 0 1.108.17 1.45.513.342.341.524.835.547 1.48v.175c0 .342-.02.602-.059.781h-3.383c.013.479.094.876.244 1.191.15.316.346.549.59.699.245.15.52.224.826.224.267 0 .541-.046.823-.139.281-.093.502-.2.661-.32l.205.47a2.027 2.027 0 0 1-.51.36 3.42 3.42 0 0 1-1.511.381c-.547 0-1.009-.121-1.384-.363a2.206 2.206 0 0 1-.843-1.016c-.185-.435-.278-.942-.278-1.521 0-.573.112-1.08.337-1.524zm3.11.992c.013-.118.02-.257.02-.42-.004-.414-.09-.746-.26-.996-.168-.251-.435-.376-.8-.376-.364 0-.653.136-.867.407-.213.272-.334.734-.363 1.385h2.27zm2.788 2.715v-4.102l-.693-.195v-.586l1.396-.196h.025l.234.19v.308l-.01.635h.01a2.46 2.46 0 0 1 .34-.432c.167-.18.384-.346.649-.496a1.73 1.73 0 0 1 .867-.224.85.85 0 0 1 .322.054v1.2a.927.927 0 0 0-.247-.09 1.42 1.42 0 0 0-.33-.036c-.328 0-.612.04-.851.12-.24.08-.439.18-.598.3v3.545l1.284.088V183h-3.164v-.527l.766-.078zM900 14.5V24h-1v-9H325v9h-1V14h576v.5zm-577 0V24h-1v-9h-78v9h-1V14h80v.5zm-81 0V24h-1v-9H1v9H0V14h242v.5z" fill="#313D3A"/></g></svg>