<svg width="400" height="340" viewBox="0 0 400 340" xmlns="http://www.w3.org/2000/svg"><title>design-dev-process-graph-website-narrow</title><g fill="none" fill-rule="evenodd"><path d="M173 154h-50V29h-1v125.366l-41 15V29h-1v140.732l-40 14.634V29h-1v155.732L0 199V29h400v80l-226 45V29h-1v125z" fill="#00B968"/><path d="M359 127.164L174 164v125h-1V164h-50v125h-1V164.366L0 209v80h400V119l-40 7.965V289h-1V127.164zM60 189h1v100h-1V189z" fill="#F7D200"/><path d="M21.36 313v-11.36h3.936c.907 0 1.704.15 2.392.448a4.88 4.88 0 0 1 1.72 1.216 5.062 5.062 0 0 1 1.032 1.8c.23.688.344 1.421.344 2.2 0 .864-.128 1.645-.384 2.344a5.026 5.026 0 0 1-1.104 1.792 4.95 4.95 0 0 1-1.736 1.152c-.677.272-1.432.408-2.264.408H21.36zm7.968-5.696c0-.64-.088-1.23-.264-1.768-.176-.539-.437-1-.784-1.384a3.66 3.66 0 0 0-1.272-.904c-.501-.219-1.072-.328-1.712-.328H22.8v8.8h2.496c.65 0 1.23-.112 1.736-.336a3.48 3.48 0 0 0 1.264-.928c.336-.395.592-.861.768-1.4a5.61 5.61 0 0 0 .264-1.752zm6.96 5.856c-.63 0-1.205-.115-1.728-.344a4.086 4.086 0 0 1-1.344-.936 4.267 4.267 0 0 1-.872-1.384 4.52 4.52 0 0 1-.312-1.672c0-.587.104-1.141.312-1.664a4.22 4.22 0 0 1 .88-1.376c.379-.395.83-.707 1.352-.936a4.254 4.254 0 0 1 1.728-.344 4.087 4.087 0 0 1 3.04 1.288c.363.39.643.843.84 1.36a4.48 4.48 0 0 1 .296 1.608c0 .117-.003.224-.008.32s-.013.17-.024.224H33.52c.032.416.128.795.288 1.136a2.886 2.886 0 0 0 1.496 1.456 2.6 2.6 0 0 0 1.032.208c.256 0 .507-.035.752-.104.245-.07.475-.163.688-.28a2.37 2.37 0 0 0 .568-.432c.165-.17.29-.363.376-.576l1.216.336a3.07 3.07 0 0 1-.568.848c-.24.256-.517.477-.832.664a4.463 4.463 0 0 1-2.248.6zm2.864-4.896a3.01 3.01 0 0 0-.92-1.952 2.797 2.797 0 0 0-1.928-.752c-.373 0-.725.067-1.056.2-.33.133-.621.32-.872.56-.25.24-.453.525-.608.856-.155.33-.248.693-.28 1.088h5.664zm5.824 4.896a6.479 6.479 0 0 1-1.984-.312 4.89 4.89 0 0 1-1.68-.904l.608-.944c.49.373.981.653 1.472.84.49.187 1.008.28 1.552.28.608 0 1.09-.12 1.448-.36.357-.24.536-.579.536-1.016a.916.916 0 0 0-.144-.52 1.212 1.212 0 0 0-.432-.376 3.53 3.53 0 0 0-.736-.288 27.45 27.45 0 0 0-1.04-.272c-.501-.128-.933-.25-1.296-.368a3.51 3.51 0 0 1-.896-.416 1.457 1.457 0 0 1-.512-.576c-.107-.224-.16-.501-.16-.832 0-.416.083-.787.248-1.112.165-.325.392-.597.68-.816a3.06 3.06 0 0 1 1.016-.496c.39-.112.808-.168 1.256-.168.63 0 1.216.101 1.76.304a4.33 4.33 0 0 1 1.376.8l-.64.848a3.594 3.594 0 0 0-1.184-.696 4.003 4.003 0 0 0-1.344-.232c-.512 0-.947.11-1.304.328-.357.219-.536.568-.536 1.048 0 .192.035.352.104.48a.91.91 0 0 0 .344.336c.16.096.365.181.616.256.25.075.552.155.904.24a17.46 17.46 0 0 1 1.448.392c.41.133.752.29 1.024.472.272.181.475.395.608.64s.2.544.2.896c0 .779-.299 1.397-.896 1.856-.597.459-1.403.688-2.416.688zm4.976-.16v-8.352h1.408V313h-1.408zm0-9.92v-1.76h1.408v1.76h-1.408zm7.008 10.016a3.471 3.471 0 0 1-1.56-.352 3.866 3.866 0 0 1-1.224-.944 4.32 4.32 0 0 1-.792-1.36 4.635 4.635 0 0 1-.28-1.6c0-.587.093-1.144.28-1.672.187-.528.45-.99.792-1.384.341-.395.75-.707 1.224-.936.475-.23 1-.344 1.576-.344.704 0 1.312.17 1.824.512.512.341.944.773 1.296 1.296v-1.664h1.248v8.256c0 .597-.112 1.123-.336 1.576a3.36 3.36 0 0 1-.912 1.144c-.384.31-.835.544-1.352.704-.517.16-1.07.24-1.656.24-.95 0-1.72-.163-2.312-.488a4.27 4.27 0 0 1-1.48-1.352l.816-.72c.33.49.757.859 1.28 1.104a3.941 3.941 0 0 0 1.696.368c.384 0 .75-.053 1.096-.16.347-.107.648-.267.904-.48.256-.213.461-.48.616-.8.155-.32.232-.699.232-1.136v-1.472a3.57 3.57 0 0 1-1.28 1.224 3.492 3.492 0 0 1-1.696.44zm.432-1.152c.299 0 .587-.053.864-.16a3.17 3.17 0 0 0 .768-.424c.235-.176.432-.376.592-.6.16-.224.267-.453.32-.688v-2.4a3.177 3.177 0 0 0-.456-.784 3.452 3.452 0 0 0-.632-.616 2.83 2.83 0 0 0-.76-.408 2.46 2.46 0 0 0-.824-.144c-.427 0-.808.09-1.144.272a2.72 2.72 0 0 0-.856.72 3.383 3.383 0 0 0-.544 1.016c-.128.379-.192.76-.192 1.144 0 .416.075.81.224 1.184.15.373.352.699.608.976s.557.499.904.664c.347.165.723.248 1.128.248zM70.864 313h-1.408v-4.672c0-.896-.136-1.547-.408-1.952-.272-.405-.685-.608-1.24-.608-.288 0-.576.056-.864.168-.288.112-.56.264-.816.456-.256.192-.48.421-.672.688-.192.267-.336.56-.432.88V313h-1.408v-8.352h1.28v1.792a3.673 3.673 0 0 1 1.432-1.408 4.082 4.082 0 0 1 2.04-.528c.48 0 .88.088 1.2.264.32.176.576.421.768.736.192.315.328.685.408 1.112.08.427.12.89.12 1.392V313zm6.464 0v-11.36h4.864c.501 0 .963.104 1.384.312a3.48 3.48 0 0 1 1.088.832c.304.347.541.736.712 1.168.17.432.256.872.256 1.32 0 .395-.056.776-.168 1.144a3.54 3.54 0 0 1-.48 1 3.214 3.214 0 0 1-.752.768 2.933 2.933 0 0 1-.984.464L86 313h-1.632l-2.592-4.08h-3.008V313h-1.44zm1.44-5.36h3.44c.299 0 .568-.064.808-.192a1.92 1.92 0 0 0 .616-.52c.17-.219.304-.472.4-.76.096-.288.144-.587.144-.896 0-.32-.056-.621-.168-.904a2.653 2.653 0 0 0-.448-.752 2.028 2.028 0 0 0-.656-.512 1.78 1.78 0 0 0-.792-.184h-3.344v4.72zm12.544 5.52c-.63 0-1.205-.115-1.728-.344a4.086 4.086 0 0 1-1.344-.936 4.267 4.267 0 0 1-.872-1.384 4.52 4.52 0 0 1-.312-1.672c0-.587.104-1.141.312-1.664a4.22 4.22 0 0 1 .88-1.376c.379-.395.83-.707 1.352-.936a4.254 4.254 0 0 1 1.728-.344 4.087 4.087 0 0 1 3.04 1.288c.363.39.643.843.84 1.36a4.48 4.48 0 0 1 .296 1.608c0 .117-.003.224-.008.32s-.013.17-.024.224h-6.928c.032.416.128.795.288 1.136a2.886 2.886 0 0 0 1.496 1.456 2.6 2.6 0 0 0 1.032.208c.256 0 .507-.035.752-.104.245-.07.475-.163.688-.28a2.37 2.37 0 0 0 .568-.432c.165-.17.29-.363.376-.576l1.216.336a3.07 3.07 0 0 1-.568.848c-.24.256-.517.477-.832.664a4.463 4.463 0 0 1-2.248.6zm2.864-4.896a3.01 3.01 0 0 0-.92-1.952 2.797 2.797 0 0 0-1.928-.752c-.373 0-.725.067-1.056.2-.33.133-.621.32-.872.56-.25.24-.453.525-.608.856-.155.33-.248.693-.28 1.088h5.664zM100 313.16a6.479 6.479 0 0 1-1.984-.312 4.89 4.89 0 0 1-1.68-.904l.608-.944c.49.373.981.653 1.472.84.49.187 1.008.28 1.552.28.608 0 1.09-.12 1.448-.36.357-.24.536-.579.536-1.016a.916.916 0 0 0-.144-.52 1.211 1.211 0 0 0-.432-.376 3.53 3.53 0 0 0-.736-.288 27.45 27.45 0 0 0-1.04-.272c-.501-.128-.933-.25-1.296-.368a3.51 3.51 0 0 1-.896-.416 1.457 1.457 0 0 1-.512-.576c-.107-.224-.16-.501-.16-.832 0-.416.083-.787.248-1.112.165-.325.392-.597.68-.816a3.06 3.06 0 0 1 1.016-.496c.39-.112.808-.168 1.256-.168.63 0 1.216.101 1.76.304a4.33 4.33 0 0 1 1.376.8l-.64.848a3.594 3.594 0 0 0-1.184-.696 4.003 4.003 0 0 0-1.344-.232c-.512 0-.947.11-1.304.328-.357.219-.536.568-.536 1.048 0 .192.035.352.104.48a.91.91 0 0 0 .344.336c.16.096.365.181.616.256.25.075.552.155.904.24a17.46 17.46 0 0 1 1.448.392c.41.133.752.29 1.024.472.272.181.475.395.608.64s.2.544.2.896c0 .779-.299 1.397-.896 1.856-.597.459-1.403.688-2.416.688zm9.472 0c-.693 0-1.304-.17-1.832-.512a3.886 3.886 0 0 1-1.256-1.296v5.056h-1.408v-11.76h1.248v1.568c.33-.512.76-.925 1.288-1.24a3.358 3.358 0 0 1 1.752-.472c.576 0 1.104.117 1.584.352s.896.552 1.248.952c.352.4.627.861.824 1.384.197.523.296 1.067.296 1.632 0 .597-.09 1.16-.272 1.688a4.216 4.216 0 0 1-.768 1.376 3.72 3.72 0 0 1-1.184.928 3.35 3.35 0 0 1-1.52.344zm-.432-1.216c.416 0 .792-.088 1.128-.264a2.76 2.76 0 0 0 .864-.704c.24-.293.424-.627.552-1 .128-.373.192-.757.192-1.152a3.22 3.22 0 0 0-.224-1.192 3.223 3.223 0 0 0-.608-.992 2.88 2.88 0 0 0-.904-.672 2.586 2.586 0 0 0-1.128-.248c-.256 0-.52.05-.792.152a3.507 3.507 0 0 0-.768.4c-.24.165-.448.363-.624.592-.176.23-.29.472-.344.728v2.384c.117.277.267.536.448.776a3.144 3.144 0 0 0 1.376 1.04c.267.101.544.152.832.152zm9.552 1.216c-.63 0-1.203-.117-1.72-.352a4.12 4.12 0 0 1-2.184-2.32 4.518 4.518 0 0 1-.304-1.648 4.458 4.458 0 0 1 1.176-3.04 4.12 4.12 0 0 1 1.328-.944 4.077 4.077 0 0 1 1.704-.352 4.131 4.131 0 0 1 3.048 1.296 4.458 4.458 0 0 1 1.176 3.04c0 .576-.101 1.125-.304 1.648-.203.523-.49.981-.864 1.376-.373.395-.819.71-1.336.944a4.116 4.116 0 0 1-1.72.352zm-2.768-4.304c0 .437.072.843.216 1.216a3.1 3.1 0 0 0 .592.976c.25.277.544.496.88.656.336.16.696.24 1.08.24.384 0 .744-.08 1.08-.24.336-.16.632-.381.888-.664.256-.283.456-.613.6-.992.144-.379.216-.787.216-1.224 0-.427-.072-.83-.216-1.208a3.105 3.105 0 0 0-.6-.992 2.831 2.831 0 0 0-.888-.664 2.48 2.48 0 0 0-1.08-.24c-.384 0-.744.083-1.08.248-.336.165-.63.39-.88.672-.25.283-.448.613-.592.992a3.415 3.415 0 0 0-.216 1.224zM131.776 313h-1.408v-4.672c0-.896-.136-1.547-.408-1.952-.272-.405-.685-.608-1.24-.608-.288 0-.576.056-.864.168-.288.112-.56.264-.816.456-.256.192-.48.421-.672.688-.192.267-.336.56-.432.88V313h-1.408v-8.352h1.28v1.792a3.673 3.673 0 0 1 1.432-1.408 4.082 4.082 0 0 1 2.04-.528c.48 0 .88.088 1.2.264.32.176.576.421.768.736.192.315.328.685.408 1.112.08.427.12.89.12 1.392V313zm5.12.16a6.479 6.479 0 0 1-1.984-.312 4.89 4.89 0 0 1-1.68-.904l.608-.944c.49.373.981.653 1.472.84.49.187 1.008.28 1.552.28.608 0 1.09-.12 1.448-.36.357-.24.536-.579.536-1.016a.916.916 0 0 0-.144-.52 1.211 1.211 0 0 0-.432-.376 3.53 3.53 0 0 0-.736-.288 27.45 27.45 0 0 0-1.04-.272c-.501-.128-.933-.25-1.296-.368a3.51 3.51 0 0 1-.896-.416 1.457 1.457 0 0 1-.512-.576c-.107-.224-.16-.501-.16-.832 0-.416.083-.787.248-1.112.165-.325.392-.597.68-.816a3.06 3.06 0 0 1 1.016-.496c.39-.112.808-.168 1.256-.168.63 0 1.216.101 1.76.304a4.33 4.33 0 0 1 1.376.8l-.64.848a3.594 3.594 0 0 0-1.184-.696 4.003 4.003 0 0 0-1.344-.232c-.512 0-.947.11-1.304.328-.357.219-.536.568-.536 1.048 0 .192.035.352.104.48a.91.91 0 0 0 .344.336c.16.096.365.181.616.256.25.075.552.155.904.24a17.46 17.46 0 0 1 1.448.392c.41.133.752.29 1.024.472.272.181.475.395.608.64s.2.544.2.896c0 .779-.299 1.397-.896 1.856-.597.459-1.403.688-2.416.688zm4.976-.16v-8.352h1.408V313h-1.408zm0-9.92v-1.76h1.408v1.76h-1.408zm7.968 10.08c-.65 0-1.243-.16-1.776-.48a3.632 3.632 0 0 1-1.264-1.248V313h-1.248v-11.68h1.408v4.992a4.347 4.347 0 0 1 1.296-1.312c.512-.33 1.11-.496 1.792-.496.576 0 1.093.123 1.552.368.459.245.85.568 1.176.968.325.4.576.864.752 1.392.176.528.264 1.07.264 1.624 0 .587-.101 1.141-.304 1.664-.203.523-.48.979-.832 1.368-.352.39-.77.699-1.256.928a3.605 3.605 0 0 1-1.56.344zm-.352-1.216a2.6 2.6 0 0 0 1.152-.256 2.9 2.9 0 0 0 .912-.688c.256-.288.453-.616.592-.984.139-.368.208-.755.208-1.16 0-.405-.067-.797-.2-1.176a3.212 3.212 0 0 0-.56-1 2.81 2.81 0 0 0-.864-.696 2.36 2.36 0 0 0-1.112-.264c-.299 0-.581.053-.848.16a3.12 3.12 0 0 0-1.352 1.04 4.484 4.484 0 0 0-.456.752v2.416c.053.267.168.512.344.736.176.224.384.419.624.584.24.165.496.296.768.392.272.096.536.144.792.144zM155.52 313v-8.352h1.408V313h-1.408zm0-9.92v-1.76h1.408v1.76h-1.408zm3.712-1.76h1.408v9.52c0 .31.083.552.248.728.165.176.397.264.696.264.117 0 .256-.019.416-.056a3.4 3.4 0 0 0 .448-.136l.224 1.136a4.587 4.587 0 0 1-.832.24 4.39 4.39 0 0 1-.848.096c-.544 0-.973-.155-1.288-.464-.315-.31-.472-.741-.472-1.296V301.32zm4.544 11.68v-8.352h1.408V313h-1.408zm0-9.92v-1.76h1.408v1.76h-1.408zm8 9.504a6.047 6.047 0 0 1-.808.328 4.13 4.13 0 0 1-.576.144 3.662 3.662 0 0 1-.648.056c-.512 0-.955-.141-1.328-.424-.373-.283-.56-.723-.56-1.32v-5.616h-1.136v-1.104h1.136v-2.784h1.408v2.784h1.872v1.104h-1.872v5.184c.021.31.123.533.304.672s.395.208.64.208c.277 0 .53-.045.76-.136.23-.09.387-.163.472-.216l.336 1.12zm1.312.416v-8.352h1.408V313h-1.408zm0-9.92v-1.76h1.408v1.76h-1.408zm7.376 10.08c-.63 0-1.205-.115-1.728-.344a4.086 4.086 0 0 1-1.344-.936 4.267 4.267 0 0 1-.872-1.384 4.52 4.52 0 0 1-.312-1.672c0-.587.104-1.141.312-1.664a4.22 4.22 0 0 1 .88-1.376c.379-.395.83-.707 1.352-.936a4.254 4.254 0 0 1 1.728-.344 4.087 4.087 0 0 1 3.04 1.288c.363.39.643.843.84 1.36a4.48 4.48 0 0 1 .296 1.608c0 .117-.003.224-.008.32s-.013.17-.024.224h-6.928c.032.416.128.795.288 1.136a2.886 2.886 0 0 0 1.496 1.456 2.6 2.6 0 0 0 1.032.208c.256 0 .507-.035.752-.104.245-.07.475-.163.688-.28a2.37 2.37 0 0 0 .568-.432c.165-.17.29-.363.376-.576l1.216.336a3.07 3.07 0 0 1-.568.848c-.24.256-.517.477-.832.664a4.463 4.463 0 0 1-2.248.6zm2.864-4.896a3.01 3.01 0 0 0-.92-1.952 2.797 2.797 0 0 0-1.928-.752c-.373 0-.725.067-1.056.2-.33.133-.621.32-.872.56-.25.24-.453.525-.608.856-.155.33-.248.693-.28 1.088h5.664zm5.824 4.896a6.479 6.479 0 0 1-1.984-.312 4.89 4.89 0 0 1-1.68-.904l.608-.944c.49.373.981.653 1.472.84.49.187 1.008.28 1.552.28.608 0 1.09-.12 1.448-.36.357-.24.536-.579.536-1.016a.916.916 0 0 0-.144-.52 1.211 1.211 0 0 0-.432-.376 3.53 3.53 0 0 0-.736-.288 27.45 27.45 0 0 0-1.04-.272c-.501-.128-.933-.25-1.296-.368a3.51 3.51 0 0 1-.896-.416 1.457 1.457 0 0 1-.512-.576c-.107-.224-.16-.501-.16-.832 0-.416.083-.787.248-1.112.165-.325.392-.597.68-.816a3.06 3.06 0 0 1 1.016-.496c.39-.112.808-.168 1.256-.168.63 0 1.216.101 1.76.304a4.33 4.33 0 0 1 1.376.8l-.64.848a3.594 3.594 0 0 0-1.184-.696 4.003 4.003 0 0 0-1.344-.232c-.512 0-.947.11-1.304.328-.357.219-.536.568-.536 1.048 0 .192.035.352.104.48a.91.91 0 0 0 .344.336c.16.096.365.181.616.256.25.075.552.155.904.24a17.46 17.46 0 0 1 1.448.392c.41.133.752.29 1.024.472.272.181.475.395.608.64s.2.544.2.896c0 .779-.299 1.397-.896 1.856-.597.459-1.403.688-2.416.688z" fill="#313D3A"/><path fill="#00B968" d="M0 299h16v16H0z"/><path d="M21.36 334v-11.36h3.936c.907 0 1.704.15 2.392.448a4.88 4.88 0 0 1 1.72 1.216 5.062 5.062 0 0 1 1.032 1.8c.23.688.344 1.421.344 2.2 0 .864-.128 1.645-.384 2.344a5.026 5.026 0 0 1-1.104 1.792 4.95 4.95 0 0 1-1.736 1.152c-.677.272-1.432.408-2.264.408H21.36zm7.968-5.696c0-.64-.088-1.23-.264-1.768-.176-.539-.437-1-.784-1.384a3.66 3.66 0 0 0-1.272-.904c-.501-.219-1.072-.328-1.712-.328H22.8v8.8h2.496c.65 0 1.23-.112 1.736-.336a3.48 3.48 0 0 0 1.264-.928c.336-.395.592-.861.768-1.4a5.61 5.61 0 0 0 .264-1.752zm6.96 5.856c-.63 0-1.205-.115-1.728-.344a4.086 4.086 0 0 1-1.344-.936 4.267 4.267 0 0 1-.872-1.384 4.52 4.52 0 0 1-.312-1.672c0-.587.104-1.141.312-1.664a4.22 4.22 0 0 1 .88-1.376c.379-.395.83-.707 1.352-.936a4.254 4.254 0 0 1 1.728-.344 4.087 4.087 0 0 1 3.04 1.288c.363.39.643.843.84 1.36a4.48 4.48 0 0 1 .296 1.608c0 .117-.003.224-.008.32s-.013.17-.024.224H33.52c.032.416.128.795.288 1.136a2.886 2.886 0 0 0 1.496 1.456 2.6 2.6 0 0 0 1.032.208c.256 0 .507-.035.752-.104.245-.07.475-.163.688-.28a2.37 2.37 0 0 0 .568-.432c.165-.17.29-.363.376-.576l1.216.336a3.07 3.07 0 0 1-.568.848c-.24.256-.517.477-.832.664a4.463 4.463 0 0 1-2.248.6zm2.864-4.896a3.01 3.01 0 0 0-.92-1.952 2.797 2.797 0 0 0-1.928-.752c-.373 0-.725.067-1.056.2-.33.133-.621.32-.872.56-.25.24-.453.525-.608.856-.155.33-.248.693-.28 1.088h5.664zM44.464 334l-3.296-8.352h1.456l2.64 7.12 2.656-7.12h1.344L45.968 334h-1.504zm9.888.16c-.63 0-1.205-.115-1.728-.344a4.086 4.086 0 0 1-1.344-.936 4.267 4.267 0 0 1-.872-1.384 4.52 4.52 0 0 1-.312-1.672c0-.587.104-1.141.312-1.664a4.22 4.22 0 0 1 .88-1.376c.379-.395.83-.707 1.352-.936a4.254 4.254 0 0 1 1.728-.344 4.087 4.087 0 0 1 3.04 1.288c.363.39.643.843.84 1.36a4.48 4.48 0 0 1 .296 1.608c0 .117-.003.224-.008.32s-.013.17-.024.224h-6.928c.032.416.128.795.288 1.136a2.886 2.886 0 0 0 1.496 1.456 2.6 2.6 0 0 0 1.032.208c.256 0 .507-.035.752-.104.245-.07.475-.163.688-.28a2.37 2.37 0 0 0 .568-.432c.165-.17.29-.363.376-.576l1.216.336a3.07 3.07 0 0 1-.568.848c-.24.256-.517.477-.832.664a4.463 4.463 0 0 1-2.248.6zm2.864-4.896a3.01 3.01 0 0 0-.92-1.952 2.797 2.797 0 0 0-1.928-.752c-.373 0-.725.067-1.056.2-.33.133-.621.32-.872.56-.25.24-.453.525-.608.856-.155.33-.248.693-.28 1.088h5.664zm2.928-6.944h1.408v9.52c0 .31.083.552.248.728.165.176.397.264.696.264.117 0 .256-.019.416-.056a3.4 3.4 0 0 0 .448-.136l.224 1.136a4.587 4.587 0 0 1-.832.24 4.39 4.39 0 0 1-.848.096c-.544 0-.973-.155-1.288-.464-.315-.31-.472-.741-.472-1.296V322.32zm8.192 11.84c-.63 0-1.203-.117-1.72-.352a4.12 4.12 0 0 1-2.184-2.32 4.518 4.518 0 0 1-.304-1.648 4.458 4.458 0 0 1 1.176-3.04 4.12 4.12 0 0 1 1.328-.944 4.077 4.077 0 0 1 1.704-.352 4.131 4.131 0 0 1 3.048 1.296 4.458 4.458 0 0 1 1.176 3.04c0 .576-.101 1.125-.304 1.648-.203.523-.49.981-.864 1.376-.373.395-.819.71-1.336.944a4.116 4.116 0 0 1-1.72.352zm-2.768-4.304c0 .437.072.843.216 1.216a3.1 3.1 0 0 0 .592.976c.25.277.544.496.88.656.336.16.696.24 1.08.24.384 0 .744-.08 1.08-.24.336-.16.632-.381.888-.664.256-.283.456-.613.6-.992.144-.379.216-.787.216-1.224 0-.427-.072-.83-.216-1.208a3.105 3.105 0 0 0-.6-.992 2.831 2.831 0 0 0-.888-.664 2.48 2.48 0 0 0-1.08-.24c-.384 0-.744.083-1.08.248-.336.165-.63.39-.88.672-.25.283-.448.613-.592.992a3.415 3.415 0 0 0-.216 1.224zm13.2 4.304c-.693 0-1.304-.17-1.832-.512a3.886 3.886 0 0 1-1.256-1.296v5.056h-1.408v-11.76h1.248v1.568c.33-.512.76-.925 1.288-1.24a3.358 3.358 0 0 1 1.752-.472c.576 0 1.104.117 1.584.352s.896.552 1.248.952c.352.4.627.861.824 1.384.197.523.296 1.067.296 1.632 0 .597-.09 1.16-.272 1.688a4.216 4.216 0 0 1-.768 1.376 3.72 3.72 0 0 1-1.184.928 3.35 3.35 0 0 1-1.52.344zm-.432-1.216c.416 0 .792-.088 1.128-.264a2.76 2.76 0 0 0 .864-.704c.24-.293.424-.627.552-1 .128-.373.192-.757.192-1.152a3.22 3.22 0 0 0-.224-1.192 3.223 3.223 0 0 0-.608-.992 2.88 2.88 0 0 0-.904-.672 2.586 2.586 0 0 0-1.128-.248c-.256 0-.52.05-.792.152a3.507 3.507 0 0 0-.768.4c-.24.165-.448.363-.624.592-.176.23-.29.472-.344.728v2.384c.117.277.267.536.448.776a3.144 3.144 0 0 0 1.376 1.04c.267.101.544.152.832.152zM96.832 334h-1.408v-4.672c0-.875-.141-1.52-.424-1.936-.283-.416-.701-.624-1.256-.624-.576 0-1.09.205-1.544.616-.453.41-.776.941-.968 1.592V334h-1.408v-4.672c0-.896-.139-1.547-.416-1.952-.277-.405-.693-.608-1.248-.608-.565 0-1.077.2-1.536.6-.459.4-.784.93-.976 1.592V334H84.24v-8.352h1.28v1.792c.341-.619.784-1.096 1.328-1.432a3.43 3.43 0 0 1 1.84-.504c.704 0 1.261.19 1.672.568.41.379.664.867.76 1.464.747-1.355 1.808-2.032 3.184-2.032.48 0 .883.088 1.208.264.325.176.584.421.776.736.192.315.33.685.416 1.112.085.427.128.89.128 1.392V334zm5.888.16c-.63 0-1.205-.115-1.728-.344a4.086 4.086 0 0 1-1.344-.936 4.267 4.267 0 0 1-.872-1.384 4.52 4.52 0 0 1-.312-1.672c0-.587.104-1.141.312-1.664a4.22 4.22 0 0 1 .88-1.376c.379-.395.83-.707 1.352-.936a4.254 4.254 0 0 1 1.728-.344 4.087 4.087 0 0 1 3.04 1.288c.363.39.643.843.84 1.36a4.48 4.48 0 0 1 .296 1.608c0 .117-.003.224-.008.32s-.013.17-.024.224h-6.928c.032.416.128.795.288 1.136a2.886 2.886 0 0 0 1.496 1.456 2.6 2.6 0 0 0 1.032.208c.256 0 .507-.035.752-.104.245-.07.475-.163.688-.28a2.37 2.37 0 0 0 .568-.432c.165-.17.29-.363.376-.576l1.216.336a3.07 3.07 0 0 1-.568.848c-.24.256-.517.477-.832.664a4.463 4.463 0 0 1-2.248.6zm2.864-4.896a3.01 3.01 0 0 0-.92-1.952 2.797 2.797 0 0 0-1.928-.752c-.373 0-.725.067-1.056.2-.33.133-.621.32-.872.56-.25.24-.453.525-.608.856-.155.33-.248.693-.28 1.088h5.664zM115.728 334h-1.408v-4.672c0-.896-.136-1.547-.408-1.952-.272-.405-.685-.608-1.24-.608-.288 0-.576.056-.864.168-.288.112-.56.264-.816.456-.256.192-.48.421-.672.688-.192.267-.336.56-.432.88V334h-1.408v-8.352h1.28v1.792a3.673 3.673 0 0 1 1.432-1.408 4.082 4.082 0 0 1 2.04-.528c.48 0 .88.088 1.2.264.32.176.576.421.768.736.192.315.328.685.408 1.112.08.427.12.89.12 1.392V334zm6.512-.416a6.047 6.047 0 0 1-.808.328 4.13 4.13 0 0 1-.576.144 3.662 3.662 0 0 1-.648.056c-.512 0-.955-.141-1.328-.424-.373-.283-.56-.723-.56-1.32v-5.616h-1.136v-1.104h1.136v-2.784h1.408v2.784h1.872v1.104h-1.872v5.184c.021.31.123.533.304.672s.395.208.64.208c.277 0 .53-.045.76-.136.23-.09.387-.163.472-.216l.336 1.12zm5.584.416v-11.36h4.864c.501 0 .963.104 1.384.312a3.48 3.48 0 0 1 1.088.832c.304.347.541.736.712 1.168.17.432.256.872.256 1.32 0 .395-.056.776-.168 1.144a3.54 3.54 0 0 1-.48 1 3.214 3.214 0 0 1-.752.768 2.933 2.933 0 0 1-.984.464l2.752 4.352h-1.632l-2.592-4.08h-3.008V334h-1.44zm1.44-5.36h3.44c.299 0 .568-.064.808-.192a1.92 1.92 0 0 0 .616-.52c.17-.219.304-.472.4-.76.096-.288.144-.587.144-.896 0-.32-.056-.621-.168-.904a2.653 2.653 0 0 0-.448-.752 2.028 2.028 0 0 0-.656-.512 1.78 1.78 0 0 0-.792-.184h-3.344v4.72zm12.544 5.52c-.63 0-1.205-.115-1.728-.344a4.086 4.086 0 0 1-1.344-.936 4.267 4.267 0 0 1-.872-1.384 4.52 4.52 0 0 1-.312-1.672c0-.587.104-1.141.312-1.664a4.22 4.22 0 0 1 .88-1.376c.379-.395.83-.707 1.352-.936a4.254 4.254 0 0 1 1.728-.344 4.087 4.087 0 0 1 3.04 1.288c.363.39.643.843.84 1.36a4.48 4.48 0 0 1 .296 1.608c0 .117-.003.224-.008.32s-.013.17-.024.224h-6.928c.032.416.128.795.288 1.136a2.886 2.886 0 0 0 1.496 1.456 2.6 2.6 0 0 0 1.032.208c.256 0 .507-.035.752-.104.245-.07.475-.163.688-.28a2.37 2.37 0 0 0 .568-.432c.165-.17.29-.363.376-.576l1.216.336a3.07 3.07 0 0 1-.568.848c-.24.256-.517.477-.832.664a4.463 4.463 0 0 1-2.248.6zm2.864-4.896a3.01 3.01 0 0 0-.92-1.952 2.797 2.797 0 0 0-1.928-.752c-.373 0-.725.067-1.056.2-.33.133-.621.32-.872.56-.25.24-.453.525-.608.856-.155.33-.248.693-.28 1.088h5.664zm5.824 4.896a6.479 6.479 0 0 1-1.984-.312 4.89 4.89 0 0 1-1.68-.904l.608-.944c.49.373.981.653 1.472.84.49.187 1.008.28 1.552.28.608 0 1.09-.12 1.448-.36.357-.24.536-.579.536-1.016a.916.916 0 0 0-.144-.52 1.211 1.211 0 0 0-.432-.376 3.53 3.53 0 0 0-.736-.288 27.45 27.45 0 0 0-1.04-.272c-.501-.128-.933-.25-1.296-.368a3.51 3.51 0 0 1-.896-.416 1.457 1.457 0 0 1-.512-.576c-.107-.224-.16-.501-.16-.832 0-.416.083-.787.248-1.112.165-.325.392-.597.68-.816a3.06 3.06 0 0 1 1.016-.496c.39-.112.808-.168 1.256-.168.63 0 1.216.101 1.76.304a4.33 4.33 0 0 1 1.376.8l-.64.848a3.594 3.594 0 0 0-1.184-.696 4.003 4.003 0 0 0-1.344-.232c-.512 0-.947.11-1.304.328-.357.219-.536.568-.536 1.048 0 .192.035.352.104.48a.91.91 0 0 0 .344.336c.16.096.365.181.616.256.25.075.552.155.904.24a17.46 17.46 0 0 1 1.448.392c.41.133.752.29 1.024.472.272.181.475.395.608.64s.2.544.2.896c0 .779-.299 1.397-.896 1.856-.597.459-1.403.688-2.416.688zm9.472 0c-.693 0-1.304-.17-1.832-.512a3.886 3.886 0 0 1-1.256-1.296v5.056h-1.408v-11.76h1.248v1.568c.33-.512.76-.925 1.288-1.24a3.358 3.358 0 0 1 1.752-.472c.576 0 1.104.117 1.584.352s.896.552 1.248.952c.352.4.627.861.824 1.384.197.523.296 1.067.296 1.632 0 .597-.09 1.16-.272 1.688a4.216 4.216 0 0 1-.768 1.376 3.72 3.72 0 0 1-1.184.928 3.35 3.35 0 0 1-1.52.344zm-.432-1.216c.416 0 .792-.088 1.128-.264a2.76 2.76 0 0 0 .864-.704c.24-.293.424-.627.552-1 .128-.373.192-.757.192-1.152a3.22 3.22 0 0 0-.224-1.192 3.223 3.223 0 0 0-.608-.992 2.88 2.88 0 0 0-.904-.672 2.586 2.586 0 0 0-1.128-.248c-.256 0-.52.05-.792.152a3.507 3.507 0 0 0-.768.4c-.24.165-.448.363-.624.592-.176.23-.29.472-.344.728v2.384c.117.277.267.536.448.776a3.144 3.144 0 0 0 1.376 1.04c.267.101.544.152.832.152zm9.552 1.216c-.63 0-1.203-.117-1.72-.352a4.12 4.12 0 0 1-2.184-2.32 4.518 4.518 0 0 1-.304-1.648 4.458 4.458 0 0 1 1.176-3.04 4.12 4.12 0 0 1 1.328-.944 4.077 4.077 0 0 1 1.704-.352 4.131 4.131 0 0 1 3.048 1.296 4.458 4.458 0 0 1 1.176 3.04c0 .576-.101 1.125-.304 1.648-.203.523-.49.981-.864 1.376-.373.395-.819.71-1.336.944a4.116 4.116 0 0 1-1.72.352zm-2.768-4.304c0 .437.072.843.216 1.216a3.1 3.1 0 0 0 .592.976c.25.277.544.496.88.656.336.16.696.24 1.08.24.384 0 .744-.08 1.08-.24.336-.16.632-.381.888-.664.256-.283.456-.613.6-.992.144-.379.216-.787.216-1.224 0-.427-.072-.83-.216-1.208a3.105 3.105 0 0 0-.6-.992 2.831 2.831 0 0 0-.888-.664 2.48 2.48 0 0 0-1.08-.24c-.384 0-.744.083-1.08.248-.336.165-.63.39-.88.672-.25.283-.448.613-.592.992a3.415 3.415 0 0 0-.216 1.224zM182.272 334h-1.408v-4.672c0-.896-.136-1.547-.408-1.952-.272-.405-.685-.608-1.24-.608-.288 0-.576.056-.864.168-.288.112-.56.264-.816.456-.256.192-.48.421-.672.688-.192.267-.336.56-.432.88V334h-1.408v-8.352h1.28v1.792a3.673 3.673 0 0 1 1.432-1.408 4.082 4.082 0 0 1 2.04-.528c.48 0 .88.088 1.2.264.32.176.576.421.768.736.192.315.328.685.408 1.112.08.427.12.89.12 1.392V334zm5.12.16a6.479 6.479 0 0 1-1.984-.312 4.89 4.89 0 0 1-1.68-.904l.608-.944c.49.373.981.653 1.472.84.49.187 1.008.28 1.552.28.608 0 1.09-.12 1.448-.36.357-.24.536-.579.536-1.016a.916.916 0 0 0-.144-.52 1.211 1.211 0 0 0-.432-.376 3.53 3.53 0 0 0-.736-.288 27.45 27.45 0 0 0-1.04-.272c-.501-.128-.933-.25-1.296-.368a3.51 3.51 0 0 1-.896-.416 1.457 1.457 0 0 1-.512-.576c-.107-.224-.16-.501-.16-.832 0-.416.083-.787.248-1.112.165-.325.392-.597.68-.816a3.06 3.06 0 0 1 1.016-.496c.39-.112.808-.168 1.256-.168.63 0 1.216.101 1.76.304a4.33 4.33 0 0 1 1.376.8l-.64.848a3.594 3.594 0 0 0-1.184-.696 4.003 4.003 0 0 0-1.344-.232c-.512 0-.947.11-1.304.328-.357.219-.536.568-.536 1.048 0 .192.035.352.104.48a.91.91 0 0 0 .344.336c.16.096.365.181.616.256.25.075.552.155.904.24a17.46 17.46 0 0 1 1.448.392c.41.133.752.29 1.024.472.272.181.475.395.608.64s.2.544.2.896c0 .779-.299 1.397-.896 1.856-.597.459-1.403.688-2.416.688zm4.976-.16v-8.352h1.408V334h-1.408zm0-9.92v-1.76h1.408v1.76h-1.408zm7.968 10.08c-.65 0-1.243-.16-1.776-.48a3.632 3.632 0 0 1-1.264-1.248V334h-1.248v-11.68h1.408v4.992a4.347 4.347 0 0 1 1.296-1.312c.512-.33 1.11-.496 1.792-.496.576 0 1.093.123 1.552.368.459.245.85.568 1.176.968.325.4.576.864.752 1.392.176.528.264 1.07.264 1.624 0 .587-.101 1.141-.304 1.664-.203.523-.48.979-.832 1.368-.352.39-.77.699-1.256.928a3.605 3.605 0 0 1-1.56.344zm-.352-1.216a2.6 2.6 0 0 0 1.152-.256 2.9 2.9 0 0 0 .912-.688c.256-.288.453-.616.592-.984.139-.368.208-.755.208-1.16 0-.405-.067-.797-.2-1.176a3.212 3.212 0 0 0-.56-1 2.81 2.81 0 0 0-.864-.696 2.36 2.36 0 0 0-1.112-.264c-.299 0-.581.053-.848.16a3.12 3.12 0 0 0-1.352 1.04 4.484 4.484 0 0 0-.456.752v2.416c.053.267.168.512.344.736.176.224.384.419.624.584.24.165.496.296.768.392.272.096.536.144.792.144zm6.032 1.056v-8.352h1.408V334h-1.408zm0-9.92v-1.76h1.408v1.76h-1.408zm3.712-1.76h1.408v9.52c0 .31.083.552.248.728.165.176.397.264.696.264.117 0 .256-.019.416-.056a3.4 3.4 0 0 0 .448-.136l.224 1.136a4.587 4.587 0 0 1-.832.24 4.39 4.39 0 0 1-.848.096c-.544 0-.973-.155-1.288-.464-.315-.31-.472-.741-.472-1.296V322.32zm4.544 11.68v-8.352h1.408V334h-1.408zm0-9.92v-1.76h1.408v1.76h-1.408zm8 9.504a6.047 6.047 0 0 1-.808.328 4.13 4.13 0 0 1-.576.144 3.662 3.662 0 0 1-.648.056c-.512 0-.955-.141-1.328-.424-.373-.283-.56-.723-.56-1.32v-5.616h-1.136v-1.104h1.136v-2.784h1.408v2.784h1.872v1.104h-1.872v5.184c.021.31.123.533.304.672s.395.208.64.208c.277 0 .53-.045.76-.136.23-.09.387-.163.472-.216l.336 1.12zm1.312.416v-8.352h1.408V334h-1.408zm0-9.92v-1.76h1.408v1.76h-1.408zm7.376 10.08c-.63 0-1.205-.115-1.728-.344a4.086 4.086 0 0 1-1.344-.936 4.267 4.267 0 0 1-.872-1.384 4.52 4.52 0 0 1-.312-1.672c0-.587.104-1.141.312-1.664a4.22 4.22 0 0 1 .88-1.376c.379-.395.83-.707 1.352-.936a4.254 4.254 0 0 1 1.728-.344 4.087 4.087 0 0 1 3.04 1.288c.363.39.643.843.84 1.36a4.48 4.48 0 0 1 .296 1.608c0 .117-.003.224-.008.32s-.013.17-.024.224h-6.928c.032.416.128.795.288 1.136a2.886 2.886 0 0 0 1.496 1.456 2.6 2.6 0 0 0 1.032.208c.256 0 .507-.035.752-.104.245-.07.475-.163.688-.28a2.37 2.37 0 0 0 .568-.432c.165-.17.29-.363.376-.576l1.216.336a3.07 3.07 0 0 1-.568.848c-.24.256-.517.477-.832.664a4.463 4.463 0 0 1-2.248.6zm2.864-4.896a3.01 3.01 0 0 0-.92-1.952 2.797 2.797 0 0 0-1.928-.752c-.373 0-.725.067-1.056.2-.33.133-.621.32-.872.56-.25.24-.453.525-.608.856-.155.33-.248.693-.28 1.088h5.664zm5.824 4.896a6.479 6.479 0 0 1-1.984-.312 4.89 4.89 0 0 1-1.68-.904l.608-.944c.49.373.981.653 1.472.84.49.187 1.008.28 1.552.28.608 0 1.09-.12 1.448-.36.357-.24.536-.579.536-1.016a.916.916 0 0 0-.144-.52 1.211 1.211 0 0 0-.432-.376 3.53 3.53 0 0 0-.736-.288 27.45 27.45 0 0 0-1.04-.272c-.501-.128-.933-.25-1.296-.368a3.51 3.51 0 0 1-.896-.416 1.457 1.457 0 0 1-.512-.576c-.107-.224-.16-.501-.16-.832 0-.416.083-.787.248-1.112.165-.325.392-.597.68-.816a3.06 3.06 0 0 1 1.016-.496c.39-.112.808-.168 1.256-.168.63 0 1.216.101 1.76.304a4.33 4.33 0 0 1 1.376.8l-.64.848a3.594 3.594 0 0 0-1.184-.696 4.003 4.003 0 0 0-1.344-.232c-.512 0-.947.11-1.304.328-.357.219-.536.568-.536 1.048 0 .192.035.352.104.48a.91.91 0 0 0 .344.336c.16.096.365.181.616.256.25.075.552.155.904.24a17.46 17.46 0 0 1 1.448.392c.41.133.752.29 1.024.472.272.181.475.395.608.64s.2.544.2.896c0 .779-.299 1.397-.896 1.856-.597.459-1.403.688-2.416.688z" fill="#313D3A"/><path fill="#F7D200" d="M0 320h16v16H0z"/><path d="M5.713 89.992l-.127.703h-.542V87.97h.542l.127.83H9.45c.898 0 1.544-.16 1.936-.478.392-.32.588-.77.588-1.353 0-.576-.214-1.012-.642-1.308-.428-.297-1.038-.445-1.829-.445h-3.79l-.127.806h-.542v-2.339h.542l.127.723h3.74c.694 0 1.273.115 1.736.346.464.232.808.549 1.03.953.224.403.335.869.335 1.396 0 .677-.113 1.227-.34 1.65a2.064 2.064 0 0 1-1.047.938c-.472.202-1.082.303-1.83.303H5.712zm6.148-7.603H7.769l-.195.698h-.586l-.196-1.445v-.024l.19-.23h.396l.225.005a3.034 3.034 0 0 1-.386-.564 3.802 3.802 0 0 1-.302-.727 2.545 2.545 0 0 1-.118-.735c0-.423.08-.75.237-.982.158-.23.401-.392.73-.483.329-.091.775-.137 1.338-.137h2.759l.083-.703h.532v2.451h-.532l-.083-.625H9.097c-.377 0-.674.025-.89.076a.837.837 0 0 0-.49.286c-.108.14-.163.346-.163.62 0 .234.05.478.152.732.1.254.223.477.366.669h3.789l.083-.674h.532v2.432h-.532l-.083-.64zm-3.582-6.338a2.67 2.67 0 0 1-1.1-1c-.271-.437-.406-.948-.406-1.534 0-.286.03-.581.093-.884H5.044l-.097.982h-.474l-.195-1.822v-.029l.176-.24h7.456v-.575h.507c.053.211.094.4.125.564.03.164.046.334.046.51a.983.983 0 0 1-.036.3.282.282 0 0 1-.147.166.722.722 0 0 1-.32.056h-.258c.218.199.4.44.544.726.145.284.217.6.217.95 0 .4-.101.764-.305 1.093-.203.329-.512.592-.928.789-.415.196-.923.295-1.525.295-.57 0-1.087-.116-1.55-.347zm-.632-3.418c-.081.05-.151.166-.21.352a1.984 1.984 0 0 0-.088.6c0 .489.194.88.581 1.172.388.293.995.44 1.821.44.472 0 .864-.063 1.175-.188.31-.126.54-.295.688-.508a1.25 1.25 0 0 0 .222-.73c0-.238-.052-.456-.156-.654a1.721 1.721 0 0 0-.361-.484H7.647zm.518-2.783a2.496 2.496 0 0 1-1.028-.933 2.543 2.543 0 0 1-.364-1.352c0-.625.17-1.108.513-1.45.341-.342.835-.524 1.48-.547h.175c.342 0 .602.02.781.058v3.384c.479-.013.876-.094 1.192-.244.315-.15.548-.347.698-.59.15-.245.224-.52.224-.826 0-.267-.046-.541-.139-.823a2.299 2.299 0 0 0-.32-.661l.47-.205c.126.123.247.293.36.51a3.42 3.42 0 0 1 .381 1.511c0 .547-.12 1.008-.363 1.384a2.206 2.206 0 0 1-1.016.843c-.435.185-.942.278-1.521.278-.573 0-1.08-.112-1.523-.337zm.99-3.11a3.873 3.873 0 0 0-.42-.02c-.413.003-.745.09-.995.259-.25.17-.376.436-.376.8 0 .365.136.654.407.867.272.214.734.335 1.385.364v-2.27zm2.716-2.788H7.769l-.195.693h-.586l-.196-1.396v-.025l.19-.234h.309l.634.01v-.01a2.419 2.419 0 0 1-.432-.34 2.662 2.662 0 0 1-.495-.649 1.734 1.734 0 0 1-.225-.867.85.85 0 0 1 .054-.322h1.2a.927.927 0 0 0-.09.247 1.42 1.42 0 0 0-.036.33c0 .328.04.612.12.851.08.24.18.439.3.598h3.545l.088-1.284h.522v3.164h-.527l-.078-.766zm-.982-4.654l.742-.195a.568.568 0 0 0 .196-.227 1.887 1.887 0 0 0 .21-.867c0-.368-.07-.63-.208-.786-.138-.156-.328-.234-.569-.234a.683.683 0 0 0-.447.158c-.128.106-.25.263-.363.472a8.128 8.128 0 0 0-.386.85c-.202.517-.44.894-.715 1.132-.275.238-.631.357-1.067.357a1.21 1.21 0 0 1-.774-.267 1.728 1.728 0 0 1-.52-.73 2.793 2.793 0 0 1-.186-1.044c0-.3.024-.564.071-.792.047-.227.108-.457.183-.688l.054-.176h1.235v.625l-.683.21c-.085.04-.158.144-.22.315s-.093.362-.093.574c0 .3.064.53.19.693a.602.602 0 0 0 .499.244.726.726 0 0 0 .459-.144c.123-.096.224-.215.302-.359.078-.143.171-.343.279-.6l.083-.19a7.5 7.5 0 0 1 .449-.904c.14-.231.319-.423.537-.576.218-.153.485-.23.8-.23.326 0 .613.086.86.257.248.17.44.418.576.742.137.324.205.707.205 1.15 0 .332-.045.68-.136 1.045a5.42 5.42 0 0 1-.284.874H10.89v-.689zm-3.266-4.15h-.464a3.448 3.448 0 0 0-.098-.315 1.395 1.395 0 0 0-.098-.232.825.825 0 0 0-.38-.264 6.397 6.397 0 0 0-.53-.192 7.368 7.368 0 0 0-.55-.164v-.635l1.421-.01v-1.64h.699v1.636h2.954c.397 0 .673-.012.827-.035.155-.022.254-.069.298-.139.044-.07.066-.198.066-.383v-.005c0-.17-.021-.36-.063-.574a3.098 3.098 0 0 0-.132-.495v-.005l.473-.166c.082.097.164.244.247.44.083.195.152.405.207.63.056.224.083.43.083.62v.009c0 .404-.088.708-.266.913-.177.205-.474.308-.89.308H7.622v.698zm1.225-7.432c-.306 0-.547.032-.723.096a.675.675 0 0 0-.385.33c-.082.155-.122.377-.122.663 0 .55.154 1.13.464 1.738v.005l-.508.244c-.078-.087-.18-.256-.303-.505a5.175 5.175 0 0 1-.325-.85 3.23 3.23 0 0 1-.139-.905c0-.476.064-.85.193-1.12.129-.273.334-.469.618-.59.283-.12.665-.18 1.147-.18h3.174v-.596h.478c.114.476.171.834.171 1.075 0 .136-.011.24-.034.312a.258.258 0 0 1-.139.159.777.777 0 0 1-.325.051h-.234c.172.176.338.407.496.693.157.287.236.608.236.962 0 .313-.057.597-.17.852a1.36 1.36 0 0 1-.528.61c-.237.152-.534.228-.889.228-.432 0-.789-.15-1.069-.452-.28-.301-.486-.696-.618-1.186a6.706 6.706 0 0 1-.212-1.634h-.254zm.806 0c0 .479.054.872.163 1.18.11.307.253.53.433.668a.972.972 0 0 0 .61.208c.342 0 .592-.085.752-.254.16-.17.24-.397.24-.684 0-.153-.044-.337-.13-.554a2.309 2.309 0 0 0-.315-.564H9.654zm2.207-3.056H7.769l-.195.698h-.586l-.196-1.445v-.025l.19-.23h.396l.225.006a3.034 3.034 0 0 1-.386-.564 3.802 3.802 0 0 1-.302-.728 2.545 2.545 0 0 1-.118-.735c0-.423.08-.75.237-.981.158-.231.401-.392.73-.484.329-.09.775-.136 1.338-.136h2.759l.083-.703h.532v2.45h-.532l-.083-.624H9.097c-.377 0-.674.025-.89.075a.837.837 0 0 0-.49.286c-.108.14-.163.347-.163.62 0 .235.05.479.152.733.1.253.223.476.366.669h3.789l.083-.674h.532v2.431h-.532l-.083-.64zm-3.582-6.338a2.67 2.67 0 0 1-1.1-1.001c-.271-.436-.406-.947-.406-1.533 0-.287.03-.581.093-.884H5.044l-.097.981h-.474l-.195-1.821v-.03l.176-.239h7.456v-.576h.507c.053.212.094.4.125.564.03.165.046.335.046.51a.983.983 0 0 1-.036.3.282.282 0 0 1-.147.167.722.722 0 0 1-.32.056h-.258c.218.198.4.44.544.725.145.285.217.601.217.95 0 .4-.101.765-.305 1.093-.203.33-.512.592-.928.789-.415.197-.923.295-1.525.295-.57 0-1.087-.115-1.55-.346zm-.632-3.418c-.081.049-.151.166-.21.351a1.984 1.984 0 0 0-.088.601c0 .488.194.879.581 1.172.388.293.995.44 1.821.44.472 0 .864-.063 1.175-.189.31-.125.54-.294.688-.508.148-.213.222-.456.222-.73a1.39 1.39 0 0 0-.156-.654 1.721 1.721 0 0 0-.361-.483H7.647zM1.29 9.35V3.238L.517 3.11v-.542H1.82c.163 0 .335-.005.515-.014l.354-.02c.385-.026.68-.039.89-.039 1.246 0 2.173.311 2.78.933.607.621.91 1.495.91 2.622 0 .79-.154 1.49-.463 2.1a3.448 3.448 0 0 1-1.302 1.42c-.558.339-1.2.508-1.926.508-.166 0-.444-.013-.835-.039A15.304 15.304 0 0 0 1.87 10H.464v-.532l.825-.117zm1.569.123c.148.013.315.02.5.02h.225c.482-.01.906-.138 1.272-.384s.653-.609.86-1.089c.206-.48.31-1.067.31-1.76 0-1.052-.225-1.846-.674-2.383-.45-.537-1.127-.806-2.032-.806-.198 0-.444.017-.737.05l-.151.014v6.264c.136.036.279.06.427.074zm5.935-.088V5.293l-.708-.2v-.576l1.553-.2h.024l.25.19v4.878l.78.083V10h-2.69v-.532l.79-.083zm-.007-7.217c.128-.153.308-.23.54-.23h.004a.638.638 0 0 1 .588.347.711.711 0 0 1 .081.332.814.814 0 0 1-.195.562c-.13.146-.32.22-.567.22h-.005a.603.603 0 0 1-.461-.191.673.673 0 0 1-.178-.479c0-.22.064-.408.193-.561zm3.45 6.245l.195.742a.56.56 0 0 0 .227.196 1.887 1.887 0 0 0 .867.21c.367 0 .63-.07.786-.208.156-.138.234-.328.234-.569a.683.683 0 0 0-.159-.447 1.592 1.592 0 0 0-.471-.363 8.128 8.128 0 0 0-.85-.386c-.517-.202-.895-.44-1.132-.715-.238-.276-.357-.631-.357-1.067 0-.293.089-.551.266-.774.178-.223.421-.397.73-.52.31-.124.658-.186 1.045-.186.3 0 .563.024.791.071.228.047.458.108.689.183l.175.054v1.235h-.625l-.21-.683c-.039-.085-.144-.158-.314-.22a1.677 1.677 0 0 0-.574-.093c-.3 0-.53.064-.694.19a.602.602 0 0 0-.244.499c0 .182.048.335.144.459.096.123.216.224.36.302.142.078.343.171.6.279l.19.083c.371.16.672.309.904.449.23.14.423.319.576.537.153.218.23.485.23.8 0 .326-.086.613-.257.86s-.418.44-.742.576c-.324.137-.707.205-1.15.205-.332 0-.68-.045-1.045-.136a5.42 5.42 0 0 1-.874-.284V8.413h.688zM20.751 4.6l-.049 1.504h-.679L19.8 5.19a.45.45 0 0 0-.271-.239 1.351 1.351 0 0 0-.486-.078c-.286 0-.536.079-.747.237-.212.158-.376.394-.493.708-.117.314-.176.702-.176 1.164 0 .538.07.983.21 1.338.14.355.33.617.571.786.241.17.513.254.816.254a2.42 2.42 0 0 0 1.396-.43l.21.45c-.117.12-.273.237-.469.349a3.04 3.04 0 0 1-.656.276 2.566 2.566 0 0 1-.73.107c-.55 0-1.016-.122-1.397-.366a2.263 2.263 0 0 1-.857-1.003 3.504 3.504 0 0 1-.285-1.448 3.5 3.5 0 0 1 .322-1.516 2.54 2.54 0 0 1 .957-1.082c.423-.267.934-.4 1.533-.4.469 0 .97.1 1.504.303zm4.868.073c.378.25.658.595.84 1.033.182.437.273.938.273 1.501 0 .602-.124 1.123-.373 1.563a2.57 2.57 0 0 1-.982 1 2.604 2.604 0 0 1-1.296.342c-.566 0-1.038-.125-1.414-.376a2.246 2.246 0 0 1-.837-1.032c-.182-.438-.273-.939-.273-1.502 0-.596.124-1.113.373-1.553.25-.439.576-.774.982-1.005a2.567 2.567 0 0 1 1.291-.347c.567 0 1.039.125 1.416.376zm-.447.876c-.216-.431-.559-.647-1.027-.647-.45 0-.788.185-1.016.555-.228.369-.342.922-.342 1.657 0 .733.11 1.315.33 1.746.22.431.562.647 1.028.647.901 0 1.352-.737 1.352-2.212 0-.733-.108-1.314-.325-1.746zm1.931-.583v-.518h2.442v.518l-.733.127.958 2.759.43 1.313.36-1.265.923-2.807-.673-.127v-.518h2.065v.518l-.508.132-1.885 4.98h-.918l-2.002-4.985-.459-.127zm6.475.722a2.5 2.5 0 0 1 .933-1.027 2.543 2.543 0 0 1 1.352-.364c.625 0 1.109.17 1.45.513.342.341.525.835.547 1.48v.175c0 .342-.02.602-.058.781h-3.384c.013.479.094.876.244 1.191.15.316.347.549.59.699.245.15.52.224.826.224.267 0 .541-.046.823-.139.281-.093.502-.2.661-.32l.206.47a2.027 2.027 0 0 1-.51.36 3.42 3.42 0 0 1-1.512.381c-.547 0-1.008-.121-1.384-.363a2.206 2.206 0 0 1-.842-1.016c-.186-.435-.279-.942-.279-1.521 0-.573.112-1.08.337-1.524zm3.11.992c.013-.118.02-.257.02-.42-.003-.414-.09-.746-.259-.996-.17-.251-.436-.376-.8-.376-.365 0-.654.136-.867.407-.214.272-.335.734-.364 1.385h2.27zm2.789 2.715V5.293l-.694-.195v-.586l1.397-.196h.024l.234.19v.308l-.01.635h.01a2.46 2.46 0 0 1 .34-.432c.167-.18.384-.346.65-.496.265-.15.553-.224.866-.224a.85.85 0 0 1 .322.054v1.2a.927.927 0 0 0-.246-.09 1.42 1.42 0 0 0-.33-.036c-.329 0-.613.04-.852.12-.24.08-.439.18-.598.3V9.39l1.284.088V10H38.71v-.527l.767-.078zm4.096 2.1c.04.022.119.042.24.06.12.018.234.027.341.027.196 0 .375-.04.54-.12.164-.08.331-.235.5-.466.17-.231.334-.563.493-.996h-.551L43.31 5.093l-.464-.127v-.518h2.485v.518l-.767.127.943 2.949.434 1.416.391-1.42.884-2.95-.654-.122v-.518h2.05v.518l-.498.122a254.23 254.23 0 0 1-1.145 3.494c-.294.87-.482 1.398-.564 1.584-.221.56-.43 1.003-.627 1.328a2.264 2.264 0 0 1-.684.742c-.259.17-.575.254-.95.254-.1 0-.21-.007-.327-.022a1.022 1.022 0 0 1-.244-.051v-.923zm80.081-3.643h.679l.195 1.25c.111.117.29.217.537.3.248.083.516.124.806.124.485 0 .85-.108 1.096-.324.246-.217.369-.517.369-.901 0-.25-.068-.467-.203-.647a1.847 1.847 0 0 0-.549-.476 10.15 10.15 0 0 0-.952-.479 6.794 6.794 0 0 1-.947-.517 2.632 2.632 0 0 1-.723-.723 1.819 1.819 0 0 1-.303-1.05c0-.37.1-.702.298-.993a1.97 1.97 0 0 1 .85-.684c.367-.164.796-.247 1.284-.247.3 0 .576.026.83.076s.517.115.79.193c.144.042.26.072.348.088l-.064 1.675h-.654l-.225-1.187c-.062-.068-.192-.13-.39-.188a2.329 2.329 0 0 0-.645-.085c-.879 0-1.318.354-1.318 1.064 0 .247.066.46.2.635.133.176.31.331.532.466.221.135.549.309.982.52.43.212.78.405 1.054.581.274.176.508.4.703.672.196.271.293.593.293.964 0 .358-.1.702-.3 1.033-.2.33-.501.6-.903.808-.402.208-.89.312-1.463.312-.351 0-.672-.031-.962-.095a9.705 9.705 0 0 1-.903-.246 2.676 2.676 0 0 0-.425-.113l.083-1.806zm7.852 2.224a3.676 3.676 0 0 1-.444-.086l.029.83v.967l1 .108v.527h-2.836v-.527l.727-.113V5.293l-.698-.195v-.586l1.44-.196h.025l.22.19v.557c.195-.214.436-.396.722-.544.287-.148.61-.222.972-.222.397 0 .76.097 1.089.29.329.194.592.495.791.904.199.408.298.92.298 1.535 0 .57-.117 1.09-.35 1.558-.232.469-.564.84-.995 1.116-.432.275-.934.412-1.507.412-.146 0-.307-.012-.483-.036zm-.415-.828c.045.081.157.153.334.215.178.062.377.093.598.093.316 0 .595-.084.838-.252.242-.167.434-.433.574-.796.14-.363.21-.824.21-1.384 0-.472-.063-.863-.188-1.172-.126-.31-.296-.538-.51-.686a1.268 1.268 0 0 0-.738-.222c-.231 0-.446.047-.645.142a1.528 1.528 0 0 0-.473.332v3.73zm5.38.147V5.293l-.693-.195v-.586l1.397-.196h.024l.235.19v.308l-.01.635h.01c.058-.107.171-.251.339-.432.168-.18.384-.346.65-.496.265-.15.554-.224.866-.224a.85.85 0 0 1 .322.054v1.2a.927.927 0 0 0-.246-.09 1.42 1.42 0 0 0-.33-.036c-.329 0-.613.04-.852.12-.24.08-.439.18-.598.3V9.39l1.284.088V10h-3.164v-.527l.767-.078zm4.556-.01V5.293l-.708-.2v-.576l1.553-.2h.024l.25.19v4.878l.78.083V10h-2.69v-.532l.791-.083zm-.007-7.217c.129-.153.308-.23.54-.23h.004a.638.638 0 0 1 .588.347.7.7 0 0 1 .081.332.814.814 0 0 1-.195.562c-.13.146-.319.22-.566.22h-.005a.603.603 0 0 1-.462-.191.673.673 0 0 1-.178-.479c0-.22.064-.408.193-.561zm3.318 7.217V5.293l-.698-.195v-.586l1.445-.196h.024l.23.19v.396l-.005.225a3.04 3.04 0 0 1 .564-.386c.226-.123.469-.224.727-.303.26-.078.504-.117.735-.117.424 0 .75.08.982.237.23.158.392.401.483.73.091.329.137.775.137 1.338v2.759l.703.083V10h-2.451v-.532l.625-.083V6.62c0-.378-.025-.675-.076-.891-.05-.216-.145-.38-.285-.488-.14-.11-.347-.164-.62-.164-.235 0-.48.05-.733.151a2.91 2.91 0 0 0-.669.367v3.789l.674.083V10h-2.432v-.532l.64-.083zm5.903-4.239v-.463c.091-.023.196-.056.315-.098s.196-.075.232-.098a.825.825 0 0 0 .264-.38c.049-.111.113-.288.193-.53a7.07 7.07 0 0 0 .163-.55h.635l.01 1.421h1.64v.698h-1.635v2.955c0 .397.011.673.034.827.023.155.069.254.139.298.07.044.198.066.383.066h.005c.17 0 .36-.021.574-.063.213-.043.378-.087.495-.132h.005l.166.473a1.805 1.805 0 0 1-.44.247 4.14 4.14 0 0 1-.629.207 2.607 2.607 0 0 1-.62.083h-.01c-.403 0-.708-.088-.913-.266-.205-.177-.308-.474-.308-.89V5.145h-.698zm7.725.018c.244-.477.571-.841.981-1.092.41-.25.86-.376 1.348-.376.866 0 1.497.277 1.892.83.396.554.593 1.31.593 2.27 0 .655-.116 1.232-.349 1.732-.233.5-.552.887-.96 1.162a2.378 2.378 0 0 1-1.362.413c-.58 0-1.058-.144-1.435-.43a2.45 2.45 0 0 1-.828-1.165c-.174-.49-.258-1.044-.251-1.662.003-.645.127-1.206.37-1.682zm3.29-.232c-.21-.46-.562-.689-1.054-.689-.498 0-.858.215-1.079.645-.221.43-.332 1.06-.332 1.89 0 .84.112 1.512.337 2.018.225.507.58.76 1.064.76.498 0 .853-.223 1.065-.67.211-.445.317-1.104.317-1.977 0-.86-.106-1.518-.317-1.977zm13.398 2.92h.679l.195 1.25c.111.117.29.217.537.3.248.083.516.124.806.124.485 0 .85-.108 1.096-.324.246-.217.369-.517.369-.901 0-.25-.068-.467-.203-.647a1.847 1.847 0 0 0-.549-.476 10.15 10.15 0 0 0-.952-.479 6.794 6.794 0 0 1-.947-.517 2.632 2.632 0 0 1-.723-.723 1.819 1.819 0 0 1-.303-1.05c0-.37.1-.702.298-.993a1.97 1.97 0 0 1 .85-.684c.367-.164.796-.247 1.284-.247.3 0 .576.026.83.076s.517.115.79.193c.144.042.26.072.348.088l-.064 1.675h-.654l-.225-1.187c-.062-.068-.192-.13-.39-.188a2.329 2.329 0 0 0-.645-.085c-.879 0-1.318.354-1.318 1.064 0 .247.066.46.2.635.133.176.31.331.532.466.221.135.549.309.982.52.43.212.78.405 1.054.581.274.176.508.4.703.672.196.271.293.593.293.964 0 .358-.1.702-.3 1.033-.2.33-.501.6-.903.808-.402.208-.89.312-1.463.312-.351 0-.672-.031-.962-.095a9.705 9.705 0 0 1-.903-.246 2.676 2.676 0 0 0-.425-.113l.083-1.806zm7.852 2.224a3.676 3.676 0 0 1-.444-.086l.029.83v.967l1 .108v.527h-2.836v-.527l.727-.113V5.293l-.698-.195v-.586l1.44-.196h.025l.22.19v.557c.195-.214.436-.396.722-.544.287-.148.61-.222.972-.222.397 0 .76.097 1.089.29.329.194.592.495.791.904.199.408.298.92.298 1.535 0 .57-.117 1.09-.35 1.558-.232.469-.564.84-.995 1.116-.432.275-.934.412-1.507.412-.146 0-.307-.012-.483-.036zm-.415-.828c.045.081.157.153.334.215.178.062.377.093.598.093.316 0 .595-.084.838-.252.242-.167.434-.433.574-.796.14-.363.21-.824.21-1.384 0-.472-.063-.863-.188-1.172-.126-.31-.296-.538-.51-.686a1.268 1.268 0 0 0-.738-.222c-.231 0-.446.047-.645.142a1.528 1.528 0 0 0-.473.332v3.73zm5.38.147V5.293l-.693-.195v-.586l1.397-.196h.024l.235.19v.308l-.01.635h.01c.058-.107.171-.251.339-.432.168-.18.384-.346.65-.496.265-.15.554-.224.866-.224a.85.85 0 0 1 .322.054v1.2a.927.927 0 0 0-.246-.09 1.42 1.42 0 0 0-.33-.036c-.329 0-.613.04-.852.12-.24.08-.439.18-.598.3V9.39l1.284.088V10h-3.164v-.527l.767-.078zm4.556-.01V5.293l-.708-.2v-.576l1.553-.2h.024l.25.19v4.878l.78.083V10h-2.69v-.532l.791-.083zm-.007-7.217c.129-.153.308-.23.54-.23h.004a.638.638 0 0 1 .588.347.7.7 0 0 1 .081.332.814.814 0 0 1-.195.562c-.13.146-.319.22-.566.22h-.005a.603.603 0 0 1-.462-.191.673.673 0 0 1-.178-.479c0-.22.064-.408.193-.561zm3.318 7.217V5.293l-.698-.195v-.586l1.445-.196h.024l.23.19v.396l-.005.225a3.04 3.04 0 0 1 .564-.386c.226-.123.469-.224.727-.303.26-.078.504-.117.735-.117.424 0 .75.08.982.237.23.158.392.401.483.73.091.329.137.775.137 1.338v2.759l.703.083V10h-2.451v-.532l.625-.083V6.62c0-.378-.025-.675-.076-.891-.05-.216-.145-.38-.285-.488-.14-.11-.347-.164-.62-.164-.235 0-.48.05-.733.151a2.91 2.91 0 0 0-.669.367v3.789l.674.083V10h-2.432v-.532l.64-.083zm5.903-4.239v-.463c.091-.023.196-.056.315-.098s.196-.075.232-.098a.825.825 0 0 0 .264-.38c.049-.111.113-.288.193-.53a7.07 7.07 0 0 0 .163-.55h.635l.01 1.421h1.64v.698h-1.635v2.955c0 .397.011.673.034.827.023.155.069.254.139.298.07.044.198.066.383.066h.005c.17 0 .36-.021.574-.063.213-.043.378-.087.495-.132h.005l.166.473a1.805 1.805 0 0 1-.44.247 4.14 4.14 0 0 1-.629.207 2.607 2.607 0 0 1-.62.083h-.01c-.403 0-.708-.088-.913-.266-.205-.177-.308-.474-.308-.89V5.145h-.698zm5.015 3.267l.195.742c.04.069.115.134.227.196a1.887 1.887 0 0 0 .867.21c.368 0 .63-.07.786-.208.156-.138.234-.328.234-.569a.683.683 0 0 0-.158-.447 1.592 1.592 0 0 0-.471-.363 8.128 8.128 0 0 0-.85-.386c-.518-.202-.895-.44-1.133-.715-.238-.276-.356-.631-.356-1.067 0-.293.088-.551.266-.774.177-.223.42-.397.73-.52a2.784 2.784 0 0 1 1.045-.186c.3 0 .563.024.79.071.229.047.458.108.69.183l.175.054v1.235h-.625l-.21-.683c-.04-.085-.144-.158-.315-.22a1.677 1.677 0 0 0-.574-.093c-.3 0-.53.064-.693.19a.602.602 0 0 0-.244.499c0 .182.048.335.144.459.096.123.216.224.359.302.143.078.343.171.6.279l.19.083c.372.16.673.309.904.449.231.14.423.319.576.537.153.218.23.485.23.8 0 .326-.086.613-.257.86-.17.247-.418.44-.742.576-.324.137-.707.205-1.15.205-.332 0-.68-.045-1.045-.136a5.42 5.42 0 0 1-.874-.284V8.413h.689zm8.647.933V4.932a4.68 4.68 0 0 1-.627.173 5.119 5.119 0 0 1-.681.115l-.122-.6a4.508 4.508 0 0 0 1.03-.365c.342-.167.638-.355.889-.564h.004l.64.103v5.552l1.133.122V10h-3.506v-.532l1.24-.122zm9.239-2.75v.801h-5.601v-.8h5.6zm1.86 2.794l1.694-2.163-1.65-2.134-.576-.127v-.518h2.588v.518l-.674.127.86 1.2.287.44.25-.434.898-1.206-.718-.127v-.518h2.153v.518l-.61.127-1.607 2.011 1.729 2.29.571.088V10h-2.602v-.518l.64-.092-1.187-1.739-.25.435-.902 1.299.805.097V10h-2.368v-.518l.669-.092zM48.093 71.934a3.275 3.275 0 0 1-1.35-1.208 3.221 3.221 0 0 1-.476-1.731c0-.697.152-1.285.457-1.763a2.793 2.793 0 0 1 1.291-1.077c.557-.239 1.214-.359 1.973-.359.778 0 1.462.148 2.053.442.59.295 1.047.702 1.37 1.221a3.26 3.26 0 0 1 .483 1.755c0 .677-.157 1.253-.471 1.726-.314.474-.755.831-1.323 1.072-.568.241-1.228.362-1.98.362-.769 0-1.444-.147-2.027-.44zm3.721-1.07c.482-.159.853-.39 1.113-.693.26-.302.39-.665.39-1.088 0-.414-.123-.771-.37-1.072-.248-.301-.62-.535-1.116-.7-.496-.167-1.11-.25-1.838-.25-.651 0-1.214.079-1.687.237-.474.158-.837.388-1.09.69a1.646 1.646 0 0 0-.378 1.09c0 .416.12.776.36 1.079.239.302.602.536 1.09.7.489.165 1.098.247 1.827.247.65 0 1.217-.08 1.699-.24zm-5.562-5.37h-.459l-.21-1.646v-.024l.167-.244h2.983a2.427 2.427 0 0 1-.469-.689 2.088 2.088 0 0 1-.185-.889c0-.397.096-.76.288-1.088.192-.33.492-.593.9-.791.41-.199.923-.298 1.541-.298a3.46 3.46 0 0 1 1.565.351 2.7 2.7 0 0 1 1.113 1.009c.272.437.408.948.408 1.53a5.9 5.9 0 0 1-.066.901 4.733 4.733 0 0 1-.159.716c-.061.192-.115.31-.16.356H46.35l-.098.806zm6.763-1.914c.098-.043.175-.152.232-.328.057-.175.086-.379.086-.61 0-.319-.09-.6-.269-.842-.18-.243-.448-.432-.808-.569-.36-.137-.803-.205-1.33-.205-.47 0-.86.06-1.173.183-.312.122-.543.29-.693.505-.15.215-.225.461-.225.738 0 .234.053.45.16.65.105.198.225.357.358.478h3.662zm-.82-5.44l.742-.195a.568.568 0 0 0 .195-.227 1.887 1.887 0 0 0 .21-.867c0-.368-.069-.63-.207-.786-.139-.156-.328-.234-.57-.234a.683.683 0 0 0-.446.158c-.128.106-.25.263-.364.471a8.128 8.128 0 0 0-.385.85c-.202.518-.44.895-.716 1.133-.275.238-.63.356-1.067.356-.293 0-.55-.088-.774-.266a1.728 1.728 0 0 1-.52-.73 2.793 2.793 0 0 1-.185-1.045c0-.3.024-.563.07-.79.048-.229.109-.458.184-.69l.054-.175h1.235v.625l-.684.21c-.084.04-.158.144-.22.315-.061.17-.092.362-.092.574 0 .3.063.53.19.693a.602.602 0 0 0 .498.244.726.726 0 0 0 .46-.144c.123-.096.224-.216.302-.359.078-.143.17-.343.278-.6l.083-.19a7.5 7.5 0 0 1 .45-.904c.14-.231.319-.423.537-.576.218-.153.485-.23.8-.23.326 0 .612.086.86.257.247.17.44.418.576.742.137.324.205.707.205 1.15 0 .332-.046.68-.137 1.045a5.42 5.42 0 0 1-.283.874h-1.28v-.689zm-2.725-4.575a2.496 2.496 0 0 1-1.028-.933 2.543 2.543 0 0 1-.363-1.352c0-.625.17-1.109.512-1.45.342-.342.835-.524 1.48-.547h.176c.341 0 .602.02.78.058v3.384c.48-.013.876-.094 1.192-.244.316-.15.549-.347.698-.59.15-.245.225-.52.225-.826 0-.267-.046-.541-.14-.823a2.299 2.299 0 0 0-.319-.661l.469-.206c.127.124.247.294.361.51a3.42 3.42 0 0 1 .381 1.512c0 .547-.121 1.008-.364 1.384a2.206 2.206 0 0 1-1.015.843c-.435.185-.942.278-1.521.278-.573 0-1.081-.112-1.524-.337zm.991-3.11a3.873 3.873 0 0 0-.42-.02c-.413.003-.745.09-.996.259-.25.17-.376.436-.376.8 0 .365.136.654.408.867.272.214.733.335 1.384.364v-2.27zm2.715-2.788h-4.101l-.196.693h-.586l-.195-1.397v-.024l.19-.234h.308l.635.01v-.01a2.419 2.419 0 0 1-.432-.34 2.662 2.662 0 0 1-.496-.65 1.734 1.734 0 0 1-.224-.866c0-.127.018-.234.053-.322h1.201a.927.927 0 0 0-.09.246 1.42 1.42 0 0 0-.036.33c0 .329.04.613.12.852.079.24.179.439.3.598h3.544l.088-1.284h.523v3.164h-.528l-.078-.766zm-4.428-3.37h-.518v-2.441h.518l.127.732 2.758-.957 1.314-.43-1.265-.36-2.807-.924-.127.674h-.518v-2.065h.518l.131.508 4.98 1.884v.918l-4.984 2.002-.127.46zm.722-6.474a2.496 2.496 0 0 1-1.028-.933 2.543 2.543 0 0 1-.363-1.352c0-.625.17-1.109.512-1.45.342-.342.835-.525 1.48-.547h.176c.341 0 .602.02.78.058v3.384c.48-.013.876-.094 1.192-.244.316-.15.549-.347.698-.591.15-.244.225-.52.225-.825 0-.267-.046-.541-.14-.823a2.299 2.299 0 0 0-.319-.662l.469-.205c.127.124.247.294.361.51a3.42 3.42 0 0 1 .381 1.512c0 .547-.121 1.008-.364 1.384a2.206 2.206 0 0 1-1.015.842c-.435.186-.942.279-1.521.279-.573 0-1.081-.113-1.524-.337zm.991-3.11a3.873 3.873 0 0 0-.42-.02c-.413.003-.745.09-.996.259-.25.169-.376.436-.376.8 0 .365.136.654.408.867.272.213.733.335 1.384.364v-2.27zm44.401 27.272H88.75l-.127.894h-.542v-2.94h.542l.122.894h6.118l.132-.908h.518v2.954h-.533l-.117-.894zm-3.547-3.359a2.67 2.67 0 0 1-1.101-1.001c-.27-.436-.405-.947-.405-1.533 0-.287.03-.581.092-.884h-1.82l-.099.981h-.473l-.196-1.82v-.03l.176-.24h7.456v-.576h.508c.052.212.094.4.125.564.03.165.046.335.046.51a.983.983 0 0 1-.037.3.282.282 0 0 1-.146.167.722.722 0 0 1-.32.056h-.259c.218.199.4.44.545.725.145.285.217.602.217.95 0 .4-.102.765-.305 1.094-.204.328-.513.591-.928.788-.415.197-.924.296-1.526.296-.57 0-1.086-.116-1.55-.347zm-.632-3.418c-.082.049-.152.166-.21.352a1.984 1.984 0 0 0-.088.6c0 .488.193.88.58 1.172.388.293.995.44 1.822.44.472 0 .864-.063 1.174-.189.311-.125.54-.294.689-.507.148-.214.222-.457.222-.73 0-.238-.052-.456-.156-.655a1.721 1.721 0 0 0-.362-.483h-3.671zm.517-2.783a2.496 2.496 0 0 1-1.028-.933 2.543 2.543 0 0 1-.363-1.352c0-.625.17-1.109.512-1.45.342-.342.835-.525 1.48-.547h.176c.341 0 .602.02.78.058v3.384c.48-.013.876-.094 1.192-.244.316-.15.549-.347.698-.591.15-.244.225-.52.225-.825 0-.267-.046-.541-.14-.823a2.299 2.299 0 0 0-.319-.662l.469-.205c.127.124.247.294.361.51a3.42 3.42 0 0 1 .381 1.512c0 .547-.121 1.008-.364 1.384a2.206 2.206 0 0 1-1.015.842c-.435.186-.942.279-1.521.279-.573 0-1.081-.113-1.524-.337zm.991-3.11a3.873 3.873 0 0 0-.42-.02c-.413.003-.745.09-.996.259-.25.169-.376.436-.376.8 0 .365.136.654.408.867.272.213.733.335 1.384.364v-2.27zm-.307-5.254c-.306 0-.547.031-.723.095a.675.675 0 0 0-.386.33c-.081.156-.122.377-.122.663 0 .55.155 1.13.464 1.739v.005l-.508.244c-.078-.088-.179-.257-.302-.506a5.175 5.175 0 0 1-.325-.85 3.23 3.23 0 0 1-.14-.905c0-.475.065-.849.194-1.12.128-.272.334-.469.617-.589.284-.12.666-.18 1.148-.18h3.174v-.596h.478c.114.475.171.833.171 1.074 0 .137-.011.24-.034.312a.258.258 0 0 1-.14.159.777.777 0 0 1-.324.051h-.234c.172.176.337.407.495.694.158.286.237.607.237.962 0 .312-.057.596-.17.852-.115.255-.29.459-.528.61-.238.151-.534.227-.889.227-.433 0-.79-.15-1.07-.452-.28-.3-.485-.696-.617-1.186a6.706 6.706 0 0 1-.212-1.633h-.254zm.805 0c0 .478.055.871.164 1.179.11.307.253.53.432.669a.972.972 0 0 0 .61.207c.342 0 .593-.084.752-.254.16-.169.24-.397.24-.683 0-.153-.043-.338-.13-.554a2.309 2.309 0 0 0-.315-.564H92.69zm-2.03-2.247h-.465a3.448 3.448 0 0 0-.097-.314 1.395 1.395 0 0 0-.098-.232.825.825 0 0 0-.38-.264 6.397 6.397 0 0 0-.53-.193 7.368 7.368 0 0 0-.55-.164v-.634l1.421-.01v-1.64h.698v1.635h2.954c.397 0 .673-.011.828-.034.155-.023.254-.07.298-.14.044-.07.066-.197.066-.383v-.004c0-.17-.021-.361-.064-.574a3.098 3.098 0 0 0-.132-.496v-.005l.474-.166c.081.098.164.244.247.44.083.195.152.405.207.63.055.224.083.43.083.62v.01c0 .403-.089.708-.266.913-.177.205-.474.307-.891.307h-3.804v.698zm.541-4.497a2.496 2.496 0 0 1-1.028-.932 2.543 2.543 0 0 1-.363-1.353c0-.625.17-1.108.512-1.45.342-.342.835-.524 1.48-.547h.176c.341 0 .602.02.78.059v3.384c.48-.013.876-.095 1.192-.245.316-.15.549-.346.698-.59.15-.245.225-.52.225-.826 0-.267-.046-.54-.14-.822a2.299 2.299 0 0 0-.319-.662l.469-.205c.127.124.247.294.361.51a3.42 3.42 0 0 1 .381 1.511c0 .547-.121 1.009-.364 1.385a2.206 2.206 0 0 1-1.015.842c-.435.186-.942.278-1.521.278-.573 0-1.081-.112-1.524-.337zm.991-3.11a3.873 3.873 0 0 0-.42-.02c-.413.004-.745.09-.996.26-.25.169-.376.435-.376.8 0 .365.136.654.408.867.272.213.733.334 1.384.364v-2.271zm43.404 19.647h-6.118l-.127.767h-.542v-1.206c0-.176-.01-.413-.03-.713a13.7 13.7 0 0 1-.039-1.01c0-.69.082-1.24.247-1.646.164-.407.403-.697.715-.87.313-.172.705-.258 1.177-.258.537 0 1.003.124 1.396.371.394.247.695.59.901 1.028.207.438.31.938.31 1.501 0 .176-.005.357-.014.542-.01.186-.02.301-.03.347h2.154l.112-1.318h.532v3.286h-.532l-.112-.82zm-3.152-3.24c-.311-.31-.83-.466-1.555-.466-.563 0-.969.137-1.216.41-.248.274-.371.7-.371 1.28 0 .198.013.399.039.6.016.108.024.199.024.274h3.501c.03-.156.044-.454.044-.894 0-.491-.155-.892-.466-1.203zm3.181-3.093h-6.811l-.098.801h-.464l-.21-1.665v-.01l.166-.239h7.417l.083-.83h.532v2.735h-.532l-.083-.792zm-3.013-5.898c-.306 0-.547.032-.722.095a.675.675 0 0 0-.386.33c-.081.156-.122.377-.122.664 0 .55.154 1.13.464 1.738v.005l-.508.244c-.078-.088-.18-.256-.303-.505a5.175 5.175 0 0 1-.325-.85 3.23 3.23 0 0 1-.139-.906c0-.475.065-.848.193-1.12.129-.272.335-.468.618-.589.283-.12.666-.18 1.147-.18h3.174v-.596h.479c.114.475.17.833.17 1.074 0 .137-.01.241-.034.313a.258.258 0 0 1-.139.159.777.777 0 0 1-.324.05h-.235c.173.177.338.408.496.694.158.287.237.607.237.962 0 .313-.057.597-.171.852a1.36 1.36 0 0 1-.528.61c-.237.152-.534.228-.888.228-.433 0-.79-.151-1.07-.452-.28-.301-.486-.697-.617-1.187a6.706 6.706 0 0 1-.213-1.633h-.254zm.806 0c0 .479.055.872.164 1.18.109.307.253.53.432.668a.972.972 0 0 0 .61.208c.342 0 .592-.085.752-.254.16-.17.24-.397.24-.684 0-.153-.044-.338-.13-.554a2.309 2.309 0 0 0-.315-.564h-1.753zm2.207-3.057h-4.092l-.195.699h-.586l-.195-1.446v-.024l.19-.23h.396l.224.005a3.034 3.034 0 0 1-.386-.564 3.802 3.802 0 0 1-.302-.727 2.545 2.545 0 0 1-.117-.735c0-.423.078-.75.236-.981.158-.232.402-.393.73-.484.33-.091.775-.137 1.338-.137h2.759l.083-.703h.532v2.451h-.532l-.083-.625h-2.764c-.377 0-.674.026-.89.076-.217.05-.38.146-.489.286-.11.14-.164.346-.164.62 0 .234.05.478.152.732.1.254.223.477.366.67h3.789l.083-.675h.532v2.432h-.532l-.083-.64zm49.41 100.023h-6.118l-.127.766h-.542v-1.206c0-.175-.01-.413-.03-.712a13.7 13.7 0 0 1-.038-1.011c0-.69.082-1.239.246-1.646.165-.407.403-.696.716-.869.312-.172.704-.259 1.176-.259.537 0 1.003.124 1.397.371.394.248.694.59.9 1.028.207.438.31.939.31 1.502 0 .176-.004.356-.014.542-.01.185-.02.3-.03.346h2.154l.112-1.318h.533v3.286h-.533l-.112-.82zm-3.152-3.24c-.31-.31-.829-.466-1.555-.466-.563 0-.968.137-1.216.41-.247.273-.37.7-.37 1.28 0 .198.012.398.038.6.017.107.025.198.025.273h3.5c.03-.156.045-.454.045-.893 0-.492-.156-.893-.467-1.204zm3.191-3.166h-4.101l-.196.693h-.586l-.195-1.397v-.024l.19-.234h.308l.635.01v-.01a2.419 2.419 0 0 1-.432-.34 2.662 2.662 0 0 1-.496-.65 1.734 1.734 0 0 1-.224-.866c0-.127.017-.234.053-.322h1.201a.927.927 0 0 0-.09.247 1.42 1.42 0 0 0-.036.33c0 .328.04.612.12.851.079.24.179.439.3.598h3.544l.088-1.284h.523v3.164h-.528l-.078-.766zm-4.721-7.832a2.24 2.24 0 0 1 1.032-.84c.438-.183.939-.274 1.502-.274.602 0 1.123.125 1.562.374.44.249.773.576 1.001.981.228.406.342.838.342 1.297 0 .566-.125 1.037-.376 1.413-.25.376-.595.655-1.033.838-.438.182-.938.273-1.501.273-.596 0-1.113-.124-1.553-.373a2.605 2.605 0 0 1-1.006-.982 2.567 2.567 0 0 1-.346-1.291c0-.567.125-1.039.376-1.416zm.876.446c-.431.217-.647.56-.647 1.028 0 .45.185.788.554 1.016.37.228.922.342 1.658.342.732 0 1.314-.11 1.746-.33.43-.22.647-.562.647-1.028 0-.902-.738-1.352-2.212-1.352-.733 0-1.315.108-1.746.324zm-.403-2.273h-.464a3.448 3.448 0 0 0-.097-.315 1.395 1.395 0 0 0-.098-.231.825.825 0 0 0-.38-.264 6.397 6.397 0 0 0-.53-.193 7.368 7.368 0 0 0-.55-.164v-.634l1.421-.01v-1.64h.698v1.635h2.954c.397 0 .673-.011.828-.034.155-.023.254-.07.298-.14.044-.07.066-.197.066-.383v-.005c0-.169-.021-.36-.064-.573a3.098 3.098 0 0 0-.132-.496v-.005l.474-.166c.081.098.164.244.247.44.083.195.152.405.207.63.055.224.083.43.083.62v.01c0 .403-.089.707-.266.913-.177.205-.474.307-.891.307h-3.804v.698zm-.473-8.193a2.24 2.24 0 0 1 1.032-.84c.438-.182.939-.273 1.502-.273.602 0 1.123.124 1.562.373.44.25.773.576 1.001.982a2.6 2.6 0 0 1 .342 1.296c0 .567-.125 1.038-.376 1.414a2.24 2.24 0 0 1-1.033.837c-.438.182-.938.274-1.501.274-.596 0-1.113-.125-1.553-.374a2.605 2.605 0 0 1-1.006-.981 2.567 2.567 0 0 1-.346-1.292c0-.566.125-1.038.376-1.416zm.876.447c-.431.216-.647.559-.647 1.028 0 .449.185.787.554 1.015.37.228.922.342 1.658.342.732 0 1.314-.11 1.746-.33.43-.22.647-.562.647-1.027 0-.902-.738-1.353-2.212-1.353-.733 0-1.315.108-1.746.325zm-.403-2.273h-.464a3.448 3.448 0 0 0-.097-.315 1.395 1.395 0 0 0-.098-.232.825.825 0 0 0-.38-.264 6.397 6.397 0 0 0-.53-.193 7.368 7.368 0 0 0-.55-.163v-.635l1.421-.01v-1.64h.698v1.635h2.954c.397 0 .673-.01.828-.034.155-.022.254-.069.298-.139.044-.07.066-.198.066-.383v-.005c0-.17-.021-.36-.064-.574a3.098 3.098 0 0 0-.132-.495v-.005l.474-.166c.081.097.164.244.247.44.083.194.152.404.207.63.055.224.083.43.083.62v.009c0 .404-.089.708-.266.913-.177.205-.474.308-.891.308h-3.804v.698zm6.348-4.458a.778.778 0 0 0 .06-.24 2.33 2.33 0 0 0 .028-.341c0-.195-.04-.375-.12-.54-.08-.164-.235-.33-.466-.5-.231-.17-.563-.334-.996-.493v.551l-4.908 1.827-.126.463h-.518v-2.485h.518l.126.767 2.95-.943 1.416-.434-1.421-.39-2.95-.885-.121.655h-.518v-2.051h.518l.122.498c1.458.469 2.622.85 3.493 1.145.871.294 1.4.482 1.585.564.56.221 1.002.43 1.328.627.325.197.573.425.742.684.17.259.254.575.254.95 0 .1-.007.21-.022.327a1.022 1.022 0 0 1-.051.244h-.923zm-1.419-7.622a3.676 3.676 0 0 1-.085.444l.83-.03h.967l.107-1h.528v2.837h-.528l-.112-.728h-6.49l-.195.698h-.586l-.195-1.44v-.024l.19-.22h.557a2.542 2.542 0 0 1-.544-.723 2.084 2.084 0 0 1-.222-.971c0-.398.096-.76.29-1.09.194-.328.495-.592.903-.79.409-.199.92-.298 1.536-.298.57 0 1.089.116 1.558.349.468.233.84.565 1.115.996.275.431.413.933.413 1.506 0 .147-.012.308-.037.484zm-.827.415c.081-.046.153-.157.215-.335a1.81 1.81 0 0 0 .092-.598 1.43 1.43 0 0 0-.251-.837c-.168-.243-.433-.434-.796-.574-.363-.14-.824-.21-1.384-.21-.472 0-.863.063-1.172.188-.31.125-.538.296-.686.51a1.27 1.27 0 0 0-.222.738c0 .23.047.446.141.644.095.199.205.357.332.474h3.73zm-3.56-4.912a2.496 2.496 0 0 1-1.028-.933 2.543 2.543 0 0 1-.363-1.352c0-.625.17-1.109.512-1.45.342-.342.835-.525 1.48-.547h.176c.341 0 .602.019.78.058v3.384c.48-.013.876-.095 1.192-.244.316-.15.549-.347.698-.591.15-.244.225-.52.225-.825 0-.267-.046-.541-.14-.823a2.299 2.299 0 0 0-.319-.662l.469-.205c.127.124.247.294.361.51a3.42 3.42 0 0 1 .381 1.512c0 .547-.121 1.008-.364 1.384a2.206 2.206 0 0 1-1.015.842c-.435.186-.942.279-1.521.279-.573 0-1.081-.113-1.524-.337zm.991-3.11a3.873 3.873 0 0 0-.42-.02c-.413.003-.745.09-.996.259-.25.169-.376.436-.376.8 0 .365.136.654.408.867.272.213.733.335 1.384.364v-2.27zm-4.487-5.533l9.58 2.686v.937l-9.58-2.685v-.938zm2.954-.669h-.464a3.448 3.448 0 0 0-.097-.315 1.395 1.395 0 0 0-.098-.232.825.825 0 0 0-.38-.263 6.397 6.397 0 0 0-.53-.193 7.368 7.368 0 0 0-.55-.164v-.635l1.421-.01v-1.64h.698V84.8h2.954c.397 0 .673-.012.828-.034.155-.023.254-.07.298-.14.044-.07.066-.197.066-.383v-.005c0-.169-.021-.36-.064-.573a3.098 3.098 0 0 0-.132-.496v-.005l.474-.166c.081.098.164.244.247.44.083.195.152.405.207.63.055.224.083.43.083.62v.01c0 .403-.089.707-.266.912-.177.205-.474.308-.891.308h-3.804v.698zm.542-4.497a2.496 2.496 0 0 1-1.028-.932 2.543 2.543 0 0 1-.363-1.353c0-.625.17-1.108.512-1.45.342-.342.835-.524 1.48-.547h.176c.341 0 .602.02.78.059v3.383c.48-.013.876-.094 1.192-.244.316-.15.549-.347.698-.59.15-.245.225-.52.225-.826 0-.267-.046-.541-.14-.823a2.299 2.299 0 0 0-.319-.661l.469-.205c.127.123.247.293.361.51a3.42 3.42 0 0 1 .381 1.511c0 .547-.121 1.008-.364 1.384a2.206 2.206 0 0 1-1.015.843c-.435.185-.942.278-1.521.278-.573 0-1.081-.112-1.524-.337zm.991-3.11a3.873 3.873 0 0 0-.42-.02c-.413.004-.745.09-.996.259-.25.17-.376.436-.376.8 0 .365.136.654.408.868.272.213.733.334 1.384.363v-2.27zm1.734-2.837l.742-.195a.568.568 0 0 0 .195-.227 1.887 1.887 0 0 0 .21-.867c0-.368-.069-.63-.207-.786-.139-.157-.328-.235-.57-.235a.683.683 0 0 0-.446.159c-.128.106-.25.263-.364.471a8.128 8.128 0 0 0-.385.85c-.202.517-.44.895-.716 1.133-.275.237-.63.356-1.067.356-.293 0-.55-.089-.774-.266a1.728 1.728 0 0 1-.52-.73 2.793 2.793 0 0 1-.185-1.045c0-.3.023-.563.07-.791.048-.228.109-.457.184-.688l.054-.176h1.235v.625l-.684.21c-.084.039-.158.144-.22.315-.061.17-.092.362-.092.573 0 .3.063.531.19.694a.602.602 0 0 0 .498.244.726.726 0 0 0 .46-.144c.123-.096.224-.216.302-.359.078-.143.17-.343.278-.6l.083-.191a7.5 7.5 0 0 1 .45-.903 1.9 1.9 0 0 1 .537-.577c.218-.153.485-.229.8-.229.326 0 .612.085.86.256.247.171.44.419.576.743.137.323.205.707.205 1.15 0 .331-.046.68-.137 1.044a5.42 5.42 0 0 1-.283.874h-1.28v-.688zm-3.267-4.15h-.464a3.448 3.448 0 0 0-.097-.315 1.395 1.395 0 0 0-.098-.232.825.825 0 0 0-.38-.264 6.397 6.397 0 0 0-.53-.193 7.368 7.368 0 0 0-.55-.164v-.634l1.421-.01v-1.64h.698v1.635h2.954c.397 0 .673-.011.828-.034.155-.023.254-.07.298-.14.044-.07.066-.197.066-.383v-.004c0-.17-.021-.361-.064-.574a3.098 3.098 0 0 0-.132-.496v-.005l.474-.166c.081.098.164.244.247.44.083.195.152.405.207.63.055.224.083.431.083.62v.01c0 .403-.089.708-.266.913-.177.205-.474.307-.891.307h-3.804v.698zm-2.954-7.71l9.58 2.685v.938l-9.58-2.686v-.937zm7.202-1.563h-4.101l-.196.693h-.586l-.195-1.396v-.025l.19-.234h.308l.635.01v-.01a2.419 2.419 0 0 1-.432-.34 2.662 2.662 0 0 1-.496-.649 1.734 1.734 0 0 1-.224-.866c0-.127.017-.235.053-.323h1.201a.927.927 0 0 0-.09.247 1.42 1.42 0 0 0-.036.33c0 .328.04.612.12.852.079.239.179.438.3.598h3.544l.088-1.284h.523v3.164h-.528l-.078-.767zm-3.706-4.136a2.496 2.496 0 0 1-1.028-.932 2.543 2.543 0 0 1-.363-1.353c0-.625.17-1.108.512-1.45.342-.342.835-.524 1.48-.547h.176c.341 0 .602.02.78.059v3.383c.48-.013.876-.094 1.192-.244.316-.15.549-.346.698-.59.15-.245.225-.52.225-.826 0-.267-.046-.54-.14-.822a2.299 2.299 0 0 0-.319-.662l.469-.205c.127.124.247.294.361.51a3.42 3.42 0 0 1 .381 1.511c0 .547-.121 1.009-.364 1.385a2.206 2.206 0 0 1-1.015.842c-.435.185-.942.278-1.521.278-.573 0-1.081-.112-1.524-.337zm.991-3.11a3.873 3.873 0 0 0-.42-.02c-.413.004-.745.09-.996.26-.25.168-.376.435-.376.8 0 .365.136.653.408.867.272.213.733.334 1.384.363v-2.27zm2.7-2.827h-4.218v.932h-.484l-.22-.932h-.448a2.23 2.23 0 0 1-1.143-.308 2.396 2.396 0 0 1-.837-.8 1.892 1.892 0 0 1-.284-1.365c.018-.106.037-.187.056-.242h1.094c-.055.055-.112.173-.17.354a1.67 1.67 0 0 0-.089.53c0 .25.074.433.223.547.148.114.4.17.754.17l.845-.004v-1.343h.703v1.343h4.223l.088-1.06h.528v3.003h-.528l-.092-.825zm-7.211-3.914c-.153-.128-.23-.308-.23-.54v-.004a.638.638 0 0 1 .347-.588.714.714 0 0 1 .332-.081c.228 0 .415.065.561.195.147.13.22.32.22.567v.004a.603.603 0 0 1-.19.462.673.673 0 0 1-.479.178.843.843 0 0 1-.561-.193zm7.216-.041h-4.091l-.2.708h-.577l-.2-1.553v-.024l.19-.25h4.878l.083-.78h.533v2.69h-.533l-.083-.791zm0-3.31h-4.091l-.196.697h-.586l-.195-1.445v-.024l.19-.23h.396l.225.005a3.034 3.034 0 0 1-.386-.564 3.802 3.802 0 0 1-.303-.727 2.545 2.545 0 0 1-.117-.735c0-.423.079-.75.237-.982.158-.23.401-.392.73-.483.329-.091.775-.137 1.338-.137h2.758l.083-.703h.533v2.451h-.533l-.083-.625H182.3c-.378 0-.675.025-.891.076-.217.05-.38.146-.489.286-.109.14-.163.346-.163.62 0 .234.05.478.151.732.101.254.223.477.366.669h3.79l.082-.674h.533v2.432h-.533l-.083-.64zm-3.696-6.329a2.496 2.496 0 0 1-1.028-.933 2.543 2.543 0 0 1-.363-1.352c0-.625.17-1.109.512-1.45.342-.342.835-.524 1.48-.547h.176c.341 0 .602.02.78.058v3.384c.48-.013.876-.094 1.192-.244.316-.15.549-.347.698-.59.15-.245.225-.52.225-.826 0-.267-.046-.541-.14-.823a2.299 2.299 0 0 0-.319-.661l.469-.205c.127.123.247.293.361.51a3.42 3.42 0 0 1 .381 1.511c0 .547-.121 1.008-.364 1.384a2.206 2.206 0 0 1-1.015.843c-.435.185-.942.278-1.521.278-.573 0-1.081-.112-1.524-.337zm.991-3.11a3.873 3.873 0 0 0-.42-.02c-.413.003-.745.09-.996.259-.25.17-.376.436-.376.8 0 .365.136.654.408.867.272.214.733.335 1.384.364v-2.27zM12.137 282.548H6.019l-.123.806h-.542v-5.088l1.548-.137v.63l-.927.303-.064 2.338H8.67l-.03-1.587-.81-.146v-.63h2.315v.63l-.86.142-.024 1.591h2.92l-.108-2.685-1.225-.552.185-.625 1.753.288v5.542h-.532l-.117-.82zm.034-6.387H8.079l-.195.698h-.586l-.195-1.445v-.024l.19-.23h.395l.225.005a3.034 3.034 0 0 1-.386-.564 3.802 3.802 0 0 1-.302-.727 2.545 2.545 0 0 1-.118-.735c0-.424.08-.75.237-.982.158-.23.401-.392.73-.483.329-.091.775-.137 1.338-.137h2.759l.083-.703h.532v2.451h-.532l-.083-.625H9.407c-.377 0-.674.025-.89.076a.84.84 0 0 0-.49.285c-.108.14-.163.347-.163.62 0 .235.05.48.152.733.1.254.223.477.366.669h3.789l.083-.674h.532v2.432h-.532l-.083-.64zM7.752 270.6h-.518v-2.442h.518l.127.733 2.759-.957 1.313-.43-1.264-.361-2.808-.923-.127.674h-.518v-2.066h.518l.132.508 4.98 1.885v.918L7.88 270.14l-.127.459zm4.419-6.895H8.079l-.2.708h-.576l-.2-1.553v-.024l.19-.25h4.878l.083-.78h.532v2.69h-.532l-.083-.79zm-7.217.007c-.153-.128-.23-.308-.23-.54v-.004a.638.638 0 0 1 .347-.588.714.714 0 0 1 .332-.081c.228 0 .415.065.562.195.146.13.22.32.22.567v.005a.603.603 0 0 1-.19.461.673.673 0 0 1-.48.178.843.843 0 0 1-.56-.193zm6.245-3.45l.742-.195a.568.568 0 0 0 .196-.227 1.887 1.887 0 0 0 .21-.867c0-.367-.07-.63-.208-.786-.138-.156-.328-.234-.569-.234a.683.683 0 0 0-.446.159c-.129.106-.25.263-.364.471a8.128 8.128 0 0 0-.386.85c-.202.517-.44.895-.715 1.132-.275.238-.631.357-1.067.357a1.21 1.21 0 0 1-.774-.266 1.728 1.728 0 0 1-.52-.73 2.793 2.793 0 0 1-.186-1.045c0-.3.024-.563.071-.791.047-.228.108-.458.183-.689l.054-.175h1.235v.625l-.683.21c-.085.039-.158.144-.22.314a1.678 1.678 0 0 0-.093.574c0 .3.064.53.19.694a.602.602 0 0 0 .499.244.726.726 0 0 0 .459-.144c.123-.096.224-.216.302-.36a6.74 6.74 0 0 0 .279-.6l.083-.19a7.5 7.5 0 0 1 .449-.904c.14-.23.319-.423.537-.576.218-.153.485-.23.8-.23.326 0 .613.086.86.257.248.171.44.418.576.742.137.324.205.708.205 1.15 0 .332-.045.68-.136 1.045a5.42 5.42 0 0 1-.283.874h-1.28v-.688zm.972-4.994H8.079l-.2.708h-.576l-.2-1.553v-.025l.19-.249h4.878l.083-.78h.532v2.69h-.532l-.083-.791zm-7.217.007c-.153-.129-.23-.309-.23-.54v-.005a.638.638 0 0 1 .347-.588.714.714 0 0 1 .332-.08c.228 0 .415.065.562.195.146.13.22.319.22.566v.005a.603.603 0 0 1-.19.462.673.673 0 0 1-.48.178.843.843 0 0 1-.56-.193zm2.505-6.629a2.24 2.24 0 0 1 1.033-.84c.438-.182.938-.273 1.501-.273.602 0 1.123.125 1.563.374.44.249.773.576 1 .981.229.405.342.838.342 1.297 0 .566-.125 1.037-.376 1.413-.25.376-.594.655-1.032.838-.438.182-.939.273-1.502.273-.595 0-1.113-.125-1.552-.374a2.605 2.605 0 0 1-1.006-.981 2.567 2.567 0 0 1-.347-1.292c0-.566.125-1.038.376-1.416zm.876.447c-.43.217-.647.56-.647 1.028 0 .45.185.788.555 1.016.37.228.922.342 1.657.342.733 0 1.315-.11 1.746-.33.431-.22.647-.562.647-1.028 0-.902-.737-1.352-2.212-1.352-.732 0-1.314.108-1.746.324zm3.836-3.083H8.079l-.195.698h-.586l-.195-1.445v-.025l.19-.23h.395l.225.006a3.034 3.034 0 0 1-.386-.564 3.802 3.802 0 0 1-.302-.728 2.545 2.545 0 0 1-.118-.735c0-.423.08-.75.237-.981.158-.231.401-.392.73-.484.329-.09.775-.136 1.338-.136h2.759l.083-.703h.532v2.45h-.532l-.083-.624H9.407c-.377 0-.674.025-.89.075a.837.837 0 0 0-.49.286c-.108.14-.163.347-.163.62 0 .235.05.479.152.733.1.254.223.477.366.669h3.789l.083-.674h.532v2.431h-.532l-.083-.64zm61.589 35.942h-6.113l-.126.772h-.542v-1.304a9.31 9.31 0 0 0-.015-.515l-.02-.354c-.026-.384-.039-.68-.039-.889 0-1.247.311-2.174.933-2.78.622-.608 1.496-.911 2.622-.911.791 0 1.49.154 2.1.464a3.45 3.45 0 0 1 1.42 1.3c.339.56.508 1.201.508 1.927 0 .166-.013.444-.039.835-.026.404-.039.695-.039.874v1.406h-.532l-.117-.825zm.123-1.57c.013-.148.02-.315.02-.5v-.225a2.316 2.316 0 0 0-.384-1.272c-.246-.366-.609-.652-1.089-.86-.48-.206-1.067-.31-1.76-.31-1.052 0-1.846.225-2.383.675-.537.449-.806 1.126-.806 2.03 0 .2.017.445.05.738l.014.152h6.265c.035-.137.06-.28.073-.428zm-3.784-5.515a2.496 2.496 0 0 1-1.028-.932 2.543 2.543 0 0 1-.364-1.353c0-.625.17-1.108.513-1.45.342-.342.835-.524 1.48-.547h.175c.342 0 .602.02.781.059v3.383c.479-.013.876-.094 1.192-.244.315-.15.548-.346.698-.59.15-.245.225-.52.225-.826a2.62 2.62 0 0 0-.14-.823 2.299 2.299 0 0 0-.32-.661l.47-.205c.126.123.247.294.36.51a3.42 3.42 0 0 1 .381 1.511c0 .547-.12 1.009-.363 1.384a2.206 2.206 0 0 1-1.016.843c-.435.185-.941.278-1.52.278-.574 0-1.082-.112-1.524-.337zm.99-3.11a3.873 3.873 0 0 0-.42-.02c-.412.004-.745.09-.995.26-.25.168-.376.435-.376.8 0 .364.136.653.408.867.271.213.733.334 1.384.363v-2.27zm2.701-2.827h-4.219v.932h-.483l-.22-.932h-.45c-.41 0-.79-.103-1.142-.308a2.396 2.396 0 0 1-.837-.8 1.892 1.892 0 0 1-.283-1.365c.018-.106.036-.187.056-.242h1.094c-.056.055-.113.173-.171.354-.059.18-.088.357-.088.53 0 .25.074.433.222.547.148.113.4.17.754.17l.845-.004v-1.343h.703v1.343h4.224l.088-1.06h.527v3.003h-.527l-.093-.825zm-7.212-3.914c-.153-.128-.23-.308-.23-.54v-.004a.638.638 0 0 1 .347-.588.714.714 0 0 1 .332-.081c.228 0 .415.065.562.195.146.13.22.32.22.566v.005a.603.603 0 0 1-.19.462.673.673 0 0 1-.48.178.843.843 0 0 1-.56-.193zm7.217-.041h-4.092l-.2.708h-.576l-.2-1.553v-.025l.19-.249h4.878l.083-.78h.532v2.69h-.532l-.083-.791zm0-3.31h-4.092l-.195.697h-.586l-.195-1.445v-.024l.19-.23h.396l.224.005a3.034 3.034 0 0 1-.386-.564 3.802 3.802 0 0 1-.302-.728 2.545 2.545 0 0 1-.118-.734c0-.424.08-.75.237-.982.158-.231.401-.392.73-.483.329-.091.775-.137 1.338-.137h2.759l.083-.703h.532v2.451h-.532l-.083-.625H71.03c-.377 0-.674.025-.89.076-.217.05-.38.145-.49.285-.108.14-.163.347-.163.62 0 .235.05.479.152.733.1.254.223.477.366.669h3.789l.083-.674h.532v2.432h-.532l-.083-.64zm-3.696-6.33a2.496 2.496 0 0 1-1.028-.932 2.543 2.543 0 0 1-.364-1.352c0-.625.17-1.109.513-1.45.342-.342.835-.525 1.48-.547h.175c.342 0 .602.02.781.058v3.384c.479-.013.876-.094 1.192-.244.315-.15.548-.347.698-.59.15-.245.225-.52.225-.826a2.62 2.62 0 0 0-.14-.823 2.299 2.299 0 0 0-.32-.661l.47-.206c.126.124.247.294.36.51a3.42 3.42 0 0 1 .381 1.512c0 .547-.12 1.008-.363 1.384a2.206 2.206 0 0 1-1.016.843c-.435.185-.941.278-1.52.278-.574 0-1.082-.112-1.524-.337zm.99-3.11a3.873 3.873 0 0 0-.42-.019c-.412.003-.745.09-.995.259-.25.17-.376.436-.376.8 0 .365.136.654.408.867.271.214.733.335 1.384.364v-2.27zm64.506 29.629h-6.118l-.127.767h-.542v-1.206c0-.176-.01-.413-.03-.713a13.7 13.7 0 0 1-.039-1.01c0-.69.082-1.24.247-1.646.164-.407.403-.697.715-.87.313-.172.705-.258 1.177-.258.537 0 1.003.124 1.396.371.394.247.695.59.901 1.028.207.438.31.938.31 1.501 0 .176-.005.357-.014.542-.01.186-.02.301-.03.347h2.154l.112-1.318h.532v3.286h-.532l-.112-.82zm-3.152-3.24c-.311-.31-.83-.466-1.555-.466-.563 0-.969.137-1.216.41-.248.274-.371.7-.371 1.28 0 .198.013.399.039.6.016.108.024.199.024.274h3.501c.03-.156.044-.454.044-.894 0-.491-.155-.892-.466-1.203zm3.181-3.093h-6.811l-.098.801h-.464l-.21-1.665v-.01l.166-.239h7.417l.083-.83h.532v2.735h-.532l-.083-.792zm-3.013-5.898c-.306 0-.547.032-.722.095a.675.675 0 0 0-.386.33c-.081.156-.122.377-.122.664 0 .55.154 1.13.464 1.738v.005l-.508.244c-.078-.088-.18-.256-.303-.505a5.175 5.175 0 0 1-.325-.85 3.23 3.23 0 0 1-.139-.906c0-.475.065-.848.193-1.12.129-.272.335-.468.618-.589.283-.12.666-.18 1.147-.18h3.174v-.596h.479c.114.475.17.833.17 1.074 0 .137-.01.241-.034.313a.258.258 0 0 1-.139.159.777.777 0 0 1-.324.05h-.235c.173.177.338.408.496.694.158.287.237.607.237.962 0 .313-.057.597-.171.852a1.36 1.36 0 0 1-.528.61c-.237.152-.534.228-.888.228-.433 0-.79-.151-1.07-.452-.28-.301-.486-.697-.617-1.187a6.706 6.706 0 0 1-.213-1.633h-.254zm.806 0c0 .479.055.872.164 1.18.109.307.253.53.432.668a.972.972 0 0 0 .61.208c.342 0 .592-.085.752-.254.16-.17.24-.397.24-.684 0-.153-.044-.338-.13-.554a2.309 2.309 0 0 0-.315-.564h-1.753zm2.207-3.057h-4.092l-.195.699h-.586l-.195-1.446v-.024l.19-.23h.396l.224.005a3.034 3.034 0 0 1-.386-.564 3.802 3.802 0 0 1-.302-.727 2.545 2.545 0 0 1-.117-.735c0-.423.078-.75.236-.981.158-.232.402-.393.73-.484.33-.091.775-.137 1.338-.137h2.759l.083-.703h.532v2.451h-.532l-.083-.625h-2.764c-.377 0-.674.026-.89.076-.217.05-.38.146-.489.286-.11.14-.164.346-.164.62 0 .234.05.478.152.732.1.254.223.477.366.67h3.789l.083-.675h.532v2.432h-.532l-.083-.64zm50.696 16.014h-6.113l-.127.893h-.542v-2.94h.542l.122.894h6.118l.132-.908h.517v2.954h-.532l-.117-.893zm-4.204-2.925h-.464a3.448 3.448 0 0 0-.098-.315 1.395 1.395 0 0 0-.097-.232.825.825 0 0 0-.381-.264 6.397 6.397 0 0 0-.53-.193 7.368 7.368 0 0 0-.55-.163v-.635l1.421-.01v-1.64h.699v1.635h2.954c.397 0 .673-.011.827-.034.155-.023.254-.069.298-.139.044-.07.066-.198.066-.383v-.005c0-.17-.02-.36-.063-.574a3.098 3.098 0 0 0-.132-.495v-.005l.474-.166c.08.097.163.244.246.44.083.194.152.404.208.629.055.225.083.431.083.62v.01c0 .403-.089.708-.266.913-.178.205-.475.308-.892.308h-3.803v.698zm.542-4.497a2.496 2.496 0 0 1-1.028-.933 2.543 2.543 0 0 1-.364-1.352c0-.625.171-1.109.513-1.45.342-.342.835-.525 1.48-.548h.175c.342 0 .602.02.781.06v3.383c.479-.013.876-.095 1.192-.244.315-.15.548-.347.698-.591.15-.244.225-.52.225-.825a2.62 2.62 0 0 0-.14-.823 2.299 2.299 0 0 0-.32-.662l.47-.205c.126.124.247.294.36.51a3.42 3.42 0 0 1 .382 1.512c0 .547-.122 1.008-.364 1.384a2.206 2.206 0 0 1-1.016.842c-.434.186-.941.279-1.52.279-.574 0-1.082-.113-1.524-.337zm.99-3.11a3.873 3.873 0 0 0-.419-.02c-.413.003-.745.09-.996.259-.25.169-.376.436-.376.8 0 .365.136.654.408.867.271.213.733.335 1.384.364v-2.27zm2.716-2.789h-4.102l-.195.694h-.586l-.195-1.397v-.024l.19-.235h.308l.634.01v-.01a2.419 2.419 0 0 1-.432-.339 2.662 2.662 0 0 1-.495-.65 1.734 1.734 0 0 1-.225-.866.85.85 0 0 1 .054-.322h1.201a.927.927 0 0 0-.09.246 1.42 1.42 0 0 0-.037.33c0 .329.04.613.12.852.08.24.18.438.3.598h3.545l.088-1.284h.522v3.164h-.527l-.078-.767zm-3.023-7.07c-.306 0-.547.032-.722.095a.675.675 0 0 0-.386.33c-.081.156-.122.377-.122.664 0 .55.154 1.13.464 1.738v.005l-.508.244c-.078-.088-.18-.256-.303-.505a5.175 5.175 0 0 1-.325-.85 3.23 3.23 0 0 1-.139-.906c0-.475.065-.848.193-1.12.129-.272.335-.468.618-.589.283-.12.666-.18 1.147-.18h3.174v-.596h.479c.114.475.17.833.17 1.074 0 .137-.01.241-.034.313a.258.258 0 0 1-.139.158.777.777 0 0 1-.325.052h-.234c.173.176.338.407.496.693.158.287.237.607.237.962 0 .312-.057.597-.171.852-.114.256-.29.459-.528.61-.237.152-.534.227-.888.227-.433 0-.79-.15-1.07-.451-.28-.301-.486-.697-.617-1.187a6.706 6.706 0 0 1-.213-1.633h-.254zm.806 0c0 .478.054.872.164 1.18.109.307.253.53.432.668a.972.972 0 0 0 .61.208c.342 0 .592-.085.752-.254.16-.17.24-.397.24-.684 0-.153-.044-.338-.13-.554a2.309 2.309 0 0 0-.315-.564h-1.753zm-2.031-2.246h-.464a3.448 3.448 0 0 0-.098-.315 1.395 1.395 0 0 0-.097-.232.825.825 0 0 0-.381-.264 6.397 6.397 0 0 0-.53-.193 7.368 7.368 0 0 0-.55-.163v-.635l1.421-.01v-1.64h.699v1.635h2.954c.397 0 .673-.01.827-.034.155-.023.254-.069.298-.139.044-.07.066-.198.066-.383v-.005c0-.17-.02-.36-.063-.574a3.098 3.098 0 0 0-.132-.495v-.005l.474-.166c.08.097.163.244.246.44.083.194.152.404.208.629.055.225.083.431.083.62v.01c0 .404-.089.708-.266.913-.178.205-.475.308-.892.308h-3.803v.698zm4.238-4.917h-4.092l-.2.708h-.576l-.2-1.553v-.024l.19-.25h4.878l.083-.78h.532v2.69h-.532l-.083-.791zm-7.217.007c-.153-.128-.23-.308-.23-.54v-.004a.638.638 0 0 1 .347-.588.714.714 0 0 1 .332-.081c.228 0 .415.065.562.195.146.13.22.32.22.567v.004a.603.603 0 0 1-.19.462.673.673 0 0 1-.48.178.843.843 0 0 1-.56-.193zm2.798-2.165h-.518v-2.442h.518l.127.733 2.759-.957 1.313-.43-1.264-.361-2.808-.923-.127.674h-.518v-2.066h.518l.132.508 4.98 1.885v.918l-4.985 2.002-.127.459zm.723-6.475a2.496 2.496 0 0 1-1.028-.933 2.543 2.543 0 0 1-.364-1.352c0-.625.171-1.108.513-1.45.342-.342.835-.524 1.48-.547h.175c.342 0 .602.02.781.058v3.384c.479-.013.876-.094 1.192-.244.315-.15.548-.347.698-.59.15-.245.225-.52.225-.826a2.62 2.62 0 0 0-.14-.823 2.299 2.299 0 0 0-.32-.661l.47-.205c.126.123.247.293.36.51a3.42 3.42 0 0 1 .382 1.511c0 .547-.122 1.008-.364 1.384a2.206 2.206 0 0 1-1.016.843c-.434.185-.941.278-1.52.278-.574 0-1.082-.112-1.524-.337zm.99-3.11a3.873 3.873 0 0 0-.419-.02c-.413.003-.745.09-.996.259-.25.17-.376.436-.376.8 0 .365.136.654.408.867.271.214.733.335 1.384.364v-2.27zm-.99-5.327a2.496 2.496 0 0 1-1.028-.933 2.543 2.543 0 0 1-.364-1.353c0-.625.171-1.108.513-1.45.342-.342.835-.524 1.48-.547h.175c.342 0 .602.02.781.059v3.384c.479-.013.876-.095 1.192-.244.315-.15.548-.347.698-.591.15-.244.225-.52.225-.825 0-.267-.047-.542-.14-.823a2.299 2.299 0 0 0-.32-.662l.47-.205c.126.124.247.294.36.51a3.42 3.42 0 0 1 .382 1.512c0 .546-.122 1.008-.364 1.384a2.206 2.206 0 0 1-1.016.842c-.434.186-.941.278-1.52.278-.574 0-1.082-.112-1.524-.336zm.99-3.11a3.873 3.873 0 0 0-.419-.02c-.413.003-.745.09-.996.258-.25.17-.376.437-.376.801 0 .365.136.654.408.867.271.213.733.334 1.384.364v-2.27zm2.71-2.305l-2.162-1.695-2.134 1.65-.127.577h-.518v-2.588h.518l.127.674 1.201-.86.44-.288-.435-.249-1.206-.898-.127.718h-.518v-2.154h.518l.127.61 2.012 1.607 2.29-1.728.088-.572h.517v2.603h-.517l-.093-.64-1.738 1.187.434.249 1.299.903.098-.806h.517v2.368h-.517l-.093-.668zm-3.7-5.962a2.496 2.496 0 0 1-1.028-.933 2.543 2.543 0 0 1-.364-1.353c0-.625.171-1.108.513-1.45.342-.342.835-.524 1.48-.547h.175c.342 0 .602.02.781.059v3.384c.479-.013.876-.095 1.192-.244.315-.15.548-.347.698-.591.15-.244.225-.52.225-.825 0-.267-.047-.542-.14-.823a2.299 2.299 0 0 0-.32-.662l.47-.205c.126.124.247.294.36.51a3.42 3.42 0 0 1 .382 1.512c0 .547-.122 1.008-.364 1.384a2.206 2.206 0 0 1-1.016.842c-.434.186-.941.279-1.52.279-.574 0-1.082-.113-1.524-.337zm.99-3.11a3.873 3.873 0 0 0-.419-.02c-.413.003-.745.09-.996.259-.25.169-.376.436-.376.8 0 .365.136.654.408.867.271.213.733.334 1.384.364v-2.27zm-2.08-6.26l1.505.048v.679l-.913.225a.45.45 0 0 0-.24.27 1.351 1.351 0 0 0-.078.486c0 .287.08.536.237.748.158.211.394.376.708.493.314.117.702.175 1.165.175.537 0 .983-.07 1.338-.21.354-.14.616-.33.786-.57a1.39 1.39 0 0 0 .254-.816 2.42 2.42 0 0 0-.43-1.396l.45-.21c.12.117.236.273.348.468.113.195.205.414.276.657.072.242.108.486.108.73 0 .55-.123 1.015-.367 1.396s-.578.667-1.003.857a3.51 3.51 0 0 1-1.448.286 3.5 3.5 0 0 1-1.516-.322 2.535 2.535 0 0 1-1.081-.957c-.267-.424-.4-.935-.4-1.534 0-.468.1-.97.302-1.504zm4.737-4.854c.202.208.382.472.54.791.158.319.237.641.237.967 0 .407-.073.737-.218.991-.145.254-.375.441-.69.562-.316.12-.733.18-1.25.18h-2.833l-.18.542h-.474l-.146-1.445v-.005l.131-.205h3.448c.37 0 .66-.028.869-.083.208-.055.36-.153.456-.293.096-.14.144-.342.144-.606 0-.253-.048-.49-.146-.708a2.632 2.632 0 0 0-.337-.566h-3.76l-.19.698h-.474l-.141-1.543v-.01l.131-.258h4.995v-.586h.489c.055.189.098.352.13.49.03.139.046.298.046.477 0 .208-.04.362-.12.461-.08.1-.214.149-.403.149h-.254zm-4.19-2.275h-.463a3.448 3.448 0 0 0-.098-.315 1.395 1.395 0 0 0-.097-.232.825.825 0 0 0-.381-.264 6.397 6.397 0 0 0-.53-.193 7.368 7.368 0 0 0-.55-.163v-.635l1.421-.01v-1.64h.699v1.635h2.954c.397 0 .673-.011.827-.034.155-.023.254-.07.298-.14.044-.07.066-.197.066-.382v-.005c0-.17-.02-.36-.063-.574a3.098 3.098 0 0 0-.132-.496v-.005l.474-.166c.08.098.163.245.246.44.083.195.152.405.208.63.055.224.083.431.083.62v.01c0 .403-.089.708-.266.913-.178.205-.475.307-.892.307h-3.803v.699zm4.239-4.917h-4.092l-.2.708h-.576l-.2-1.553v-.025l.19-.249h4.878l.083-.78h.532v2.69h-.532l-.083-.791zm-7.217.007c-.153-.129-.23-.309-.23-.54v-.005a.638.638 0 0 1 .347-.588.714.714 0 0 1 .332-.08c.228 0 .415.065.562.195.146.13.22.319.22.566v.005a.603.603 0 0 1-.19.462.673.673 0 0 1-.48.178.843.843 0 0 1-.56-.193zm2.505-6.628a2.24 2.24 0 0 1 1.033-.84c.438-.183.938-.274 1.501-.274.602 0 1.123.125 1.563.374.44.249.773.576 1 .981.229.405.343.838.343 1.297 0 .566-.126 1.037-.376 1.413a2.253 2.253 0 0 1-1.033.838c-.438.182-.938.273-1.502.273-.595 0-1.113-.125-1.552-.374a2.605 2.605 0 0 1-1.006-.981 2.567 2.567 0 0 1-.347-1.291c0-.567.125-1.039.376-1.416zm.877.446c-.432.217-.647.56-.647 1.028 0 .45.184.788.554 1.016.37.228.922.342 1.657.342.733 0 1.315-.11 1.746-.33.431-.22.647-.562.647-1.028 0-.902-.737-1.352-2.212-1.352-.732 0-1.314.108-1.745.324zm3.835-3.083h-4.092l-.195.698h-.586l-.195-1.445v-.025l.19-.23h.396l.224.006a3.034 3.034 0 0 1-.386-.564 3.802 3.802 0 0 1-.302-.728 2.545 2.545 0 0 1-.117-.735c0-.423.078-.75.236-.981.158-.231.402-.392.73-.484.33-.09.775-.136 1.338-.136h2.759l.083-.703h.532v2.45h-.532l-.083-.624h-2.764c-.377 0-.674.025-.89.075a.837.837 0 0 0-.49.286c-.108.14-.163.347-.163.62 0 .235.05.479.152.733.1.254.223.477.366.669h3.789l.083-.674h.532v2.431h-.532l-.083-.64zm185.898 86.622h-6.113l-.127.771h-.542v-1.303c0-.163-.005-.335-.014-.516l-.02-.354a14.11 14.11 0 0 1-.039-.888c0-1.247.31-2.174.933-2.78.621-.608 1.495-.912 2.622-.912.79 0 1.49.155 2.1.464.608.31 1.082.743 1.42 1.302.339.558.508 1.2.508 1.926 0 .166-.013.444-.04.835-.025.403-.038.695-.038.874v1.406h-.532l-.118-.825zm.123-1.57c.013-.148.019-.315.019-.5v-.225a2.316 2.316 0 0 0-.383-1.272c-.246-.366-.609-.653-1.09-.86-.48-.206-1.066-.31-1.76-.31-1.05 0-1.845.225-2.382.674-.537.45-.806 1.127-.806 2.032 0 .198.016.444.049.737l.015.151h6.264c.036-.136.06-.279.074-.427zm-3.785-5.515a2.496 2.496 0 0 1-1.027-.933 2.543 2.543 0 0 1-.364-1.352c0-.625.17-1.109.512-1.45.342-.342.835-.525 1.48-.547h.176c.341 0 .602.02.781.058v3.384c.478-.013.876-.094 1.191-.244.316-.15.549-.347.699-.59.15-.245.224-.52.224-.826 0-.267-.046-.541-.139-.823a2.299 2.299 0 0 0-.32-.661l.469-.206c.127.124.247.294.361.51a3.42 3.42 0 0 1 .381 1.512c0 .547-.121 1.008-.364 1.384a2.206 2.206 0 0 1-1.015.842c-.435.186-.942.279-1.521.279-.573 0-1.081-.112-1.524-.337zm.992-3.11a3.873 3.873 0 0 0-.42-.02c-.414.003-.746.09-.996.259-.251.17-.376.436-.376.8 0 .365.135.654.407.867.272.213.733.335 1.385.364v-2.27zm2.705-2.715h-6.812l-.098.8h-.463l-.21-1.665v-.01l.166-.239h7.417l.083-.83h.532v2.735h-.532l-.083-.791zm0-3.384h-4.092l-.2.708h-.577l-.2-1.553v-.024l.19-.25h4.879l.083-.78h.532v2.69h-.532l-.083-.791zm-7.217.007c-.153-.128-.23-.308-.23-.54v-.004a.638.638 0 0 1 .347-.588.714.714 0 0 1 .332-.081c.228 0 .415.065.562.195.146.13.22.32.22.567v.004a.603.603 0 0 1-.191.462.673.673 0 0 1-.479.178.843.843 0 0 1-.561-.193zm2.798-2.165h-.518v-2.442h.518l.127.733 2.758-.957 1.314-.43-1.265-.361-2.807-.923-.127.674h-.518v-2.066h.518l.132.508 4.98 1.885v.918l-4.985 2.002-.127.459zm.722-6.475a2.496 2.496 0 0 1-1.027-.933 2.543 2.543 0 0 1-.364-1.352c0-.625.17-1.108.512-1.45.342-.342.835-.524 1.48-.547h.176c.341 0 .602.02.781.058v3.384c.478-.013.876-.094 1.191-.244.316-.15.549-.347.699-.59.15-.245.224-.52.224-.826 0-.267-.046-.541-.139-.823a2.299 2.299 0 0 0-.32-.661l.469-.205c.127.123.247.293.361.51a3.42 3.42 0 0 1 .381 1.511c0 .547-.121 1.008-.364 1.384a2.206 2.206 0 0 1-1.015.843c-.435.185-.942.278-1.521.278-.573 0-1.081-.112-1.524-.337zm.992-3.11a3.873 3.873 0 0 0-.42-.02c-.414.003-.746.09-.996.259-.251.17-.376.436-.376.8 0 .365.135.654.407.867.272.214.733.335 1.385.364v-2.27zm2.714-2.788h-4.101l-.195.693h-.586l-.196-1.396v-.025l.19-.234h.308l.635.01v-.01a2.419 2.419 0 0 1-.432-.34 2.662 2.662 0 0 1-.496-.649 1.734 1.734 0 0 1-.224-.867c0-.127.018-.234.053-.322h1.202a.927.927 0 0 0-.09.247 1.42 1.42 0 0 0-.037.33c0 .328.04.612.12.851.079.24.18.439.3.598h3.545l.087-1.284h.523v3.164h-.527l-.079-.766zM122 15.5V25h-1v-9H1v9H0V15h122v.5zm51 0V25h-1v-9h-48v9h-1V15h50v.5zm227 0V25h-1v-9H175v9h-1V15h226v.5z" fill="#313D3A"/></g></svg>