<svg width="280" height="164" viewBox="0 0 280 164" xmlns="http://www.w3.org/2000/svg"><title>services-staff-augmentation</title><g fill="none" fill-rule="evenodd"><circle fill="#E66651" cx="30" cy="90" r="20"/><path d="M60 144c0-16.569-13.431-30-30-30-16.569 0-30 13.431-30 30 0 16.569 60 16.569 60 0z" fill="#E66651"/><circle fill="#E66651" cx="110" cy="90" r="20"/><path d="M140 144c0-16.569-13.431-30-30-30-16.569 0-30 13.431-30 30 0 16.569 60 16.569 60 0z" fill="#E66651"/><path d="M195.027 6.801A19.925 19.925 0 0 1 199.777 17h-4.058a15.941 15.941 0 0 0-3.528-7.363l2.836-2.836zm-2.928-2.728A19.898 19.898 0 0 0 182 .099v4.025a15.911 15.911 0 0 1 7.237 2.81l2.862-2.861zm-28.026 28.026A19.901 19.901 0 0 1 160.025 21h4.006a15.914 15.914 0 0 0 2.903 8.237l-2.861 2.862zm2.728 2.928A19.918 19.918 0 0 0 178 39.901v-4.025a15.932 15.932 0 0 1-8.363-3.685l-2.836 2.836zm29.126-2.928A19.901 19.901 0 0 0 199.975 21h-4.006a15.914 15.914 0 0 1-2.903 8.237l2.861 2.862zm-2.728 2.928A19.918 19.918 0 0 1 182 39.901v-4.025a15.932 15.932 0 0 0 8.363-3.685l2.836 2.836zM164.973 6.801A19.925 19.925 0 0 0 160.223 17h4.058a15.941 15.941 0 0 1 3.528-7.363l-2.836-2.836zm2.928-2.728A19.898 19.898 0 0 1 178 .099v4.025a15.911 15.911 0 0 0-7.237 2.81L167.9 4.073z" fill="#666"/><circle fill="#E66651" cx="250" cy="90" r="20"/><path d="M280 144c0-16.569-13.431-30-30-30-16.569 0-30 13.431-30 30 0 16.569 60 16.569 60 0z" fill="#E66651"/><path d="M209.43 68.151c.374 1.892.57 3.848.57 5.849 0 4.617-4.658 7.947-11.38 9.99l-.948-3.542C202.659 79.028 206 76.88 206 74c0-1.644-.152-3.252-.444-4.81l3.874-1.039zm-1.037-3.863a30.056 30.056 0 0 0-9.648-13.712l-2.027 3.51a26.045 26.045 0 0 1 7.8 11.24l3.875-1.038zm-57.823 3.863A30.147 30.147 0 0 0 150 74c0 4.626 4.678 7.96 11.422 10.004l.949-3.544C157.36 79.04 154 76.887 154 74c0-1.644.153-3.252.444-4.81l-3.874-1.039zm1.037-3.863a30.06 30.06 0 0 1 9.863-13.883l2.024 3.506a26.05 26.05 0 0 0-8.012 11.416l-3.875-1.039zm43.138 20.694c-3.93.838-8.308 1.31-12.745 1.42v-3.905c4.132-.093 8.197-.474 11.773-1.144l.972 3.63zm-29.447.01c3.918.831 8.281 1.301 12.702 1.41v-3.905c-4.116-.092-8.164-.47-11.73-1.136l-.972 3.63zm30.154-36.712A29.823 29.823 0 0 0 182 44.066v4.01a25.844 25.844 0 0 1 11.451 3.67l2-3.466zm-30.67-.139A29.822 29.822 0 0 1 178 44.066v4.01a25.842 25.842 0 0 0-11.218 3.53l-2-3.465zM182 122.264V95c0-1.11-.895-2-2-2-1.112 0-2 .895-2 2v27.18l-6.496-6.497a1.997 1.997 0 0 0-2.825.003 1.993 1.993 0 0 0-.004 2.825l9.907 9.907c.402.402.933.596 1.46.583a1.987 1.987 0 0 0 1.462-.583l9.906-9.907a1.992 1.992 0 0 0-.003-2.825 1.997 1.997 0 0 0-2.825-.003L182 122.264z" fill="#666"/><g transform="translate(9 136)"><path d="M0 26h42v1c0 .552-.443 1-.997 1H.997A.996.996 0 0 1 0 27v-1z" fill="#B3B3B3"/><path d="M0 1.997C0 .894.897 0 1.997 0h38.006C41.106 0 42 .895 42 1.997V26H0V1.997z" fill="#CCC"/><circle fill="#FFF" cx="21" cy="13" r="3"/></g><g transform="translate(89 136)"><path d="M0 26h42v1c0 .552-.443 1-.997 1H.997A.996.996 0 0 1 0 27v-1z" fill="#B3B3B3"/><path d="M0 1.997C0 .894.897 0 1.997 0h38.006C41.106 0 42 .895 42 1.997V26H0V1.997z" fill="#CCC"/><circle fill="#FFF" cx="21" cy="13" r="3"/></g><g transform="translate(229 136)"><path d="M0 26h42v1c0 .552-.443 1-.997 1H.997A.996.996 0 0 1 0 27v-1z" fill="#B3B3B3"/><path d="M0 1.997C0 .894.897 0 1.997 0h38.006C41.106 0 42 .895 42 1.997V26H0V1.997z" fill="#CCC"/><circle fill="#FFF" cx="21" cy="13" r="3"/></g><g transform="translate(159 136)"><path d="M0 26h42v1c0 .552-.443 1-.997 1H.997A.996.996 0 0 1 0 27v-1z" fill="#B3B3B3"/><path d="M0 1.997C0 .894.897 0 1.997 0h38.006C41.106 0 42 .895 42 1.997V26H0V1.997z" fill="#CCC"/><circle fill="#FFF" cx="21" cy="13" r="3"/></g></g></svg>