<svg width="19" height="20" viewBox="0 0 19 20" xmlns="http://www.w3.org/2000/svg"><title>calendar-darkest</title><path d="M13 15h-3v3H9v-3H6v3H5v-3H2v-1h3v-3H2v-1h3V7h1v3h3V7h1v3h3V7h1v3h3v1h-3v3h3v1h-3v3h-1v-3zm0-1v-3h-3v3h3zm-4-3H6v3h3v-3zm6-9h2.003C18.106 2 19 2.893 19 3.995v14.01C19 19.107 18.11 20 17.003 20H1.997A1.996 1.996 0 0 1 0 18.005V3.995C0 2.893.89 2 1.997 2H4v-.002C4 .894 4.888 0 6 0c1.105 0 2 .898 2 1.998V2h3v-.002C11 .894 11.888 0 13 0c1.105 0 2 .898 2 1.998V2zM2 7v11h15V7H2zm3-4.99v1.98a1 1 0 1 0 2 0V2.01a1 1 0 1 0-2 0zm7 0v1.98a1 1 0 1 0 2 0V2.01a1 1 0 1 0-2 0z" fill="#2C4A47" fill-rule="evenodd"/></svg>