<svg width="20" height="20" viewBox="0 0 20 20" xmlns="http://www.w3.org/2000/svg"><title>dribbble-darkest</title><path d="M13.333 17.865c-.364-2.092-.972-4.254-1.823-6.485h-.026l-.026.013a52.14 52.14 0 0 0-.56.215c-.234.091-.672.304-1.315.638-.642.334-1.237.69-1.784 1.068-.546.377-1.115.874-1.705 1.49-.59.617-1.038 1.26-1.341 1.928l-.196-.143C6.155 17.89 7.97 18.542 10 18.542a8.54 8.54 0 0 0 3.333-.677zM10.924 9.96a22.68 22.68 0 0 0-.69-1.445c-2.7.807-5.62 1.21-8.763 1.21-.008.061-.013.152-.013.274 0 1.076.191 2.103.573 3.08a8.55 8.55 0 0 0 1.615 2.623c.434-.772.97-1.495 1.608-2.168.638-.673 1.256-1.213 1.855-1.62.6-.409 1.166-.76 1.7-1.056.533-.295.965-.503 1.295-.625l.482-.169.17-.045c.077-.022.134-.042.168-.06zM9.531 7.2c-1.041-1.85-2.1-3.49-3.177-4.922A8.427 8.427 0 0 0 3.307 4.7a8.439 8.439 0 0 0-1.666 3.541c2.621 0 5.251-.347 7.89-1.041zm8.906 4.153c-1.822-.52-3.598-.647-5.325-.377a36.681 36.681 0 0 1 1.667 6.106 8.533 8.533 0 0 0 2.409-2.467 8.42 8.42 0 0 0 1.25-3.262zM7.957 1.706c-.009 0-.018.004-.026.013.008-.009.017-.013.026-.013zm7.682 1.888C14.032 2.17 12.153 1.458 10 1.458c-.66 0-1.332.083-2.018.248 1.137 1.475 2.205 3.133 3.203 4.974a12.095 12.095 0 0 0 1.693-.788c.53-.3.948-.566 1.256-.8.308-.235.593-.483.853-.743s.423-.436.488-.527l.163-.228zm2.904 6.315c-.026-2.014-.673-3.794-1.94-5.339l-.013.013c-.079.105-.161.21-.248.32a7.477 7.477 0 0 1-.566.579c-.291.278-.6.54-.925.788-.325.247-.76.529-1.302.846-.542.317-1.113.597-1.712.84.217.46.408.872.573 1.237l.084.221c.04.104.072.178.098.221.313-.043.636-.073.97-.09a18.478 18.478 0 0 1 1.856-.007 21.44 21.44 0 0 1 2.194.208l.475.078c.13.022.239.041.325.059l.13.026zM20 10c0 1.814-.447 3.487-1.341 5.02a9.955 9.955 0 0 1-3.64 3.639C13.488 19.553 11.815 20 10 20s-3.487-.447-5.02-1.341a9.955 9.955 0 0 1-3.639-3.64C.447 13.488 0 11.815 0 10s.447-3.487 1.341-5.02a9.955 9.955 0 0 1 3.64-3.639C6.512.447 8.185 0 10 0s3.487.447 5.02 1.341a9.955 9.955 0 0 1 3.639 3.64C19.553 6.512 20 8.185 20 10z" fill="#2C4A47" fill-rule="evenodd"/></svg>