<svg width="20" height="16" viewBox="0 0 20 16" xmlns="http://www.w3.org/2000/svg"><title>email-lightest</title><path d="M20 5.067v9.162c0 .491-.175.912-.525 1.261-.35.35-.77.51-1.26.51H1.784c-.49 0-.91-.16-1.26-.51A1.72 1.72 0 0 1 0 14.23V5.066c.327.365.703.688 1.127.97C3.821 7.869 5.67 9.153 6.674 9.889c.424.313.768.557 1.032.731.265.175.616.354 1.055.536.44.182.848.274 1.228.274.402 0 .81-.092 1.25-.274.439-.182.79-.36 1.055-.536.264-.174.608-.418 1.032-.73 1.265-.916 3.117-2.2 5.558-3.851.424-.29.796-.614 1.116-.971zm0-3.281c0 .588-.182 1.15-.547 1.685a5.306 5.306 0 0 1-1.361 1.373 9011.508 9011.508 0 0 0-5.224 3.627l-.474.34c-.242.175-.443.317-.603.424-.16.108-.353.23-.58.363a3.38 3.38 0 0 1-.642.302c-.2.067-.387.1-.558.1H9.99c-.171 0-.357-.033-.558-.1a3.38 3.38 0 0 1-.642-.302c-.227-.134-.42-.255-.58-.363-.16-.107-.361-.249-.603-.424l-.474-.34a552.902 552.902 0 0 0-2.924-2.037 514.652 514.652 0 0 1-2.288-1.59c-.462-.313-.897-.742-1.306-1.29C.204 3.009 0 2.5 0 2.032 0 1.451.154.967.463.581.772.192 1.213 0 1.786 0h16.428c.484 0 .902.175 1.256.525.353.35.53.77.53 1.26z" fill="#FFF" fill-rule="evenodd"/></svg>