<svg width="21" height="20" viewBox="0 0 21 20" xmlns="http://www.w3.org/2000/svg"><title>github-darkest</title><path d="M10.399 0C4.657 0 0 4.59 0 10.253c0 4.53 2.98 8.373 7.112 9.729.52.094.71-.222.71-.494 0-.243-.009-.888-.014-1.744-2.893.62-3.503-1.374-3.503-1.374-.473-1.185-1.155-1.5-1.155-1.5-.944-.636.072-.624.072-.624 1.043.073 1.593 1.057 1.593 1.057.927 1.567 2.434 1.114 3.026.852.095-.662.364-1.114.66-1.37-2.309-.26-4.737-1.139-4.737-5.068 0-1.119.406-2.035 1.071-2.751-.107-.26-.464-1.302.102-2.714 0 0 .873-.275 2.86 1.052.83-.228 1.72-.342 2.603-.346.884.004 1.773.118 2.604.346 1.985-1.327 2.857-1.052 2.857-1.052.568 1.412.21 2.455.104 2.714.667.716 1.069 1.632 1.069 2.751 0 3.94-2.432 4.806-4.748 5.06.373.316.705.942.705 1.898 0 1.37-.013 2.477-.013 2.813 0 .274.188.593.715.493 4.13-1.359 7.107-5.199 7.107-9.728C20.8 4.59 16.143 0 10.399 0" fill="#2C4A47" fill-rule="evenodd"/></svg>