<svg width="20" height="20" viewBox="0 0 20 20" xmlns="http://www.w3.org/2000/svg"><title>linkedin-lightest</title><path d="M17.043 17.043h-2.966V12.4c0-1.107-.019-2.53-1.541-2.53-1.544 0-1.78 1.205-1.78 2.451v4.72H7.794V7.499h2.843v1.305h.041c.396-.75 1.363-1.542 2.806-1.542 3.004 0 3.56 1.976 3.56 4.547v5.235zM4.45 6.194a1.72 1.72 0 1 1-.003-3.44 1.72 1.72 0 0 1 .003 3.44zM2.963 17.043h2.97V7.498h-2.97v9.545zM18.521 0H1.475C.661 0 0 .646 0 1.442v17.115c0 .797.661 1.444 1.475 1.444h17.046c.815 0 1.479-.647 1.479-1.444V1.442C20 .646 19.336 0 18.52 0z" fill="#FFF" fill-rule="evenodd"/></svg>