<svg width="20" height="20" viewBox="0 0 20 20" xmlns="http://www.w3.org/2000/svg"><title>spotlight-darkest</title><path d="M16.998 14.944c-.164-1.153-.49-2.111-.977-2.874-.487-.762-1.174-1.203-2.059-1.322a5.3 5.3 0 0 1-1.78 1.289A5.27 5.27 0 0 1 10 12.5a5.27 5.27 0 0 1-2.182-.463 5.3 5.3 0 0 1-1.78-1.29c-.885.12-1.572.56-2.06 1.323-.487.763-.812 1.72-.976 2.874a8.556 8.556 0 0 0 3.025 2.65 8.352 8.352 0 0 0 3.973.977 8.352 8.352 0 0 0 3.973-.976 8.556 8.556 0 0 0 3.025-2.65zm-2.712-7.801c0-1.183-.419-2.193-1.256-3.03-.837-.837-1.847-1.256-3.03-1.256-1.183 0-2.193.419-3.03 1.256-.837.837-1.256 1.847-1.256 3.03 0 1.183.419 2.193 1.256 3.03.837.837 1.847 1.256 3.03 1.256 1.183 0 2.193-.419 3.03-1.256.837-.837 1.256-1.847 1.256-3.03zM20 10a9.736 9.736 0 0 1-.792 3.878 10.178 10.178 0 0 1-2.127 3.192c-.889.897-1.95 1.61-3.186 2.138A9.803 9.803 0 0 1 10 20a9.775 9.775 0 0 1-3.884-.792c-1.235-.529-2.299-1.24-3.192-2.132-.893-.893-1.603-1.957-2.132-3.192A9.775 9.775 0 0 1 0 10c0-1.354.264-2.649.792-3.884.529-1.235 1.24-2.299 2.132-3.192.893-.893 1.957-1.603 3.192-2.132A9.775 9.775 0 0 1 10 0c1.354 0 2.649.264 3.884.792 1.235.529 2.299 1.24 3.192 2.132.893.893 1.603 1.957 2.132 3.192A9.775 9.775 0 0 1 20 10z" fill="#2B4A47" fill-rule="evenodd"/></svg>