<svg width="22" height="18" viewBox="0 0 22 18" xmlns="http://www.w3.org/2000/svg"><title>twitter-darkest</title><path d="M19.408 2.846A4.552 4.552 0 0 0 21.392.332a9.002 9.002 0 0 1-2.866 1.103A4.494 4.494 0 0 0 15.231 0c-2.492 0-4.513 2.035-4.513 4.544 0 .356.04.703.117 1.036C7.083 5.39 3.758 3.58 1.532.832A4.546 4.546 0 0 0 .92 3.116 4.55 4.55 0 0 0 2.928 6.9 4.473 4.473 0 0 1 .884 6.33v.057a4.54 4.54 0 0 0 3.62 4.456 4.491 4.491 0 0 1-2.038.078 4.522 4.522 0 0 0 4.216 3.156A9.018 9.018 0 0 1 0 15.958 12.713 12.713 0 0 0 6.919 18C15.22 18 19.76 11.076 19.76 5.071c0-.197-.005-.393-.013-.588A9.208 9.208 0 0 0 22 2.131c-.81.361-1.68.605-2.592.715z" fill="#2C4A47" fill-rule="evenodd"/></svg>